<svg version="1.1" xmlns="http://www.w3.org/2000/svg" viewBox="0 0 473 479.00093885925605" width="473" height="479.00093885925605">
  <!-- svg-source:excalidraw -->
  
  <defs>
    <style>
      @font-face {
        font-family: "Virgil";
        src: url("https://excalidraw.com/Virgil.woff2");
      }
      @font-face {
        font-family: "Cascadia";
        src: url("https://excalidraw.com/Cascadia.woff2");
      }
    </style>
  </defs>
  <g stroke-linecap="round" transform="translate(10 12.190657074919386) rotate(0 226.5 228.00665188470066)"><path d="M0.18 -0.72 C156.97 -0.35, 314.33 -0.51, 452.87 -0.36 M0.02 -0.36 C135.13 1.62, 269.97 1.31, 453.22 -0.03 M453.78 0.88 C453.35 144.92, 453.47 292.25, 453.37 455.56 M453.41 0.29 C454.62 146.54, 455.2 293.52, 453 455.94 M452.32 456.44 C314.61 454.22, 175.78 454.95, -0.22 456.04 M453.12 455.98 C344.02 455.96, 234.4 455.02, -0.23 456.22 M-0.5 456.92 C1.97 354.8, 1.93 254.55, 0.9 -0.36 M-0.42 456.15 C1.2 318.65, 1.01 181.96, -0.11 0" stroke="#000000" stroke-width="1" fill="none"></path></g><g stroke-linecap="round" transform="translate(12.944444444444343 81.19730895962027) rotate(0 44 156.5)"><path d="M0 0 C0 0, 0 0, 0 0 M0 0 C0 0, 0 0, 0 0 M0.35 7.11 C1.92 5.24, 3.38 3, 4.31 0.65 M-0.19 6.12 C1.12 5.13, 2.05 3.71, 4.9 0.21 M0.74 11.95 C1.93 8.49, 6.47 5.71, 9.29 0.73 M-0.12 12.08 C4.11 8.37, 6.5 3.61, 10.55 -0.72 M-0.92 16.76 C5.74 11.92, 9.53 7.18, 14.42 1.58 M-0.8 18.16 C4.74 11, 11.92 4.1, 15.91 0.1 M-1.58 25.08 C4.5 17.97, 10.39 9.25, 19.94 -0.02 M0.22 24.63 C5.16 18.3, 9.29 14.76, 20.77 0.4 M0.81 29.03 C10.21 20.85, 19.86 9.12, 25.97 -0.08 M0.74 31.11 C5.64 24.66, 11.55 16.22, 27.23 0.76 M-2.02 37.38 C11.85 22.36, 25.76 6.33, 32.3 -1.83 M-1.03 37.73 C12.36 23.19, 23.74 7.97, 30.97 0.14 M-0.68 41.86 C13.42 31.23, 23.38 17.1, 38.66 -1.37 M-0.47 42.34 C7.87 33.3, 16.76 23.87, 36.03 0.67 M-0.15 47.59 C11.12 33.47, 27.11 20.07, 43.85 -1.57 M-0.43 49.71 C16.02 30.73, 31.54 12.58, 42.15 0.57 M-1.35 55.91 C16.77 36.61, 34.46 15.38, 46.38 2.06 M-0.56 55.2 C14.72 38.08, 28.1 22.39, 47.54 1.12 M-0.48 62.55 C18.24 41.15, 33.63 19.93, 51.57 -0.51 M-0.54 61.73 C16.89 41.01, 34.67 20.86, 52.23 -0.46 M1.4 68.45 C15.18 50.08, 30.24 32.93, 56.21 0.34 M0.62 67.43 C21.37 43.5, 43.19 17.85, 58.87 0 M-1.67 74.17 C17.69 51.42, 36.41 30.99, 63.65 -0.07 M0.63 72.82 C15.68 53.07, 31.83 35.53, 64.04 0.47 M-0.69 78.27 C21.51 53.36, 45.41 27.43, 68.44 1.45 M0.07 80.06 C24.35 52.13, 47.03 25.39, 69.05 -0.22 M-1.2 84.15 C21.07 63.48, 41.75 37.26, 75.45 -1.91 M0.98 84.57 C19.66 62.96, 38.62 39.18, 75.29 0.4 M1.33 90.23 C26.32 61.52, 57.03 30.13, 80.51 -0.85 M-0.26 92.01 C19.86 70.19, 37.45 49.42, 79.01 -0.47 M-0.02 96.77 C27.65 64.27, 57.4 29.38, 85.53 0.16 M-0.32 97.94 C22.93 69.99, 48.26 42.15, 84.64 -0.06 M0.28 104.28 C20.24 80.64, 41.85 58.86, 90.43 1.79 M-0.84 103.02 C21.57 79.8, 42.25 55.4, 88.95 1.7 M0.09 111.87 C30.52 74.49, 61.73 40.91, 89.06 7.69 M-0.27 110.21 C29.05 77.1, 56.98 44.75, 89.07 6.86 M0.13 116.15 C25.52 86.77, 47.98 60.63, 88.84 13.33 M0.73 116.43 C28.28 81.88, 56.58 50.25, 90.41 13.08 M0.55 121.34 C24.4 91.85, 50.7 61.01, 89.6 19.46 M0.12 121.53 C21.18 98.07, 41.71 74.51, 89.64 19.94 M-0.59 130.15 C33.15 88.31, 68.72 50.77, 89.95 26.43 M-0.88 127.93 C34.79 88.25, 69.03 48.53, 89.24 25.99 M0.63 134.15 C21.59 109.49, 44.98 81.7, 91.2 32.56 M0.36 133.86 C30.63 100.58, 60.02 66.13, 89.65 32.05 M1.81 140.15 C22.49 113.3, 45.62 87.71, 89.28 36.58 M-0.11 140.53 C27.91 106.83, 57.33 74.69, 89.31 38.35 M0.79 145.07 C34.45 106.94, 70.13 67.59, 89.17 44.42 M-0.11 145.79 C19.6 123.74, 38.2 102.06, 89.36 44.2 M0.22 154.08 C18.14 132.44, 36.19 109.87, 89.57 51.4 M-0.5 153.12 C30.66 115.4, 62.46 79.15, 88.43 48.97 M-1.97 159.45 C31.13 122.84, 64 84.71, 89.33 57.04 M-0.6 159.25 C26.3 128.77, 52.19 97.61, 89.29 55.73 M-0.62 162.93 C25.42 135.95, 53.98 106.73, 87.4 63.51 M0 165.4 C25.23 135.87, 48.29 106.65, 88.97 62.48 M0.5 170.17 C29.02 140.93, 55.47 107.79, 90.69 69.97 M-0.55 170.47 C24.79 141.19, 52.73 109.48, 88.82 67.31 M-0.78 177.51 C33.39 136.98, 67.59 98.14, 88.56 75.4 M0.35 176.68 C22 151.3, 43.94 125.25, 89.2 74.11 M-0.45 182.19 C25.26 150.73, 53.44 122.63, 89.45 80.82 M0.53 182.57 C32.26 145.43, 65.63 107.05, 88.28 79.48 M-1.81 189.19 C26.3 154.53, 57.95 120.81, 87.34 88.08 M-0.26 188.62 C33.07 151.76, 65.6 113.13, 88.66 86.43 M0.4 193.56 C17.57 171.29, 39.6 149.73, 89.66 90.28 M-0.3 194.5 C27.94 161.83, 55.41 129.63, 89.55 91.59 M-0.07 202.89 C33.9 162.69, 68.4 120.41, 89.2 98.13 M0.24 202.21 C29.07 168.12, 55.72 135.55, 88.75 98.37 M1.45 208.09 C29.31 174.79, 57.19 142.92, 90.57 102.84 M-0.08 207.8 C20.47 182.52, 42.1 160.67, 89.42 104.63 M1.25 213.6 C16.02 194.71, 35.93 174.32, 90.83 110.22 M0.87 214.29 C28.7 180.39, 57.68 146.44, 88.81 111.67 M1.63 220.2 C25.1 189.5, 55.33 158.39, 89.95 115.56 M-0.58 219.36 C20.89 196.01, 40.43 172.92, 88.95 117.89 M-1.16 223.4 C18.44 203.79, 36.06 184.76, 90.73 122.04 M0.21 224.54 C35.85 186.35, 69.61 147.25, 88.74 121.95 M-0.99 231.84 C33.1 193.6, 68.39 153.88, 90.72 131.06 M0.28 232.41 C29.85 197.38, 59.22 163.12, 90.05 130.03 M0.57 238.14 C21.02 215.62, 38.01 194.93, 88.64 133.13 M-0.27 238.24 C20.78 212.56, 41.53 187.89, 90.35 135.41 M-1.09 245.04 C19.49 219.27, 37.34 199.42, 89.04 142.01 M0.53 243.02 C33.41 205.72, 67.12 167.47, 89.57 141.54 M0.83 248.25 C20.68 226.51, 43.05 201.13, 88.78 149.57 M-0.84 251.02 C37.1 210.02, 71.58 167.75, 88.71 147.6 M0.47 254.87 C20.42 234.96, 40.74 212.43, 88.9 152.16 M0.75 255.1 C25.54 228.09, 49.01 199.01, 89.94 153.76 M-0.82 261.73 C25.97 234.26, 49.28 204.07, 90.55 161.01 M-0.88 261.83 C29.24 226.99, 58.85 193.3, 88.73 160.38 M0.02 266.26 C24 241.91, 45.49 217.58, 88.81 165.82 M-0.54 267.18 C19.28 246.36, 36.83 226.19, 89.82 166.39 M0.38 272.64 C31.34 238.66, 61.83 205.47, 88.57 173.16 M-0.86 273.48 C25.75 245.25, 49.32 217.6, 89.3 172.5 M-1.56 282.65 C26.01 249.75, 48.93 223.87, 88.46 176.85 M0.39 281.1 C16.96 259.41, 36.83 239.21, 88.75 178.43 M1.06 286.08 C35.63 242.97, 71.41 205.41, 91.3 184.8 M0.34 285.63 C18.07 265.02, 37.38 243.84, 89.85 184.53 M-0.26 291.07 C32.89 255.35, 64.09 217.37, 88.74 189.18 M-0.84 293.07 C31.45 256.6, 63.25 220.64, 89.22 190.76 M1.02 298.99 C23.31 274.43, 41.5 251.67, 87.73 197.26 M0.71 297.51 C23.87 270.42, 48.71 241.95, 89.06 196.39 M-0.83 306.6 C21.82 281.17, 41.89 254.77, 90.4 201.81 M-0.66 304.12 C19.83 284.2, 37.88 261.79, 89.27 203.11 M-1.4 312.88 C16.22 289.18, 36.27 269.59, 90.01 207.45 M0.53 310.73 C33.29 271.85, 67.68 233.03, 89.5 208.33 M3.78 315.14 C30.8 280.17, 60.78 247.29, 89.37 213.54 M3.01 314.87 C37.55 274.37, 71.48 235.18, 89.85 214.77 M8.5 314.48 C28.64 288.8, 50.98 265.24, 89.5 220.32 M6.15 315.91 C40.22 278.12, 71.87 240.25, 89.65 221.46 M14.4 315.1 C40.5 280.19, 74.06 242.8, 88.1 227.75 M12.76 315.27 C39.24 283.93, 65.65 251.9, 88.16 227.4 M19.49 313.44 C42.99 283.85, 71.9 254.62, 87.42 233.9 M17.71 314.36 C43.55 287.54, 67.16 257.96, 88.59 232.73 M21.96 316.05 C39.15 299.12, 52.15 278.74, 90.21 237.35 M24 315.2 C39.5 296.59, 54.23 279.49, 88.27 239.99 M28.85 313.72 C45.13 297.45, 59.51 277.26, 90.16 244.03 M27.56 315.46 C41.1 300.48, 54.87 286.43, 89.27 243.69 M35.12 315.6 C54.65 292.29, 70.11 270.53, 88.53 249.35 M34.57 315.32 C47.09 301.04, 59.37 287.09, 89.2 251.38 M40.32 315.32 C51.5 302.44, 62.91 286.29, 88.64 257.1 M38.25 314.44 C55.93 295.75, 71.96 277.33, 87.9 257.23 M43.7 313.13 C58.24 298.54, 74.7 278, 87.75 261.8 M44.21 314.89 C59.4 296.25, 76.89 277.16, 89.52 263.26 M48.83 314.03 C58.08 304.56, 71.1 291.91, 88.97 271.08 M49.23 314.1 C58.24 305.12, 66.18 294.78, 88.59 268.55 M54.73 313.87 C64.72 304.58, 75.86 292.19, 87.73 276.57 M54.58 313.77 C67.61 299.99, 79.79 285.64, 88.71 274.9 M60.49 313.48 C65.02 309.51, 69.93 303.11, 88.43 280 M60.85 314.85 C69.8 304.37, 78.11 294.38, 89.35 281.76 M64.41 312.83 C74.02 303.3, 84.79 294.48, 90.87 288.09 M65.23 314.41 C75.46 304.59, 83.5 293.68, 88.5 287.93 M72.61 313.1 C78.2 305.03, 84.2 300.11, 90.18 294.93 M70.37 314.68 C76.2 309.97, 80.44 303.36, 88.78 292.75 M77.5 315.61 C81 309.28, 84.48 305.03, 88.72 300.35 M74.98 314.61 C78.5 310.76, 81.79 307.91, 89.51 299.3 M81.63 315.55 C84.15 313.02, 86.37 309.64, 90.1 305.12 M81.8 314.98 C83.78 312.86, 85.86 309.67, 89.39 305.88" stroke="#82c91e" stroke-width="0.5" fill="none"></path><path d="M0.97 -0.65 C28.69 0.05, 55.31 0.28, 87.34 -1.63 M-0.29 0.08 C25.74 0.17, 53.31 -0.1, 88.36 -0.7 M86.83 -0.47 C91.34 120.15, 89.38 239.49, 89.2 313.14 M87.46 0.57 C88.97 120.78, 89.27 241.61, 87.69 312.39 M88.16 313.81 C69.57 312.91, 47.82 312.2, -1.51 312.52 M88.98 313.16 C58.37 313.16, 31.13 312.85, -0.93 313.82 M-1.38 312.9 C-3.43 236.91, -2.68 158.12, -0.92 0.95 M-0.57 312.42 C-0.78 246.48, -0.66 180.68, 0.02 -0.06" stroke="#000000" stroke-width="1" fill="none"></path></g><g stroke-linecap="round" transform="translate(101.94444444444434 81.19730895962027) rotate(0 135 156.5)"><path d="M0 0 C0 0, 0 0, 0 0 M0 0 C0 0, 0 0, 0 0 M0.45 6.96 C1.95 5.03, 3.08 2.19, 5.28 -0.06 M-0.54 6.46 C1.36 4.49, 2.82 3.1, 4.84 0.33 M0.04 10.75 C2.97 8.88, 6.59 4.03, 11.4 0.28 M0.17 12.68 C3.59 7.97, 5.96 4.46, 9.94 0.36 M-1.8 18.69 C3.36 12.8, 8.64 8.84, 16.87 1.79 M-0.41 17.57 C5.08 12.22, 10.81 5.33, 15.39 0.07 M1.26 22.69 C8.23 14.41, 13.62 5.75, 21.31 -2 M0.82 24.76 C6.19 16.83, 14.34 8, 21.73 0.51 M-1.44 31.14 C7.67 23.79, 13.27 15.08, 25.88 -1.12 M0.64 29.95 C7.72 22.09, 12.76 16.15, 26.72 1.26 M0.24 35.95 C7.28 28.94, 13.27 20.71, 30.17 1.59 M0.6 36.98 C8.66 26.58, 16.06 16.9, 32.13 -0.08 M-0.53 44.33 C9.47 34.29, 15.98 26.36, 35.25 -1.44 M-0.05 42.28 C10.53 31.45, 20.66 17.82, 37.29 0.27 M-1.45 46.95 C8.78 39.11, 19.71 28.25, 41.09 1.23 M0.67 49.27 C11.87 35.32, 23.87 20.88, 43.23 0.32 M1.62 54.57 C13.69 41.76, 23.88 24.71, 49.34 0.02 M0.91 55.06 C11.48 41.33, 23.55 27.37, 48.41 0.41 M1.6 61.88 C12.32 45.9, 23.24 30.38, 52.82 0.17 M0.78 60.6 C12.04 47.26, 23.93 31.21, 52.86 -0.77 M0.84 68.14 C10.73 54.72, 21.88 36.98, 58.29 1.63 M-0.18 67.44 C20 45.13, 38.38 23.75, 57.95 -0.08 M1.31 73.34 C19 51.63, 39.09 26.21, 63.91 -1.11 M-0.04 72.07 C15.6 52.35, 33.53 34.24, 64.46 0.09 M-1.25 78.26 C20.19 56.45, 40.55 32.88, 70.06 0.93 M0.54 80.23 C17.38 58.8, 35.42 38.27, 68.39 -0.07 M-0.62 85.14 C23.98 61.07, 42.92 37.26, 72.74 -0.98 M-0.19 85.69 C29.56 51.27, 57.21 18.71, 75.05 0.24 M-1.19 89.56 C20.85 70.4, 40.12 48.59, 78.43 -1.33 M0.59 92.38 C15.92 73.27, 32.3 53.56, 78.81 0.5 M-1.31 97.03 C25.69 67.44, 50.39 37.36, 85.48 -0.59 M-0.14 97.14 C28.73 65.1, 57.63 31.14, 85.26 -1.08 M0.95 103.14 C19.59 82.34, 40.13 59, 90.98 -1.23 M-0.31 104.03 C27.83 73.2, 54.86 40.99, 90.88 0.56 M1.88 109.68 C30.55 75.03, 62.85 40.18, 96.13 0.08 M0.22 110.72 C30.25 75.42, 60.99 40.23, 95.29 -0.71 M0.91 117.26 C25.8 84.88, 53.92 51.57, 101.11 0.36 M1.19 115.21 C27.6 81.95, 57 50.09, 100.86 -0.03 M-0.56 121.2 C42.02 72.73, 83.27 25.19, 106.49 -1.77 M-0.37 121.93 C23.79 94.17, 47.85 66.65, 106.96 0.41 M1.6 128.14 C31.18 92.38, 65.23 53.51, 112.04 1.74 M-0.63 128.59 C29.18 94.36, 59.28 59.84, 111.6 -0.49 M0.34 132.16 C24.26 106.25, 45.33 81.9, 117.52 1.02 M0.06 134.41 C31.35 98.91, 61.43 63.97, 117.01 0 M-0.31 138.92 C28.67 103.89, 59.2 72.18, 120.78 0.39 M0.07 140.51 C44.73 89.03, 90.97 35.96, 122.56 0.82 M-0.64 146.29 C43.39 98.01, 86.37 46.64, 127.97 -1.48 M0.08 146.69 C37.42 102.89, 75.65 57.89, 127.75 -0.59 M1.53 152.21 C43.03 103.29, 83.96 55.75, 134.02 0.89 M0.67 151.58 C38.16 107.68, 77.08 62.68, 131.84 0.44 M0.34 159.21 C52.29 101.28, 102.98 40.14, 138.32 0.27 M0.16 158.96 C44.98 107.26, 89.27 56.49, 137.16 0.21 M-1.15 163.16 C30.95 132.55, 60.46 96.1, 144.67 -0.5 M0.99 165.05 C46.52 109.89, 92.7 56.34, 143.77 0 M-0.68 171.59 C38.8 127.87, 74.47 87.26, 149.68 0.23 M-0.42 170.23 C58.39 105.52, 115.15 38.18, 147.41 0.91 M1.16 175.63 C34.82 136.24, 69.9 94.84, 155.12 -1.07 M0.46 176.97 C54.73 113.68, 108.96 49.35, 154.03 -0.22 M-0.54 181.89 C34.4 141.59, 72.72 98.08, 159.28 1.3 M-0.23 182.28 C39.24 136.27, 78.46 89.2, 158.16 0.43 M-0.31 188.11 C62.65 117.56, 126.46 41.25, 165.62 0.93 M-0.76 189.42 C42.17 139.8, 84.42 90.01, 164.27 -0.82 M-0.93 193.91 C64.35 121.39, 129.72 46.22, 167.82 0.44 M-0.18 195.16 C59.48 125.63, 120.12 56.32, 168.87 0.9 M1.14 201.2 C58.09 134.21, 114.25 67.39, 174.64 0.08 M0.61 202 C52.03 139.65, 104.67 79.4, 174.82 -0.03 M1.18 207.25 C54.6 144, 109.2 83.24, 178.91 -0.99 M0.95 206.53 C42.16 158.23, 86.62 107.44, 180.29 -0.59 M0.22 212.3 C71.01 134.07, 139.79 56.17, 185.32 0.17 M0.75 213.3 C62.57 141.03, 123.92 69.8, 186.43 -0.18 M0.11 218.68 C68.01 142.64, 135.08 65.3, 189.53 -0.88 M-0.52 220.27 C63.13 147.37, 126.73 75.21, 191.27 -0.59 M-1.3 225.26 C52.5 165.16, 106.59 106.01, 195.8 0.96 M-0.46 225.8 C40.85 179.5, 80.93 132.97, 195.74 0.29 M-0.06 231.34 C52.2 173.15, 103.6 113.23, 202.69 0.53 M0.35 232.45 C67.34 153.06, 135.56 74.33, 201.95 -0.55 M0.79 238.56 C54.62 174.85, 109.36 112.1, 205.78 -1.18 M0.87 237.3 C72.1 154.35, 144.45 71.93, 207.4 -0.87 M0.87 243.85 C63.77 167.53, 131.65 92.59, 212.51 1.07 M-0.53 243.78 C59.76 175.4, 118.85 107.35, 212.18 -0.39 M-1.57 249.74 C51.95 190.65, 102.61 130.77, 218.93 1.02 M0.31 250.71 C44.87 200.05, 88.14 149.36, 217.59 -0.86 M-0.5 256.51 C79.39 167.3, 157.22 76.66, 221.86 -0.32 M-0.35 256.15 C54.7 192.02, 108.48 130.11, 222.93 -0.1 M-0.44 263.2 C78.21 173.1, 155.13 84.74, 229.12 0.11 M-0.38 262.37 C84.37 164.31, 170.94 65.21, 228.71 -0.65 M-0.76 269.06 C88.55 168.02, 177.04 67.11, 233.07 -1.21 M-0.17 267.9 C52.92 208.05, 106.19 148.46, 233.43 0.26 M-1.01 275.38 C90.84 170.52, 182.95 64.32, 239.13 0.05 M-0.48 274.9 C65.96 198.17, 133.68 120.79, 238.71 0.26 M0.97 281.52 C84.84 182.3, 172.68 84.06, 243.09 -1.23 M0.02 280.18 C73.96 195.26, 148.32 109.43, 244.05 0.57 M0.01 285.78 C54.06 220.27, 112.58 157.01, 249.47 -0.82 M-0.26 286.23 C79.31 195.16, 158.73 103.48, 249.31 0.71 M-1.07 293.65 C102.52 176.03, 203.87 58.62, 253.92 0.57 M0.1 292.35 C62.45 221.84, 125.07 150.47, 254.85 -0.48 M0.65 299.26 C52 237.27, 104.74 176.94, 259.89 -0.05 M-0.2 298.02 C71.4 214.95, 143.02 131.97, 259.38 -0.08 M1.06 304.58 C53.75 243.52, 105.72 183.83, 264.9 -1.07 M-0.33 305.27 C84.61 210.5, 167.15 115.34, 265.63 -0.66 M0.71 310.31 C78.39 221.58, 157.86 131.13, 269.48 1.11 M-0.46 311.26 C90.63 204.97, 182.37 99.34, 269.96 0.47 M2.46 314.55 C108.34 191.85, 214.78 69.99, 270.12 6.89 M2.32 315.09 C69.38 234.51, 138.25 155.04, 270.79 5.71 M6.88 315 C97.05 210.75, 187.91 107.02, 270.06 13.35 M7.69 315.24 C78.91 233.31, 150.68 150.64, 270.71 12.85 M13.1 313.42 C110.73 201.56, 207.1 87.84, 270.39 19.31 M13.21 314.38 C94.62 219.51, 176.24 124.91, 270.19 19.1 M16.91 313.93 C82.62 239.41, 148.27 163.19, 271.1 24.82 M17.45 315.46 C80.23 243.76, 141.33 171.93, 270.41 23.93 M24.35 314.94 C103.72 224.54, 180.32 135.94, 269.07 29.92 M23.83 314.68 C79.82 247.02, 137.87 180.31, 270.67 30.45 M27.69 316.08 C124.52 203.71, 219.84 92.29, 270.08 35.19 M28.77 314.62 C76.86 259.45, 126.77 201.56, 269.88 36.64 M34.76 315.63 C111.57 224.34, 188.33 136.7, 269.13 41.74 M34.58 314.81 C86.08 253.69, 138.59 192.72, 270.42 42.41 M39.34 315.43 C131.43 209.42, 220.91 104.48, 269.72 49.51 M38.78 315.24 C107.63 237.12, 176.6 157.07, 269.8 49.39 M43.81 313.46 C107.18 242.65, 168.03 169.05, 269.49 55.55 M44.97 314.01 C135.18 212.11, 224.74 107.97, 270.45 54.52 M49.15 313.77 C122.78 234.94, 192.84 152.47, 271.15 60 M49.19 314.88 C105.79 250.23, 161.79 184.98, 269.45 61.17 M54.94 313.78 C103.11 260.93, 149.49 205.56, 271.46 67.6 M54.87 314.73 C134.05 224.72, 212.98 132.69, 270.31 66.17 M59.4 314.07 C129.35 235.09, 197.52 157.69, 269.14 73.5 M60.35 314.79 C104.49 263.52, 148.21 214.38, 270.37 73.94 M64.83 313.68 C133.98 236.59, 204.18 158.17, 270.06 80.79 M65.97 314.8 C110.55 262.64, 155.74 209.73, 269.95 80.22 M69.74 314.8 C109.26 266.33, 151.96 221.09, 271.33 84.86 M70.88 314.9 C123.82 254.94, 175.51 194.71, 269.75 85.44 M76.29 315.85 C150.7 226.04, 227.74 137.45, 270.36 91.08 M75.55 314.56 C145.71 236.79, 215.18 158.74, 269.59 91.55 M82.63 315.08 C124.11 267.48, 164.35 220.43, 269.85 96.57 M81.91 315.06 C146.12 242.72, 207.44 170.27, 270.8 96.73 M86.76 314.24 C141.67 251.02, 195.75 188.25, 269.75 103.37 M86.1 314.29 C131.18 266.39, 173.41 217.09, 270.07 104.4 M91.37 314.85 C145.55 256.89, 197.29 197.34, 268.86 111.61 M92.85 315.05 C146.63 250.57, 202.31 187.99, 269.24 110.49 M95.76 316.46 C153.55 247.37, 213.7 179.48, 269.02 117 M97.18 314.36 C138.01 270.66, 176.85 225.46, 269.64 116.32 M104.29 314.95 C171.19 237.06, 236.79 160.28, 270.25 120.65 M102.71 314.5 C148.69 260.61, 196.52 206.77, 270.78 121.72 M108.31 316.55 C159.55 255.03, 216.33 190.71, 268.92 128.9 M107.87 315.02 C170.36 241.69, 235.61 167.96, 270.85 127.72 M114.03 314.04 C174.03 243.88, 233.42 174.33, 268.78 134.91 M113.35 314.62 C164.4 256.58, 216.26 197.65, 270.24 134.59 M118.04 313.8 C161.14 265.76, 201.7 216.48, 269.51 140.73 M117.64 315.67 C161.94 265.64, 204.99 215.63, 270.55 141.44 M122.42 315.06 C171.8 256.02, 222.7 200.76, 271.22 144.89 M124.82 314.95 C171.82 260.61, 217.68 208.1, 269.9 146.87 M129.85 313.72 C176.05 262.97, 222.85 207.7, 269.2 153.04 M129.9 314.64 C177.21 259.69, 224.1 205.43, 270.32 153.01 M134.96 315.26 C165.67 278.99, 194.81 246.11, 268.35 157.64 M135.03 314.9 C175.12 267.96, 216.89 220.24, 270.45 159.38 M140.1 314.56 C167.95 283.73, 191.95 251.43, 271.23 166.57 M140.08 314.45 C174.6 272.34, 210.02 231.94, 269.39 165.22 M146.75 316.48 C177.96 279.66, 211.76 243.22, 268.01 170.66 M144.88 313.64 C186.73 264.89, 230.98 215.02, 269.71 171.56 M149.9 313.63 C195.98 265.53, 240.56 211.03, 272.09 178.03 M150.86 315.25 C190.21 269.82, 228.95 225.12, 269.42 176.3 M155.37 313.59 C189.44 273.68, 225.14 235.43, 271.81 182.94 M155.11 314.23 C187.07 277.63, 218.72 241.49, 269.4 184.09 M162.72 314.92 C188.79 283.05, 213.81 250.79, 270.97 190.23 M160.15 313.84 C202.91 265.97, 245.37 217.39, 268.97 189.21 M166.6 314.97 C199.24 275.55, 233.79 238.25, 270.98 195.42 M166.09 313.72 C199.69 274.76, 234.74 235.37, 270.86 195.86 M171.68 313.81 C196.03 285.23, 219.36 257.94, 269.01 200.89 M172.34 313.95 C199.85 284.24, 226.83 251.07, 270.18 202.51 M177.99 314.08 C204.51 284.78, 228.91 252.55, 270.73 208.41 M177.77 315.07 C207.48 277.59, 238.1 243.08, 269.94 206.64 M183.77 312.86 C208.5 285.67, 236.05 250.76, 269.16 215.14 M182.42 314.21 C207.57 285.92, 232.08 256.79, 270.78 212.91 M186.25 314.31 C208.19 288.91, 230.61 263.27, 269.42 218.15 M187.02 315.85 C211.13 289.02, 233.92 262.96, 270.44 219.85 M191.76 313.79 C219.04 285.35, 242 257.82, 270.85 226.59 M191.95 314.17 C222.77 280.98, 253.05 246.29, 270.78 226.28 M197.88 313.99 C223.66 284.73, 249.46 256.31, 269.2 233.81 M198.26 315.32 C226.8 283.22, 255.03 250.34, 270.71 231.56 M202.22 313.54 C228.54 285.57, 255.86 253.32, 269.32 237.99 M203.11 314.27 C220.73 295.47, 237.24 275.37, 269.75 238.41 M209.21 314.91 C230.19 288.27, 250.14 264.5, 272.07 246.02 M207.55 314.87 C222.67 297.42, 239.18 277.64, 269.72 245 M215.56 316.23 C232.35 294.61, 248.07 271.61, 270.98 250.07 M214.65 313.87 C228.22 299.31, 243.23 282.28, 270.24 249.73 M221.05 315.26 C231.07 299.74, 246.14 284.57, 270.48 255.81 M219.21 315.06 C232.46 300.99, 244.2 284.26, 269.72 255.56 M225.99 313.16 C236.25 300.07, 249.88 284.33, 268.01 262.47 M223.93 315.25 C235.36 301.96, 245.73 289.68, 270.33 262.32 M230.02 314.45 C244.5 298.06, 261.09 279.39, 270.72 267.45 M229.13 314.37 C245.82 297.07, 260.06 280.02, 269.52 267.52 M233.54 314.82 C245.25 303.25, 256.79 294.37, 270.42 274.26 M234.9 315.55 C246.99 300.23, 261.03 286.4, 269.73 274.43 M240.55 313.06 C248.91 303.74, 257.99 295.49, 268.22 281.1 M240.81 315.16 C249.91 303.31, 261.78 290.64, 269.88 280.86 M244.04 314.89 C253.46 302.98, 261.7 292.87, 268.72 284.98 M246.09 314.86 C252.8 307.91, 258.94 300.31, 270.4 287.47 M252.87 316.87 C258.35 305.28, 265.81 299.61, 270.18 293.88 M251.34 315.71 C258.84 307.83, 264.53 298.28, 270.14 292.16 M257.14 314.24 C259.38 311.4, 261.44 306.32, 269.2 299.34 M256.66 314.16 C259.53 310.15, 262.18 307.07, 269.91 298.75 M262.55 316.14 C265.03 311.66, 266.11 308.88, 271.12 304.59 M261.47 314.43 C264.1 310.91, 268.21 308.29, 270.19 305.14 M267.06 314.15 C267.79 314.01, 268.67 312.54, 269.76 311.55 M267.06 314.64 C268 313.44, 268.99 312.35, 270.05 311.6" stroke="#228be6" stroke-width="0.5" fill="none"></path><path d="M-0.51 0.51 C60.43 -1.62, 121.24 -1.55, 268.73 0.05 M0.06 -0.74 C61.12 0.58, 121.68 0.9, 269.45 0.64 M269.53 1.28 C269.56 122.19, 269.31 246.95, 270.14 314.22 M270.57 -0.41 C269.05 113.27, 269.09 226.47, 269.39 312.49 M270.63 314.32 C176.63 313.21, 83.08 311.99, -0.38 313.4 M270.12 312.23 C190.27 315.41, 110.68 314.35, 0.64 312.59 M-0.1 311.71 C1.42 188.6, 0.07 64.37, 0.95 -1.25 M-0.58 312.88 C0.72 209.75, 1.29 106.52, -0.06 -0.03" stroke="#000000" stroke-width="1" fill="none"></path></g><g stroke-linecap="round" transform="translate(373.94444444444434 81.69730895962027) rotate(0 44.5 156.5)"><path d="M0 0 C0 0, 0 0, 0 0 M0 0 C0 0, 0 0, 0 0 M0.3 7.1 C1.78 4.74, 2.36 2.79, 4.57 0.08 M-0.2 6.63 C1.06 4.86, 2.92 2.51, 4.95 0.26 M-1.16 12.1 C4.31 8.2, 6.8 3.55, 10.95 0.16 M0.77 12.32 C3.83 6.82, 8.07 2.17, 11.03 -0.57 M0.12 18.29 C3.53 14.2, 8.86 8.19, 17.08 1.78 M-1 17.61 C3.7 13.74, 6.84 10.71, 15.36 0.89 M-1.13 24.8 C7.57 13.01, 15.86 4.82, 19.33 0.39 M0.94 23.18 C6.79 17.57, 11.74 10.68, 21.84 -0.58 M0.67 31.91 C11.21 19.19, 20.42 6.36, 24.83 -0.7 M-0.52 31.33 C4.45 23.53, 11.37 18.58, 27.22 -0.43 M-1.18 36.81 C7.56 27.01, 15.04 18.32, 33.59 -0.88 M-0.16 37.59 C10.36 23.4, 21.57 11, 31.91 -0.96 M1.94 44.11 C12.98 29.06, 26.1 13.4, 35.18 -0.04 M-0.1 42.05 C8.77 33.01, 14.81 25.45, 36.89 -0.5 M-2.09 48.12 C12.73 36.37, 24.52 20.95, 43.89 -0.47 M0.23 48.55 C10.53 36.24, 20.32 25.52, 42.98 -0.46 M0.28 55.79 C20.28 32.08, 35.98 14.21, 47.31 -0.7 M0.77 54.3 C19.7 32.44, 38.34 11.92, 47.69 -0.4 M0.93 60.79 C17.14 38.38, 33.79 19.69, 53.49 -1.41 M-0.35 60.88 C21.7 35.8, 40.99 12.44, 52.55 -1.09 M0.54 66.42 C20.63 42.54, 36.47 22.09, 59.58 0.71 M-0.17 67.92 C11.33 53.44, 23.85 39.57, 57.87 0.41 M0.48 71.94 C26.96 42.98, 49.63 16.45, 62.87 -0.92 M-0.79 72.25 C23.16 45.43, 48.78 17.73, 64.08 -0.28 M-1.26 79.01 C16.17 61.18, 31.8 44.25, 69.54 -0.64 M0.71 79.12 C22.04 53.3, 44.27 27.65, 68.55 0.05 M0.38 86.5 C16.48 66.59, 32.76 48.25, 73.67 1.58 M0.93 85.88 C26.77 53.84, 54.55 23.91, 74.89 -0.86 M-1.86 92.66 C18.11 73.41, 35.51 50.71, 77.95 -1.75 M0.96 90.93 C24.33 63.33, 47.07 36.11, 79.77 0.22 M-1.05 97.97 C31.01 60.73, 62.6 26.86, 84.73 0.49 M-0.95 97.38 C20.74 73.74, 40.49 50.73, 84.24 -1.08 M-0.2 103.51 C31.64 69.54, 60.94 35.29, 88.06 0.93 M0.7 104.25 C32.14 69.06, 62.06 34.2, 89.84 0.99 M-0.31 109.39 C19.2 88.25, 38.52 64.81, 90.15 6.81 M0.73 109.67 C25.28 81.09, 49.91 51.78, 89.37 6.23 M2.02 113.53 C28.35 82.74, 53.75 53.51, 89.82 12.59 M-0.03 114.55 C29.12 80.59, 59.68 47.09, 89.43 13.84 M-0.7 121.88 C26.47 89.98, 54.57 59.71, 88.47 17.07 M0.04 121.54 C26.98 90.83, 54.16 60.98, 90.66 18.48 M-0.42 127.24 C32.41 92.23, 62.14 57.8, 91.36 24.33 M0.03 128.67 C35.22 88.96, 70.17 49.03, 89.13 23.93 M-1.65 135.63 C31.85 95.86, 66.86 60.19, 90.02 30.56 M0.6 134.59 C26.05 104.51, 52.04 75.16, 89 30.71 M-1.54 140.72 C29.16 105.37, 63.01 65.75, 90.18 38.41 M0.05 139.75 C27.92 109.24, 54.21 78.58, 90.61 37.35 M0.57 146.64 C31.11 113.31, 58.49 79.82, 87.69 43.43 M0.97 146.05 C36.43 105.62, 70.76 66.24, 88.58 43.53 M-0.18 154.13 C30.39 116.29, 62.49 81.67, 90.96 48.88 M-0.89 151.82 C28.87 117.89, 57.56 84.46, 90.46 49.79 M0.24 159.45 C30.62 124.91, 57.66 94.22, 89.61 55.9 M-0.05 159.48 C27.61 126.31, 56.44 93.54, 89.53 54.44 M-1.31 164.68 C19.85 145.11, 34.46 125.55, 88.91 62.36 M0.86 164.73 C31.17 126.51, 63.38 91.24, 89.49 61.28 M0.78 172.18 C19.95 147.36, 42.64 125.18, 89.72 69.24 M-0.81 171.77 C28.61 139.2, 55.16 106.89, 90.52 66.75 M-0.72 175.39 C27.34 143.79, 53.3 116.13, 88.39 75.02 M0.87 176.93 C34.05 137.71, 65.97 100.59, 89.4 73.17 M-1.16 181.02 C35.33 143.95, 68.08 105.99, 91.19 78.53 M-0.7 183.67 C35.65 141.55, 70.44 99.68, 90.15 80.38 M-1.66 187.86 C29.89 155.23, 54.86 126.42, 90.98 85.11 M-0.05 190.21 C34.93 149.39, 69.75 108.82, 88.83 86.7 M-1.09 193.2 C22.84 169.92, 43.39 143.97, 89.68 93.43 M0.46 194.77 C33.59 156.98, 67.3 118.11, 90.25 92.6 M-0.24 203.22 C35.45 158.84, 71.33 117.97, 90.13 97.93 M0.77 200.71 C26.06 168.5, 53.76 137.41, 89.99 97.91 M0.67 207.79 C26.78 176.78, 55.64 141.84, 88.03 103.15 M-0.26 206.26 C34.16 169.38, 65.67 131.64, 88.55 105.01 M-1.35 214.69 C18.56 193.46, 38.41 169.68, 90.43 110.61 M-0.03 213.41 C21.75 185.9, 44.22 161.13, 89.97 110.46 M-1.66 220.4 C22.45 195.02, 44.01 167.1, 88.3 116.96 M0.46 219.66 C24.41 192.26, 49.67 163.85, 88.69 116.05 M-0.03 224.54 C25.7 197.86, 53.34 166.73, 91.05 120.83 M0.71 225.13 C22.01 201.08, 42.95 175.35, 90.14 122.35 M-0.73 232.22 C30.3 197.91, 59.36 167.65, 90.39 129.2 M0.82 231.84 C33.14 193.18, 66.01 156.68, 88.89 128.02 M1.88 236.87 C23.59 210.28, 46.5 181.13, 88.28 135.82 M0.1 237.29 C30.47 201.52, 62.17 167.79, 88.72 134.91 M0.05 242.47 C33.08 205.31, 68.68 165.56, 91.37 140.02 M-0.04 243.51 C22.39 218.38, 44.78 193.22, 89.27 139.81 M-0.94 250.33 C23.76 222.52, 46.72 198.22, 91.64 144.89 M0.48 250.66 C23.48 221.61, 47.13 195.44, 88.88 147.33 M1.12 257.48 C25.68 230.35, 47.9 199.59, 88.87 152.13 M0.57 256.24 C26.61 224.21, 55.27 193.65, 89.2 153.64 M1.33 263.11 C27.15 230.71, 56.1 201.32, 90.51 160.42 M0.05 262.32 C35.94 222.74, 71.21 181.87, 89.35 159.63 M2.08 267.36 C21.31 246.54, 40.93 221.8, 87.65 163.81 M0.28 267.17 C25.35 240.01, 51.93 211.63, 89.94 166.1 M1.75 273.5 C26.85 247.06, 49.61 218.53, 89.44 170.57 M0.98 274.24 C34.95 236.45, 69.13 197.53, 89.78 171.43 M1.09 278.79 C23.76 253.11, 48.96 222.21, 87.71 177.38 M-1.08 279.82 C23.15 253.52, 45.03 227.65, 90.66 176.59 M-0.79 284.84 C34.06 247.95, 72 206.61, 87.5 184.11 M-0.03 286.21 C29.06 254.25, 56.92 222.87, 90.04 184.71 M1.44 292.01 C20.32 269.08, 39.7 246.46, 90.89 188.26 M-0.77 292.99 C26.89 262.41, 54.23 231.64, 89.11 188.38 M1.81 298.27 C28.54 265, 57.6 231.24, 88.95 195.32 M-0.34 298.61 C32.87 260.83, 65.62 223.67, 88.9 194.76 M-0.33 305.33 C24.59 273.06, 52.68 244.92, 88.2 201.65 M0.89 305.39 C20.06 283.15, 39.69 261.6, 88.94 201.32 M-1.84 309.51 C24.43 282.73, 48.54 255.1, 91.24 208.58 M-0.1 311.18 C31.31 275.32, 62.67 238.72, 90.06 208.74 M2.1 313.85 C23.62 289.52, 45.29 263.06, 91.21 213.33 M3.08 314.28 C36.02 274.98, 69.53 236.88, 89.06 214.62 M7.25 313.52 C28.61 290.54, 49.73 265.51, 91.68 219.32 M7.67 315.68 C36.72 281.07, 66.12 248.8, 90.79 220.64 M10.85 315.21 C37.5 284.75, 59.57 259.53, 90.61 226.63 M12.52 315.23 C38.72 282.89, 65.42 253.01, 90.25 225.81 M16.13 314.18 C37.92 292.86, 55.38 270.45, 90.75 230.79 M18.72 315.56 C39.33 289.88, 59.81 266.28, 89.24 232.06 M24.14 316.21 C39.04 293.76, 58.17 274.33, 88.34 236.96 M23.7 314.76 C48.3 285.33, 73.45 256.05, 89.21 239.28 M30.36 315.66 C51.53 287.82, 73.83 262.97, 87.49 242.79 M28 315.36 C53.87 287.69, 76.75 258.4, 89.85 244.92 M35.88 313.65 C44.57 298.97, 58.08 283.66, 88.17 248.77 M34.58 315.19 C54.51 291.58, 73.76 268.28, 89.23 251.26 M39.96 316.17 C52.32 298.37, 65.21 283.5, 90.06 256.67 M39.67 314.42 C54.85 297.69, 68.4 280.37, 89.89 256.51 M43.2 316.16 C63.04 292.31, 79.51 271.87, 91.06 264.34 M44.02 314.41 C58.36 299.03, 70.11 285.65, 89.49 262.57 M48.14 315.72 C59.35 305.51, 65.89 298, 87.87 267.89 M49.79 314.71 C62.58 299.28, 75.25 284.4, 89.61 267.94 M54.4 316.17 C66.66 302.71, 75.75 290.57, 90.5 276.52 M55.79 313.93 C66.71 301.56, 75.97 290.09, 88.43 275.39 M59.3 316.17 C67.08 306.62, 76.95 293.35, 90.16 278.93 M60.33 314.76 C66.63 306.83, 74.98 298.05, 90.79 281.18 M64.97 313.91 C74.74 306.65, 83.99 296.42, 91.14 285.68 M66.54 314.82 C75.25 303.36, 84.14 293.15, 90.35 286.22 M71.02 313.16 C76.66 308.6, 85.23 300.56, 89.35 292.09 M71.15 315.7 C76.44 308.03, 82.31 300.34, 90.14 293.78 M76.94 314.2 C81.19 308.89, 85.66 303.68, 88.85 300.31 M75.19 314.54 C78.09 312.37, 82.26 307.87, 89.5 298.42 M81.86 315.57 C84.13 312.05, 86.78 308.87, 88.81 306 M81.84 315.04 C83.5 312.26, 84.63 311.27, 88.94 305.65 M86.27 315.14 C87.51 313.33, 89.04 312.28, 89.7 310.94 M86.29 315.25 C87.34 314.33, 87.96 313.41, 90.03 311.25" stroke="#fab005" stroke-width="0.5" fill="none"></path><path d="M0.65 -0.27 C22.71 0.25, 46.27 -1.34, 89.06 -1.5 M-0.95 0.46 C29.61 0.13, 59.69 -0.77, 89.82 0.93 M90.28 0.56 C86.48 80.05, 88.36 159.61, 90.22 313.89 M88.59 0 C87.2 80.56, 87.01 160.42, 88.49 313.32 M90.68 312.54 C58.53 312.19, 26.45 312.88, 0.51 312.88 M88.01 312.51 C56.12 312.34, 21.46 313.96, -0.53 313.96 M-1.29 314.35 C1.61 220.06, 1.24 128.06, -1.25 0.43 M-0.12 312.84 C1.79 231.93, 1.81 149.98, -0.03 -0.65" stroke="#000000" stroke-width="1" fill="none"></path></g><g stroke-linecap="round"><g transform="translate(100.44444444444434 12.700634901970602) rotate(0 1.3500354813922968 227.89848781046464)"><path d="M0.82 0.36 C1.23 76.17, 2.61 379.36, 2.91 455.19 M-0.21 -0.5 C0 75.42, 1.6 380.17, 1.92 456.3" stroke="#495057" stroke-width="1" fill="none"></path></g></g><g stroke-linecap="round"><g transform="translate(371.94444444444434 10.700634901970602) rotate(0 1.4967125348746322 228.51155496411496)"><path d="M-0.46 -0.7 C0.02 75.42, 2.74 379.98, 3.45 456.12 M1.5 1.55 C1.81 77.94, 2.42 381.73, 2.74 457.72" stroke="#495057" stroke-width="1" fill="none"></path></g></g><g stroke-linecap="round" transform="translate(10.944444444444343 12.197308959620273) rotate(0 226 33.5)"><path d="M0 0 C0 0, 0 0, 0 0 M0 0 C0 0, 0 0, 0 0 M-0.61 6.88 C1.36 4.26, 1.59 4.26, 4.74 0.15 M0.12 6.58 C1.38 4.22, 2.9 2.21, 5.38 0.74 M0.4 12.3 C2.8 7.42, 7.45 4.77, 10.19 0.68 M-0.48 11.97 C3.38 7.95, 7.76 2.84, 10.08 -0.19 M-0.18 16.93 C4.39 12.58, 8.23 8.29, 16.99 0.49 M0.17 18.8 C6.04 12.73, 11.43 4.97, 15.96 -0.25 M1.61 24.89 C5.66 14.67, 14.95 8.22, 19.95 0.3 M0.11 23.64 C7.36 17.16, 12.75 9.69, 20.48 0.5 M-1.67 29.06 C6.33 23.59, 16.3 13.02, 26.49 0.28 M-0.37 29.89 C11.52 17.75, 20.21 6.86, 25.95 0.79 M0.77 38.37 C6.41 27.93, 15.18 20.05, 31.98 0.87 M-0.74 37.69 C8.8 26.29, 17.07 16.2, 32.14 -0.12 M1.91 44.24 C10.18 33.25, 18.82 21.76, 36.22 1.14 M-0.27 43.2 C13.18 27.33, 25.82 12.51, 36.92 0.44 M0.84 46.95 C13.59 36.06, 25.34 20.69, 42.6 0.88 M0.02 49.73 C16.16 28.64, 32.71 11.28, 41.62 -0.53 M1.22 54.52 C17.41 35.58, 33.29 16.25, 46.71 -1.23 M0.06 55.42 C15.25 35.43, 31.72 18.12, 47.78 -0.71 M-0.08 60.84 C17.98 40.94, 39.7 17.16, 51.44 -1.55 M-0.5 60.23 C17.69 42.27, 34.24 22.24, 52.53 0.42 M1.48 68.54 C14.2 53.81, 25.95 38.16, 59.66 -1.31 M0.42 67.58 C22.59 41.18, 46.66 14.06, 57.34 0.56 M7.24 65.29 C22.85 48.74, 38.27 33.42, 65.29 -0.5 M4.63 67.5 C17.45 54.18, 28.26 38.88, 63.38 -0.52 M11.55 68.38 C25.12 54.49, 37.35 40.64, 69.96 0.25 M10.03 67.97 C30.33 45.02, 50.06 22.47, 68.31 0.03 M15.94 65.37 C31.51 49.31, 47.93 29.94, 74.14 -2.21 M17.01 66.44 C31.23 47.8, 48.84 30.05, 73.59 -1.01 M20.52 66.36 C35.23 49.68, 47.96 37.16, 77.72 0.59 M20.02 66.87 C39.29 45.28, 58.5 25.64, 79.31 0.09 M27.1 66.03 C47.98 41.98, 71.3 15.92, 83.18 -1.14 M26.88 66.61 C38.36 53.19, 51.44 40.04, 85.48 -1.12 M31.82 65.81 C51.66 42.93, 73.61 18.23, 88.19 -1.33 M31.59 67.36 C47.69 48.18, 65.06 29.3, 90.87 -0.28 M36.26 67.97 C50.31 52.56, 63.1 35.93, 96.76 0.08 M37.64 66.1 C54.56 44.63, 73.81 23.92, 96.29 0.68 M44.06 65.82 C59.75 48.26, 78.49 26.28, 99.84 -0.73 M42.84 68.07 C58.31 47.84, 75.72 27.35, 101.43 0.49 M48.1 65.73 C69.42 42.88, 92.89 16.82, 106.45 -1.36 M48.61 67.62 C60.63 52.3, 72.52 37.46, 106.15 -0.5 M51.05 65.34 C70.78 44.1, 89.19 22.54, 112.32 0.98 M52.8 67.25 C67.22 52.42, 80.71 36.91, 111.32 0.58 M56.55 67.63 C74.69 50.52, 89.74 33.84, 114.33 0.29 M59 66.46 C78.92 43.59, 98.64 21.13, 115.45 0.82 M61.78 67.1 C78.25 47.54, 96.63 32.35, 122.45 0.19 M63.37 66.75 C78.74 48.56, 96.45 30.44, 122.8 0.73 M68.67 67.84 C83.5 52.5, 93.28 35.29, 127.64 0.31 M69.93 66.51 C79.94 53.69, 92.26 38.53, 127.45 -0.56 M72.43 65.67 C86.24 51.44, 99.43 38.04, 132.27 -0.89 M73.38 68 C86.8 52.72, 98.29 38.81, 132.01 0.32 M80.74 66.3 C98.02 46.02, 115.23 25.12, 138.83 0.08 M80.43 66.25 C102.65 41.98, 123.69 16.51, 138.36 0 M86.36 67.41 C96.44 52.93, 107.28 40.84, 144.98 1.78 M84.57 68.03 C105.27 43.21, 125.15 20.17, 143.01 -0.73 M90.23 64.79 C102.25 52.44, 113.53 37.72, 148.22 0.04 M91.43 66.75 C107.27 46.15, 125.8 26.78, 147.92 0.02 M94.13 66.49 C109.43 50.55, 126.21 30.01, 152.99 -1.97 M95.56 67.44 C115.26 42.45, 136.78 16.81, 153.77 0.15 M99.78 66.9 C123.51 44.26, 143.29 18.74, 159.3 0.42 M101.77 65.67 C115.23 49.44, 129.32 34.57, 158.82 0.57 M105.47 68.92 C122.33 49.53, 136.59 33.56, 165.86 -0.5 M105.91 66.47 C124.82 46.13, 143.9 23.16, 164.17 0.08 M112.56 66.79 C124.93 53.68, 137.1 39.78, 170.73 1.29 M111.55 68.04 C132.44 43.07, 154.54 19.13, 168.62 0.34 M117.33 68.5 C137.25 42.8, 156.52 18.96, 174.39 -0.34 M116.06 66.91 C129.62 53.76, 141.42 39.18, 175.97 0.8 M122.92 66.16 C132.67 51.86, 143.55 38.72, 180.4 -1.5 M120.72 67.19 C137.07 47.98, 153.03 31.24, 179.81 -0.39 M125.81 66.85 C150.48 41.73, 172.44 13.64, 186.52 -2.22 M127.37 66.18 C139.24 52.72, 150.52 39, 184.87 0.62 M132.41 66.78 C153.14 41.13, 176.18 14.53, 189.35 -0.26 M133.2 67.34 C145.9 52.25, 158.91 37.02, 189.78 0.25 M138.21 65.4 C156.91 40.52, 178.52 17.05, 195.41 -1.04 M138.1 67.26 C150.54 52.8, 162.56 38.33, 196.45 0.47 M144.42 67.5 C161.52 43.08, 181.36 21.91, 201.82 0.51 M143.45 66.53 C163.63 42.79, 184.86 18.05, 200.82 -0.28 M149.04 65.38 C165.01 48.45, 179.92 34.32, 207.39 -1.92 M149.42 66.74 C166.97 45.33, 185.81 24.73, 206.21 -0.15 M155.54 68.96 C172.8 47.12, 191.56 22.97, 213.24 0.11 M153.83 67.39 C169.7 49.03, 183.73 33.74, 212.12 -0.92 M159.96 67.87 C173.83 48.94, 189.55 33.94, 217.97 -0.13 M159.41 66.81 C180.59 42.04, 202.13 17.29, 217.55 -1.12 M163.54 65.62 C180.69 50.14, 197.94 30.1, 222.24 1.65 M164.63 67.14 C184.68 42.48, 206.68 18.86, 221.79 0.98 M167.84 65.72 C187.01 43.08, 206.65 22.14, 227.89 -1.16 M169.04 67.24 C190.02 42.24, 210.21 18.99, 227.78 0.24 M175.38 65.77 C190.3 49.63, 206.32 32.19, 234.6 0.07 M174.03 67.63 C196.24 41.08, 217.69 17.36, 232.86 -0.34 M180.75 67.61 C193.9 49.84, 209.82 35.28, 238.36 0.09 M180.2 67.41 C194.05 50.68, 207.4 34.16, 237.46 0 M187.22 67.48 C206.19 40.38, 229.28 15.37, 243.34 -1.88 M186.13 67.25 C200.76 50.33, 215.67 32.32, 243.22 -1.02 M189.91 66.05 C212.89 41.83, 231.57 21.19, 249.8 0.26 M191.69 66.28 C212.1 44.62, 230.06 22.04, 249.03 0.52 M196.37 66.65 C214.61 46.57, 233.36 27.34, 252.61 -1.66 M196.91 67.03 C211.49 49.82, 224.46 34.49, 253.72 0.35 M201.75 65.33 C211.73 55, 224.37 39.61, 257.81 0.06 M201.21 66.4 C221.26 43.74, 239.56 22.63, 258.86 1.04 M205.38 69 C224.27 44.22, 245.85 23.27, 265.79 -0.9 M206.28 66.57 C218.68 53, 232.07 38.36, 266.07 0.81 M213.91 65.57 C229.7 47.38, 247.6 24.32, 271.87 1.27 M211.35 65.93 C227.55 48.46, 242.14 31.52, 269.87 0.63 M217.94 66.06 C230.93 52.58, 241.36 37.78, 277.44 -1.41 M218.05 66.07 C234.06 46.57, 252.12 25.26, 274.93 -1.02 M222.51 67.46 C236.1 53.38, 250.54 38.35, 282.6 -0.52 M222.99 67.38 C241.04 46.78, 258.56 24.07, 280.92 0.96 M226.96 67.15 C246.44 47.48, 265.27 27.09, 285.29 -1.2 M227.93 66.31 C247.13 46.29, 265.09 25.44, 285.82 -0.93 M232.86 69.24 C246.85 50.94, 260.33 34.26, 289.86 0.08 M233.84 66.56 C248.33 51.32, 262.96 33.27, 290.74 0.29 M238.51 67.43 C260.39 40.01, 280.92 14.91, 298.27 1.54 M239.55 66.7 C256.1 45.63, 274.36 26.45, 297.21 -1.11 M243.5 67.2 C257.52 50.58, 274.52 29.86, 302.66 -1.71 M244.58 67.17 C265.11 40.78, 288.71 15.11, 301.99 -0.52 M247.88 67.86 C264.45 47.02, 285.02 26.64, 308.5 0.41 M248.44 67.19 C261.36 52.86, 272.22 39.08, 308.44 -0.15 M252.77 68.73 C265.68 54.55, 277.92 37.55, 311.21 -0.87 M253.44 67.73 C278.15 40.6, 299.71 14.51, 313.24 -0.03 M259.52 67.21 C273.36 52.56, 288.36 37.33, 319.28 0.87 M260.02 66.38 C282.37 40.05, 305.9 14.07, 317.78 -1.08 M266.25 68.99 C287.18 40.62, 306.44 17.06, 322.91 1.44 M265.55 66.37 C283.15 44.63, 300.72 23.71, 322.94 -0.18 M271.07 66.08 C285.63 47.87, 301.07 34.58, 329.11 0.13 M269.64 67.43 C288.63 47.11, 304.74 28.18, 328.39 -1.28 M276.66 67 C300.4 41.47, 320.9 13.92, 334.34 1.86 M274.96 66.8 C295.1 45.47, 314.15 23.94, 333.46 -0.36 M281.38 66.86 C298.14 45.78, 315.29 28.92, 339.65 -0.73 M280.55 66.09 C293.49 52.08, 307.07 37.56, 340.36 -0.58 M287.94 65.54 C305.99 43.66, 325.26 19.3, 343.28 -1.13 M286.62 66.32 C298.57 52.86, 311.23 40.21, 345.09 0.68 M290.47 65.76 C313.64 38.8, 336.04 14.79, 351.13 -0.1 M291.89 66.73 C309.48 45.65, 329.04 25.73, 350.01 -0.46 M295.2 67.24 C316.85 46.47, 333.14 23.75, 356.69 0.73 M296.38 67.84 C311.38 51.07, 324.11 35.45, 356 0.76 M303.55 64.8 C318.42 47.19, 336.68 28.16, 360.91 1.2 M302.74 66.29 C315.93 53.55, 327.68 39.73, 360.53 0.96 M308.75 66.53 C327.47 42.62, 349.2 21.88, 366.71 1.53 M307.02 67.86 C325.66 45.86, 344.52 24.72, 366.3 0.29 M315 67.83 C337.51 38.99, 358.58 13.63, 371.58 0.42 M312.04 66.32 C333.02 41.85, 355.13 17.32, 370.07 -0.61 M318.08 65.65 C331.56 51, 347.1 30.51, 374.69 1.17 M318.18 66.46 C333.09 49.17, 346.38 32.94, 375.97 0.29 M324.43 68.5 C337.74 53.19, 350.6 36.89, 381.55 1.85 M322.68 66.95 C342.39 42.75, 361.82 21.7, 382.31 -0.61 M327.86 66.66 C347.76 45.54, 366.25 25.28, 387.13 1.37 M328.46 67.33 C344.32 51, 358.55 34, 386.91 0.36 M331.94 67.01 C354.65 40.62, 379.52 16.8, 392.45 1.62 M332.77 67.66 C350.95 45.87, 368.73 26.43, 391.88 1.11 M337.97 67.42 C354.25 47.3, 371.71 26.47, 395.76 1.64 M339.32 67.74 C354.57 48.62, 369.41 32.2, 396.95 0.7 M344.81 67.14 C365.71 41.48, 387.22 18.1, 401.09 -0.33 M344.32 68.27 C364.51 44.41, 384.01 21.7, 402.28 0.3 M351.45 65.63 C365.17 49.82, 377.59 36.01, 409.46 -0.68 M349.17 66.56 C371.69 41.53, 394.28 16.33, 407.78 0.11 M353.53 68.73 C373.21 46.14, 395.08 22.97, 411.45 -0.28 M355.25 67.46 C373.62 44.34, 392.02 24.2, 413.93 0.3 M358.55 66.76 C381.24 44.75, 401.73 19.16, 418.33 1.57 M361.28 66.27 C377.76 48.36, 393.98 28.96, 419.05 -0.04 M366.44 68.67 C389 42.46, 409.52 16.56, 422.71 1.34 M366.07 67.73 C380.41 51.01, 394.89 33.19, 424.15 0.03 M372.7 68.12 C381.68 51.85, 394.9 36.18, 429.64 1.34 M371.87 66.91 C382.81 53.94, 394.96 40.29, 430.26 0.24 M377.05 65.68 C390.36 50.42, 406.28 30.96, 433.24 -0.11 M375.17 68.19 C397.74 42.99, 417.68 18.8, 435.18 0.04 M382.51 66.84 C395.41 50.33, 409.71 35.74, 439.84 1.41 M382.03 66.14 C399.83 46.92, 419.23 24.01, 440.86 -0.48 M388.07 68.28 C401.31 53.42, 414.52 34.69, 444.59 -1.44 M386.86 66.53 C407.25 43.82, 425.64 23.41, 446.15 0.42 M391.79 67.85 C413.48 44.89, 431.04 21.44, 450.59 -1.63 M391.78 67.2 C415.36 40.94, 437.62 15.45, 450.18 -1.02 M395.41 66.81 C412.3 54.19, 425.46 38.75, 456.19 1.86 M397.37 67.06 C415.92 47.18, 432.77 26.15, 453.8 2.42 M403.52 67.88 C419.74 48.05, 439.85 27.6, 453.49 6.91 M402.04 66.94 C418.48 49.68, 433.71 32.7, 454.26 8.66 M408.15 65.42 C421.43 48.84, 434.65 34.42, 455.44 14.38 M408.81 66.65 C422.4 50.87, 439.11 33.54, 454.54 15.15 M411.89 67.5 C427.91 49.82, 443.03 34.1, 452.53 18.73 M414.63 65.79 C426.94 50.89, 440.46 35.65, 454.18 20.41 M420.55 66.07 C432.27 51.58, 443.49 34.94, 455.96 26.69 M419.21 66.78 C426.4 58.01, 434.94 48.16, 454.72 25.44 M426.26 67.06 C434.75 53.24, 449.01 41.01, 456.17 32.07 M424.29 65.77 C433.45 57.56, 442.94 45.8, 454.29 31.39 M428.09 68.53 C437.74 59.74, 442.56 53.19, 455.39 37.96 M428.5 67.54 C437.69 56.23, 446.89 46.84, 454.47 38.53 M435.19 66.76 C443.04 61.6, 447 53.85, 454.16 43.52 M434.64 66.5 C442.65 57.24, 450.12 49.36, 454.9 43.91 M439.41 66.4 C441.75 62.36, 446.37 58.55, 455.22 50.43 M440.52 67.59 C443.47 60.94, 449.74 57.12, 453.43 50.52 M446.12 66.61 C447.08 63.2, 451.64 59.68, 454.94 57.1 M446 67.01 C448.58 63.04, 452.15 59.61, 454.15 56.67 M451.08 67.04 C452.64 64.95, 454.05 63.16, 454.98 62.4 M450.69 66.77 C451.86 65.51, 452.82 64.21, 454.39 62.67 M0.03 67.03 C0.03 67.03, 0.03 67.03, 0.03 67.03 M0.03 67.03 C0.03 67.03, 0.03 67.03, 0.03 67.03 M6.76 67.63 C4.96 64.84, 2.22 62.54, -0.64 61.61 M6.65 67.37 C4.22 65.05, 2.19 64.08, -0.53 61.83 M11.96 66.13 C7.62 64.03, 6.57 60.56, -0.32 56.71 M11.32 67.49 C8 64.79, 6.19 60.56, -0.42 55.79 M18.99 67.68 C15.14 62.39, 7.75 58.95, 1.47 51.56 M18.67 67.22 C13.32 63.04, 10.44 60.82, -0.45 51.5 M25.78 68.13 C17.64 61.9, 12.96 56.32, 1.85 44.87 M24.2 67.37 C17.04 61.16, 9.21 54.15, 0.94 45.14 M29.06 67.17 C22.21 61.04, 17.87 55.13, 1.41 40.87 M29.57 66.87 C20.11 59.21, 11.44 51.28, 0.05 41.18 M37.53 69.19 C23.75 57.02, 15.71 50.22, 0.9 36.68 M36.5 66.52 C24.41 56.17, 9.81 44.65, -1.02 36.03 M43.95 65.19 C33.42 60.25, 21.34 52.21, 1.02 31.8 M42.99 66.04 C33.48 57.82, 23.46 49.55, -0.3 30.1 M49.33 66.88 C32.97 55.27, 21.5 40.52, -1.72 22.94 M49.6 66.96 C30.8 50.16, 10.29 32.51, 0 25.43 M55.45 66.2 C38.47 51.46, 24.73 38.84, 0.92 21.45 M54.23 66.98 C34.51 50.2, 14.93 32.59, -0.38 19.92 M60.82 68.71 C43.37 51.83, 23.14 35.4, 0.71 12.16 M60.24 66.13 C41.25 51.52, 22.56 35.7, 0.29 13.02 M69.26 69.12 C42.31 46.36, 16.32 25.88, 0.91 10.77 M67.21 67.15 C49.66 50.77, 31.01 33.56, -0.18 7.89 M74.05 65.37 C59.36 53.6, 41.82 39.27, 0.07 2.69 M73.3 66.39 C47.08 44.68, 20.64 22.71, 0.09 3.11 M78.03 68.73 C58.68 47.84, 35.74 28.24, 0.73 -2.86 M79.52 66.68 C60.21 48.74, 38.88 31.74, -0.04 -0.5 M86.25 67.35 C68.37 52.29, 50.83 37.61, 9.01 -2.77 M84.57 67.71 C58.98 42.61, 30.59 19.71, 7.05 -0.87 M89.84 67.59 C63.49 40.12, 33.28 15.09, 13.14 -1.69 M90.91 66.21 C74.2 51.54, 55.02 36.68, 12.45 -1.62 M98.61 65.61 C79.13 51.12, 63.79 35.24, 18.76 -0.87 M97.52 66.3 C76.47 49.19, 54.25 30.26, 20.18 -0.05 M105.21 65.41 C83.98 52.01, 66.6 34.16, 24.18 -3.19 M104.28 66.36 C76.42 43.42, 47.37 18.55, 24.68 -1.31 M109.24 68.96 C91.36 50.68, 74.45 33.14, 32.28 0.21 M110.24 68 C88.41 48.97, 66.79 30.29, 30.9 -0.29 M113.86 67.71 C85.36 40.61, 55.9 14.61, 39.15 -2.53 M116.43 66.33 C92.28 46.48, 69.25 26.21, 37.06 -1.26 M121.7 67.98 C102.25 49, 77.2 28.73, 42.2 -1.93 M121.98 66.22 C104.28 50.63, 86.66 35.97, 43.04 -0.94 M127.44 66.49 C109.59 54.07, 94.03 37.35, 48.29 -1.03 M128.85 66.57 C101.03 43.41, 74.23 20.39, 50.62 -1.6 M133.97 68.42 C104.69 42.06, 77 16.19, 54.35 0.11 M134.19 67.29 C116.51 53.75, 100.02 38.69, 56.34 -0.73 M140.52 65.58 C121.36 51.89, 106.74 35.71, 63.28 -2.22 M140.64 66.15 C120.97 48.24, 99.7 32.18, 61.56 -0.84 M147.24 67.84 C122.28 47.57, 100.2 23.86, 68.53 0.19 M145.17 67.15 C128.24 51.6, 110.08 37.49, 69.22 -1.14 M151.13 68.6 C123.26 42.56, 94.47 19.78, 74.24 -2.49 M153.09 66.7 C131.4 49.29, 110.07 31.83, 74.23 -0.6 M158.62 68.26 C135.29 46.26, 112.22 25.69, 79.41 0.03 M158.91 67.97 C140.46 50.5, 121.45 33.62, 79.73 -1.05 M165.73 68.33 C142.44 48.59, 116.79 25.01, 86.47 -2.4 M164.62 67.8 C146.18 50.65, 128.3 33.82, 85.9 -0.86 M170.17 65.54 C146.97 46.02, 117.32 24.26, 93.17 -2.89 M170.04 67.58 C154.72 53.5, 138.48 37.71, 92.08 -0.75 M175.97 67.35 C160.52 54.19, 143.41 37.23, 97.22 -2.06 M175.59 67.62 C151.9 45.6, 126.95 23.32, 99.5 -1.4 M181.37 65.33 C152.8 40.81, 121.74 14.09, 104.38 -1.9 M182.37 67.33 C166.98 52.1, 149.74 38.39, 103.65 -0.6 M187.43 66.71 C163.53 43.49, 138.68 21.44, 112.65 0.28 M188.98 67.57 C165.41 47.48, 139.6 24.96, 110.58 -0.33 M194.16 68.45 C176.95 53.65, 163.13 39.19, 116.82 -0.55 M195.83 67.54 C171.14 46.23, 148.1 26.65, 115.71 -0.39 M200.64 67.33 C184.73 53.37, 168.84 38.63, 124.39 0.14 M201.45 67.7 C180.68 50.08, 161.06 32.39, 121.89 -0.23 M205.65 67.51 C175.96 41.25, 147.72 13.61, 128.19 0.08 M207.29 66.1 C185.44 45.25, 160.89 26.5, 130.21 -0.61 M211.55 65.87 C192.52 49.79, 170.7 31.54, 134.49 0.21 M213.8 66.61 C189.87 47.54, 167.69 27.71, 134.31 -0.72 M220.9 67.59 C200.31 51.44, 179.44 34.02, 143.15 -1.21 M219.26 67.18 C191.13 42.75, 164.34 17.87, 140.72 -1.19 M224.57 68.18 C205.84 50.31, 189.47 37.08, 148.2 -1.03 M226.01 66.84 C196.05 41.12, 165.04 16.95, 147.63 -1.83 M229.89 67.63 C204.67 42.44, 176.71 17.75, 153.77 -1.88 M230.9 66.55 C215.06 50.81, 195.22 35.47, 153 -1.43 M237.27 65.91 C215.54 47.86, 189.96 28.19, 158.68 -0.62 M237.95 67.54 C209.9 42.9, 182.58 19.8, 159.31 -1.37 M244.06 68.34 C227.52 49.71, 209.82 37.22, 164.58 -2.22 M244.54 67.54 C212.49 39.54, 181.19 12.38, 165.94 -0.74 M249.19 69.16 C218.6 41.62, 188.53 14.44, 172.07 -1.74 M250.14 67.08 C225.67 47, 200.94 24.35, 171.45 -1.48 M257.27 65.59 C225.83 42.35, 196.09 17.17, 177.3 -0.71 M256.66 66.43 C232.5 45.74, 208.64 26.61, 178.37 -1.93 M262.77 67.91 C239.24 45.18, 216.69 26.44, 183.9 -1.81 M262.76 66.48 C244.33 52.25, 227.06 37.36, 183.31 -0.76 M266.58 67.05 C243.56 46.8, 217.29 22.77, 191.56 -1.34 M268.65 67.1 C240.38 43.38, 212.14 19.1, 189.74 -0.54 M275.92 67.9 C254.65 50.75, 233.5 29.12, 196.17 -3.09 M274.16 67.31 C251.29 47.65, 229.95 28.2, 196.3 -0.87 M280.97 68.89 C252.51 41.03, 222 13.9, 201.96 -0.28 M281.55 67.66 C255.38 43.34, 228.44 21.48, 203.17 -1.49 M286.98 68.03 C263.83 46.17, 238.37 26.4, 206.07 -0.02 M285.83 67.09 C257.9 42.32, 228.53 16.77, 208.77 -1.89 M294.38 69.08 C274.95 52.83, 256.58 37.13, 214.51 -1.92 M293.07 67.86 C265.17 42.74, 235.11 17.49, 213.94 -1.16 M299.45 65.01 C279.44 49.85, 255.14 30.37, 218.71 -2.57 M299.18 65.91 C282.97 54.36, 267.38 40.72, 220.68 -1.63 M306.17 67.4 C278.53 45.29, 251.71 21.53, 227.67 -1.47 M304.05 67.01 C279.53 44.94, 254.61 23.61, 226.49 -1.96 M310.82 66.01 C288 46.45, 259.87 24.85, 232.13 -2.89 M310.27 67.13 C280.29 39.1, 248.98 12.73, 232.67 -0.27 M318.15 66.8 C298.38 52.56, 283.04 38.31, 237.1 -0.36 M317.51 67.35 C295.81 49.06, 275.76 30.44, 239.15 -1.74 M321.47 66.07 C301.44 48.58, 277.56 29.78, 245.84 0.69 M322.81 66.74 C292.12 40.47, 261.75 13.73, 244.54 -0.45 M327.3 66 C304.92 45.38, 278 25.88, 252.38 -1.53 M329.37 66.73 C297.13 38.68, 267.95 13.41, 250.94 -1.07 M335.23 67.99 C311.08 43.6, 286.98 25.31, 257.75 -3.04 M334.66 67.28 C311.63 46.98, 287.64 24.7, 256.24 -1.87 M342.56 68.22 C319.38 49.08, 295.39 29.67, 262.03 -0.07 M341.2 67.23 C319.78 46.88, 297.82 29.11, 262.48 -1.9 M348.38 67.73 C327.43 51.23, 312.54 35.24, 268.99 -1.45 M346.87 67.22 C324.38 47.44, 301.51 26, 268.62 -0.61 M353.78 66.52 C327.25 42.31, 295.34 15.32, 274.01 0.69 M353.24 66.56 C334.61 50.89, 315.71 35.08, 274.6 -1.65 M358.38 67.07 C332.95 45.67, 306.38 22.59, 280.62 -1.47 M360.36 67.63 C329.48 38.22, 298.05 12.4, 282.19 -0.54 M364.28 67.73 C350.55 52.26, 331.4 39.82, 288.71 -1.41 M364.87 66.01 C337.72 42.34, 309.98 17.59, 287.26 -1.76 M372.64 66.25 C351.52 49.91, 330.69 32.67, 294.62 -0.15 M372.73 66.86 C348.7 46.49, 325.2 26.68, 294.13 -1.86 M379.8 65.85 C360.27 51.14, 338.25 33.38, 299.73 -2.72 M377.63 67.79 C356.6 47.58, 334.21 26.97, 300.34 -1.09 M385.47 65.35 C360.99 46.04, 334.98 26.13, 306.41 -0.78 M385.22 67.83 C355.23 44.2, 327.34 19.97, 304.75 -1.24 M389.27 66.68 C368.18 49.68, 345.42 28.55, 310.59 -1.12 M389.97 67.7 C372.34 51.58, 354.87 37.13, 312.35 -1.27 M394.66 68.25 C378.44 50.86, 356.94 34.19, 317.87 0.49 M397.23 66.06 C368.07 42.81, 340.89 17.74, 318.55 -0.41 M401.55 68.5 C377.19 44.25, 351.75 23.73, 323.73 -2.65 M402.01 67.81 C378 44.53, 351.89 22.42, 323.49 -1.27 M406.41 67.97 C381.52 43.18, 354.57 18.8, 330.06 -0.64 M407.33 67.01 C376.95 41.23, 345.96 14.5, 328.89 -1.49 M414.44 67.42 C383.97 40.61, 353.86 14.48, 337.07 -1.57 M414.5 67.8 C388.48 46.86, 365.65 25.36, 336.09 -1.53 M420.12 67.34 C405.69 52.32, 389.53 38.98, 343.95 -0.03 M419.97 66.71 C390.67 41.21, 362.03 16.42, 342.85 -0.37 M427.18 65.34 C407.93 49.01, 388.69 32.4, 348.94 -2.98 M427.36 66.9 C405.48 47.56, 383.46 28.92, 347.66 -0.54 M433.14 67.67 C414.96 49.16, 391.49 32.01, 353.49 0.32 M432.29 66.46 C410.55 47.69, 388.35 28.84, 354.09 -1.29 M437.46 67.33 C417.01 47.9, 393.55 27.16, 358.86 -2.16 M438.67 67.32 C417.83 50.79, 398.09 33.14, 359.58 -2.18 M445.72 66.12 C422.93 47.54, 402.32 29.32, 366.03 0.18 M445.05 66.17 C416.02 41.54, 386.54 15.78, 367.49 -0.95 M450.14 66.24 C427.95 47.14, 404.64 27.63, 372.29 0.06 M451.4 66.81 C433.14 50.39, 413.5 35.7, 373.94 -1.11 M454.56 64.98 C430.25 44.81, 410.42 24.28, 379.38 -1.53 M454.17 63.7 C428.36 41.07, 401.51 18.57, 378.06 -1.11 M452.98 59.54 C441.44 47.98, 426.15 31.96, 385.63 -1.28 M455.14 59.55 C427.6 35.34, 399.53 10.04, 384.42 -1.35 M453.77 53.1 C436.72 38.44, 422.31 24.18, 390.53 -2.04 M453.71 54.22 C429.71 33.71, 407.58 12.71, 391.72 -1.92 M453.73 47.67 C442.61 40.69, 431.64 30.46, 398.7 0.6 M455.22 48.42 C439.27 36.13, 427.07 24.68, 396.92 -0.34 M453.74 42.25 C436.78 26.12, 418.51 10.83, 404.42 -2.17 M454.72 42.62 C441.4 32.01, 427.3 19.5, 404.04 -1.29 M454.62 38.2 C444.8 31.51, 433.76 22.09, 407.79 -2.31 M455.1 37.27 C442.58 28.97, 431.8 17.1, 408.45 -1.62 M453 34.13 C442.33 21.07, 427.51 7.84, 414.9 -0.84 M455.1 32.49 C442.16 21.24, 429.83 11.29, 415.25 -1.52 M453.24 27.26 C442.35 15.53, 432.39 5.91, 423.12 0.4 M455.4 28.24 C446.77 20.2, 436.73 13.36, 422.72 -1.45 M455.25 20.28 C441.92 14.08, 434.19 3.6, 429.28 0.78 M454.66 22.03 C448.54 16.48, 441.96 10.29, 426.73 -1.32 M454.41 18.77 C445.46 10.95, 439.7 2.63, 433.81 -0.99 M453.62 17.09 C448.96 11.61, 443.88 7.73, 435.03 -1.48 M453.42 10.09 C449.6 7.96, 447.87 7.15, 441.22 0.57 M453.16 12 C450.85 7.23, 445.92 3.29, 440.02 -0.52 M454.24 5.26 C451.34 2.89, 448.45 -0.05, 445.19 -0.69 M454.28 6.72 C451.86 4.82, 450.22 2.42, 446.54 -0.89" stroke="#fa5252" stroke-width="0.5" fill="none"></path><path d="M-0.37 -0.59 C181.04 2.78, 360.97 1.69, 451.16 -0.28 M-0.14 0.07 C135.56 -0.84, 271.98 -0.72, 452.45 -0.12 M452.18 1.17 C450.27 17.3, 452.55 31.92, 450.73 68.08 M452.03 -0.37 C451.6 24.33, 452.29 47.08, 451.74 67.71 M452.91 66.24 C284.9 68.8, 118.7 68.45, 0.81 66.61 M451.65 66.93 C282.23 69.06, 113.13 68.77, 0.29 66.98 M-0.42 65.31 C-0.85 47.55, -0.86 26.76, 0.17 1.89 M-0.19 67.17 C-1.12 45.37, -0.68 22.92, 0.5 -0.35" stroke="#000000" stroke-width="1" fill="none"></path></g><g stroke-linecap="round" transform="translate(10.944444444444343 394.1973089596203) rotate(0 226 36)"><path d="M0 0 C0 0, 0 0, 0 0 M0 0 C0 0, 0 0, 0 0 M-0.11 7.01 C1.82 5.39, 3.18 3.67, 5.3 -0.32 M-0.21 6.47 C1.26 4.44, 3.54 2.05, 5.29 0.27 M1.47 12.65 C2.81 7.61, 5.7 5.93, 11.42 -1.37 M0.77 11.79 C3.8 8.46, 7.69 3.29, 10.01 -0.11 M0.3 17.65 C1.48 14.91, 6.37 9.32, 17.06 -0.87 M-1.05 17.76 C5.17 10.88, 10.33 5.61, 14.65 0.62 M2.22 22.23 C7.15 15.88, 12.69 9.31, 19.89 -1.39 M0.11 24.03 C7.4 17.41, 12.3 9.96, 21.74 -0.56 M1.93 31.29 C7.48 20.81, 19.46 10.6, 26.74 0.01 M-0.97 31.22 C8.24 21.58, 15.84 12.98, 25.57 1.27 M-1.73 35.11 C11.04 23.35, 21.63 11.66, 30.48 0.31 M0.24 36.11 C7.15 29.2, 13.88 20.29, 31.61 -1.03 M0.67 41.7 C11.38 30.94, 25.54 16.09, 37.11 2.04 M-0.79 41.91 C8.35 33.09, 16.11 24.82, 36.07 -0.59 M-0.66 48.89 C13.1 30.53, 28.2 16.93, 43.09 1.19 M-0.7 48.62 C10.07 38.14, 18.65 26.76, 42.07 -0.51 M1.98 52.94 C18.91 34.55, 36.32 15.74, 46.28 -0.91 M1.25 53.73 C19.47 33.99, 37.08 12.38, 47.31 0.26 M0.64 60.47 C22.2 38.37, 41.16 13, 51.25 -1.75 M0.92 60.41 C15.74 43.61, 29.95 27.22, 52.31 -1.09 M0.46 69.01 C17.09 50.45, 30.9 33.27, 56.19 -1.74 M-1.2 68.23 C17.3 46.62, 35.77 26.05, 58.04 0.92 M2.49 70.43 C19.85 52.1, 35.3 33.09, 62.28 -0.34 M1.63 72.73 C20.26 49.33, 39 27.05, 64.13 0.05 M4.43 72.03 C27.63 44.84, 51.56 19.36, 68.58 -0.18 M6 72.79 C29.14 47.26, 51.17 20.18, 68.58 0.44 M9.59 70.74 C27.21 53.38, 46.08 34.45, 73.35 0.8 M12.07 72.92 C24.86 56.61, 39.8 40.37, 73.92 0.64 M14.82 73.89 C37.8 44.69, 63.17 21.38, 81.01 1.24 M16.39 72.3 C33.36 55.88, 48.13 37.18, 78.88 -0.26 M23.38 72.41 C35.94 53.8, 52.35 37.24, 83.42 0.21 M21.47 72.1 C42.55 47.91, 62.28 25.66, 84.65 -0.67 M27.75 72.66 C48.69 49.39, 68.18 28.08, 90.84 1.14 M27.48 71.55 C48.95 47.88, 72.08 22.45, 90.47 -0.34 M31 72.34 C58.63 43.9, 80.43 16.19, 97.25 -0.36 M32.47 71.99 C53.21 49.49, 73.01 25.54, 95.89 -0.35 M37.73 72.35 C55.09 55.42, 68.97 35.66, 99.25 -0.61 M37.98 72.95 C58.8 48.9, 77.24 25.66, 100.45 0.95 M42.72 73.39 C62.54 48.07, 83.47 24.83, 105.44 0.01 M42.66 72.96 C62.47 50.7, 82.16 28.18, 105.83 0.05 M49.12 72.12 C72.64 45.81, 92.76 21.34, 111.25 0.98 M49.17 71.83 C68.55 48.47, 90.55 23.8, 111.56 0.27 M54.59 73.3 C74.74 47.63, 97.1 24.78, 115.72 2.2 M53.2 73.03 C75.77 47.27, 99.31 20.78, 116.55 0.65 M60.05 74.35 C82.53 44.32, 106.62 16.98, 123.62 0.14 M58.95 72.43 C74.29 54.5, 88.83 37.68, 122.08 0.18 M64.51 73.3 C85.3 46.48, 109.78 21.52, 127.63 0 M64.86 72.4 C86.62 47.87, 109.12 22.22, 126.74 0.19 M70.49 72.59 C96.14 44.22, 120.41 15.92, 133.01 0.26 M69.78 71.87 C93.96 43.85, 116.71 16.49, 131.94 -0.87 M74.86 71.03 C88.75 56.69, 102.7 41.81, 136.53 0.65 M74.67 72.4 C96.7 47.84, 118.62 22.17, 137.67 0.61 M78.22 71.59 C95.01 52.82, 113 36.96, 143.82 -2.07 M80.75 72.21 C105.62 44.94, 129.25 15.4, 142.62 -0.5 M83.8 73.33 C107.62 47.26, 132.82 19.34, 148.25 1.84 M85.25 72.28 C109.3 43.3, 135.07 16.56, 147.89 -0.03 M90.81 71.26 C104.65 56.42, 115.87 41.88, 152.31 -1.08 M91.53 72.39 C115.24 45.16, 139.3 17.98, 153.21 -0.43 M97.34 72.21 C115.79 48.24, 135.2 27, 158.45 0.43 M96.81 73.19 C115.77 48.42, 137.59 25.49, 158.55 -0.74 M101.68 70.72 C115.3 54.08, 128.07 40.63, 162.53 -1.81 M102.37 72.26 C123.77 45.75, 148.8 18.59, 164.39 -0.48 M105.27 72.9 C123.3 50.61, 140.57 32.85, 168.6 0.48 M107.17 72.19 C118.52 58.1, 131.39 43.01, 169.37 0.36 M114.03 72.29 C127.61 55.14, 142.51 38.4, 174.35 -0.12 M112.12 72.6 C130.05 53.35, 145.74 31.92, 174.45 -0.56 M117.23 73.78 C135 53.51, 151.65 33.27, 181.95 1.22 M117.72 72.25 C132.69 56.05, 145.39 41.16, 180.66 0.07 M120.88 73.44 C144.5 46.44, 166.41 24.31, 187.45 1.34 M122.25 73.06 C140.79 52.02, 157.24 32, 185.25 -0.67 M126.63 74.44 C153.02 42.18, 178.14 16.46, 191.61 1.08 M127.46 72.23 C141.82 56.96, 156.13 39.64, 191.36 0.09 M133.08 70.87 C155.83 44.83, 180.76 16.94, 197.32 1.08 M132.78 72.23 C148.53 54.2, 165.76 34.67, 196.25 -0.91 M138.72 71.66 C151.68 56.24, 165.9 42.19, 200.46 1.69 M138.98 72.92 C163.62 44.58, 187.94 15.86, 200.97 1.02 M143.27 72.43 C169.72 45.92, 192.85 16.09, 207.27 -1.18 M144.36 71.59 C158.87 55.95, 171.55 39.82, 206.53 0.53 M150.56 71.39 C173.53 46.26, 193.74 18.35, 213.23 -0.16 M148.46 73 C169.08 47.88, 191.03 23.67, 211.6 0.37 M153.26 73.93 C173.72 48.09, 197.07 25.01, 216.42 -0.55 M153.57 72.26 C179.4 45, 204.41 14.66, 216.71 -0.63 M159.02 72.78 C178.08 51.35, 199.61 30.1, 224.43 -0.47 M159.68 73.07 C174.52 55.39, 191.16 36.62, 221.94 0.57 M164.63 72.11 C186.62 48.18, 210.44 20.62, 227.7 1.05 M165.52 72.05 C187.34 45.5, 211.3 18.14, 229.06 -0.77 M168.77 72.16 C192.48 46.6, 217.18 18.27, 234.41 -0.07 M170.02 71.6 C188.39 51.91, 206.62 30.24, 233.29 0.94 M174.82 73.15 C194.36 49.69, 216.36 25.44, 239.19 -0.34 M176 71.91 C198.13 46.74, 222.46 18.6, 238.76 0.39 M180.31 71.07 C206.99 45.69, 227.22 15.43, 245.31 -0.59 M180.42 73.02 C196.99 54.23, 210.74 38.72, 243.53 -0.3 M187.73 73.66 C205.98 47.95, 225.88 23.75, 250.77 2.22 M186.01 72.93 C208.1 46.79, 230.99 22.15, 248.55 0.77 M189.95 72.2 C213.34 45.67, 238.29 16.79, 253.09 -0.47 M191.46 71.62 C207.36 53.69, 223.24 35.48, 255.15 0.01 M197.06 73.45 C220.56 48.41, 242.83 19.65, 260.14 -0.86 M197.14 73.14 C217.07 47.76, 239.43 24.15, 258.8 0.47 M201.79 71.47 C222.48 51.77, 239.31 29.89, 263.53 1.02 M201.28 71.63 C219.87 52.62, 238.96 31.12, 265.22 -0.11 M206.35 71.52 C234.4 42.49, 255.93 15.93, 269.49 1.25 M207.62 73.45 C221.5 54.83, 237.37 37.68, 270.13 0.74 M211.79 73.94 C230.5 51.57, 246.68 31.81, 276.22 -0.18 M213.63 73.17 C229.23 54.15, 245.47 34.69, 275.4 0.3 M216.92 74.03 C240.02 46.64, 261.56 21.32, 280.8 0.58 M218.21 71.69 C236.07 52.62, 253.87 31.22, 280.75 0.73 M223.67 73.89 C247.57 41.83, 272.04 17.02, 284.55 -0.96 M223.85 72.26 C245 47.41, 266.24 22.44, 285.96 -0.9 M227.93 74.36 C247.85 46.59, 270.06 24.3, 291.9 -1.68 M228.32 72.58 C250.4 47.61, 274.49 20.5, 290.49 -0.51 M232.99 70.79 C255.58 50.39, 275.27 25.77, 295.74 0.98 M234.87 72.83 C248.79 57.29, 261.96 41.07, 297.75 -0.96 M240.34 73.05 C263.11 45.27, 289.96 15.51, 300.38 0.89 M239.92 71.76 C257.14 53.41, 273.89 35.35, 302.73 0 M243.12 73.28 C258.16 59.26, 268.93 41.17, 306.81 -0.86 M245.22 72.73 C259.55 57.74, 272.9 42.5, 308.22 -0.2 M248.93 73.86 C271.37 48.94, 293.04 24.31, 311.68 -0.13 M249.58 71.79 C266.78 52.82, 284.51 32.19, 312.47 -0.87 M257.24 71.2 C271.07 50.86, 291.46 32.42, 316.6 -1.81 M255.02 71.71 C270.07 53.93, 284.35 38.56, 317.41 -0.04 M258.28 71.7 C279.63 48.09, 301.12 28.28, 323.06 0.03 M260.48 72.1 C284.06 45.51, 308.51 17.76, 322.3 -0.35 M266.35 71.56 C278.28 56.95, 293.45 43.28, 329.76 -2 M265.99 71.41 C288.22 45.34, 311.72 18.58, 327.96 -1.02 M270.78 72.7 C287.61 51.47, 307.59 30.7, 335.55 -0.68 M270.37 73.06 C284.84 57.03, 298.74 40.08, 334.41 0.24 M276.59 71.34 C294.01 48.2, 315.48 26.36, 340.75 1.63 M276.77 72.16 C294.86 51.48, 314.81 28.33, 339.1 -0.74 M282.66 74.16 C298.07 51.6, 316.88 29.05, 346.04 0.9 M281.61 71.92 C304.77 46.37, 328.89 19.08, 344.57 -0.5 M287.9 74.42 C300.46 57.64, 312.63 41.29, 349.18 0.06 M285.58 71.9 C306.34 48.75, 326.28 25.62, 350 0.85 M291.94 72.57 C308.25 56.74, 322.81 40.02, 355.19 1.1 M291.14 72.85 C309.19 54.1, 325.48 35.67, 354.15 -0.07 M298.04 72.14 C319.49 47, 341.03 22.67, 358.47 1.23 M296.26 72.77 C313.66 52.77, 331.92 34.74, 360.38 0.44 M302.45 71.6 C318.7 52.45, 339.1 33.51, 367.51 1.45 M302.52 72.93 C317.38 56.25, 330.09 38.65, 366.12 -0.07 M309.27 72.27 C318.71 59.32, 332.46 41.53, 371.84 -1.51 M306.89 72.03 C320.77 56.8, 334.63 41.74, 370.6 -0.11 M311.85 74.14 C327.88 57.02, 339.62 42.12, 375.3 0.65 M313.87 72.15 C333.41 49.96, 352.56 27.39, 377.03 -0.2 M319.64 71.78 C343.6 46.61, 365.51 18.84, 383.01 -0.34 M319.17 72.88 C330.85 57.39, 343.17 43.42, 382.27 1.2 M323.59 74.22 C346.45 46.27, 367.73 21.45, 386.68 -1.4 M323.93 71.38 C337.05 56.75, 349.96 41.02, 387.04 -0.24 M331.01 72.8 C347.18 49.67, 368.46 29.08, 391.51 -0.27 M328.37 72.41 C345.2 53.9, 362.8 33.04, 391.59 -0.69 M334.95 73.08 C355.18 46.03, 378.47 17.49, 397.58 0.38 M334.02 72.42 C358.12 47.33, 379.93 20.85, 397.89 -0.07 M341.07 70.69 C355.52 53.25, 370.8 38.35, 402.68 0.87 M339.36 73.61 C356.09 54.15, 371.6 36.52, 403.34 0.03 M345.01 71.17 C365.68 50.12, 386.42 24.21, 407.74 0.28 M346.06 71.97 C359.85 57, 373.23 41.65, 408.93 0.35 M351.3 73.95 C373.56 46.25, 398 21.11, 411.66 0.45 M350.6 73.38 C372.01 47.03, 393.46 21.52, 412.92 0.09 M354.69 72.1 C370.53 58.89, 382.56 43.05, 420.71 1.74 M356.55 71.63 C368.31 56.5, 380.56 42.1, 419.08 -1.07 M359.03 72.3 C377.34 51.14, 394.58 34.54, 423.41 -0.98 M360.16 72.54 C385.27 44.91, 409.29 15.88, 424.3 -0.87 M366.68 70.66 C379.16 56.45, 390.72 41.66, 427.87 1.42 M366.61 71.93 C390.02 44.21, 414.55 15.95, 428.86 -0.46 M373.35 72.63 C387.03 56.36, 400.74 40.06, 432.71 0.33 M371.68 71.79 C392.92 45.21, 415.76 19.62, 434.06 -0.3 M377.51 72.85 C390.78 57.19, 403.4 41.39, 440.4 1.15 M377.93 72.27 C397.81 46.86, 419.11 23.18, 440.42 -0.09 M383.21 71.03 C404.55 45.67, 427.57 18.56, 444.15 -0.7 M382.4 71.77 C399.02 53.6, 414.96 36.76, 445.36 -0.75 M388.86 72.6 C407.56 49.25, 428.27 27.58, 449.29 -0.04 M388.15 73.74 C407.47 50.14, 427.78 25.49, 451.44 -0.31 M393.35 72.78 C410.59 52.36, 424.52 38.04, 454.81 -0.44 M393.18 72.99 C408.02 54.16, 424.06 37.24, 454.66 1.63 M398.21 72.77 C417.97 48.47, 438.93 24.41, 454.12 6.35 M397.46 72.05 C413.9 55.65, 430.09 36.92, 454.04 8.74 M404.32 72.33 C420.55 50.54, 440.78 30.63, 452.38 16.22 M402.44 71.9 C418.94 52.31, 435.79 33.75, 453.78 13.93 M406.84 73.68 C424.34 52.83, 439.73 35.08, 453.46 21.19 M408.7 72.11 C420.35 58.87, 432.71 45.14, 455.04 20.01 M412.49 73.33 C427.92 53.79, 442.28 39.19, 453.38 25.71 M414.2 72.83 C423.52 60.83, 434.23 50.38, 454.17 26.24 M418.53 74.05 C427.92 62.81, 435.63 51.61, 453.02 31.3 M419.93 72.94 C431.82 56.57, 445.85 41.22, 454.22 31.09 M426.05 72.62 C433.53 65.07, 440.63 55.17, 452.99 36.45 M424.1 72.03 C435.83 59.66, 445.4 49.07, 454.7 38.38 M430.88 71.82 C440.07 63.64, 445.15 53.98, 454.37 45.2 M429.83 72.51 C437.4 64.21, 445.24 56.36, 453.02 44.02 M436.98 72.21 C441.4 65.5, 443.24 62.57, 452.85 51.31 M435.34 71.65 C438.35 68.7, 442.69 63.28, 453.53 50.34 M439.28 72.1 C445.24 66.77, 447.92 63.56, 452.89 58.35 M439.64 73.67 C444.14 67, 450.04 62.14, 454.43 56.46 M445.39 71.67 C446.65 70.4, 449.7 67.89, 455.75 63.69 M446.46 71.95 C448.35 69.8, 450.95 66.02, 455.06 62.83 M450.44 72.3 C451.85 71.22, 452.49 70.4, 454.11 69.08 M451.01 72.54 C451.76 71.89, 452.19 71.04, 454.43 68.73 M-0.18 71.85 C-0.18 71.85, -0.18 71.85, -0.18 71.85 M-0.18 71.85 C-0.18 71.85, -0.18 71.85, -0.18 71.85 M6.75 72.1 C5.04 71.3, 2.47 68.36, 0.35 67.45 M6.02 72.14 C4.48 70.85, 2.77 69.3, -0.03 66.65 M11.8 70.62 C8.59 68.11, 4.23 65.17, -1.07 60.02 M11.83 72.46 C8.95 68.83, 5.82 66.1, -0.81 61.17 M20.03 70.39 C15.13 70.01, 10.38 63.8, -1.06 56.44 M18.22 72.21 C11.3 65.51, 3.76 59.67, 0.79 57.1 M26.57 71.71 C15.99 63.89, 8.67 60.39, 0.19 48.79 M24.61 72.18 C16.86 67.24, 10.56 60.14, 0.09 49.65 M32.29 71.54 C17.1 59.69, 7.2 50.35, 0.16 44.26 M29.63 72.31 C20.36 63.91, 13.07 55.89, 0.55 45.93 M35.12 72.64 C29.68 65.08, 19.33 58.83, 1.36 40.14 M35.98 72.82 C27.99 65.58, 19.65 57.39, -0.98 39.46 M40.79 72.6 C26.9 57.3, 6.66 44.01, 1.35 34.69 M42.17 71.87 C32.32 63.29, 23.06 54.93, 0.59 35.54 M49.06 70.96 C28.87 53, 11.17 36.85, -1.25 27.73 M49.44 72.84 C31.63 55.8, 12.91 40.74, -0.48 30 M56.55 70.47 C38.33 55.98, 19.27 41.4, -0.55 23.81 M55.43 71.84 C41.75 59.53, 28.4 49.31, 0.16 24.56 M59.09 72.98 C44.11 54.54, 24.01 40.54, -1.31 16.76 M61.37 71.73 C38.84 52.24, 14.5 30.97, -0.11 19.6 M66.15 71.26 C45.43 52.37, 22.3 34.59, -0.8 12.9 M67.31 72.12 C47.56 54.67, 28.2 39.05, 0.08 13.52 M71.68 70.25 C56.05 57, 42.17 43.44, 2.08 8.25 M73.74 70.88 C47.48 49.68, 21.66 27.24, -0.24 8.15 M80.25 70.24 C63.62 57.12, 49.03 45.14, 1.16 4.42 M78.58 71.45 C47.82 43.79, 16.5 17.75, 0.8 2.84 M85.91 72.12 C57.7 47.31, 33.49 26.26, 2.15 -2.91 M84.85 72.27 C59.34 49.93, 31.2 25.84, 1.87 -0.88 M90.56 73.22 C72.48 55.35, 49.88 38.86, 9.25 0.57 M91.84 70.86 C66.69 50.62, 43.21 29.64, 7.89 -0.56 M98.37 71.18 C82.35 57.8, 63.87 42.62, 13.97 -0.14 M98.35 71.8 C68.76 46.74, 40.61 22.68, 13.61 -0.59 M102.6 73.19 C77.03 49.83, 52.13 26.76, 20.61 -0.42 M104.3 72.26 C70.6 41.63, 36.26 13.17, 19.95 -1.07 M107.76 71.17 C75.63 45.67, 45.29 18.74, 23.82 -3.34 M109.74 71.25 C86.93 53.49, 64.98 32.82, 24.32 -0.89 M116.47 70.99 C95.83 52.59, 71.58 35.51, 30.73 -0.49 M116.49 73.13 C97.05 55.44, 77.33 38.01, 31.66 -0.47 M119.82 72.36 C91.8 45.97, 62.73 24.31, 39.85 -2.75 M121.36 71.63 C97.27 49.76, 72.1 27.68, 38.02 -0.25 M127.8 72.66 C108.76 54.46, 86.81 35.71, 43.41 -0.41 M127.3 71.89 C94.52 43.03, 62.9 15.66, 43.84 -0.7 M132.1 72.21 C106.73 49.18, 80.29 29.3, 49.77 0.63 M133.14 71.9 C107.79 50.89, 83.23 28.91, 49.06 -0.23 M140.31 73.42 C119.59 52.67, 97.81 35.37, 54.26 0.21 M140.46 71.84 C109.88 44.13, 79.63 18.06, 54.88 -1.79 M146.73 74.03 C120.22 48.1, 92.46 22.87, 61.35 -1.05 M147.36 71.54 C126.17 52.95, 104.69 36.34, 62.64 -1.5 M150.78 71 C120.11 43.46, 89.69 16.25, 67.47 -0.4 M151.55 72.52 C123.87 47.08, 97.23 22.45, 67.54 -1.22 M159.38 72.34 C131.16 47.07, 103.12 26.38, 75.42 -1.13 M157.63 71.99 C128.87 47.47, 98.87 20.55, 73.8 -0.5 M165.79 70.35 C141.93 51.08, 117.66 29.7, 80.77 -0.76 M164.73 72.37 C133.61 45.11, 101.33 17.39, 79.9 -0.53 M171.79 72.81 C149.67 54.31, 127.62 34.09, 86.65 -1.72 M171.43 72.56 C150.63 55.35, 132.32 38.77, 86.18 -0.73 M178.5 72.22 C160.31 56.71, 144.18 41.62, 93.97 -0.26 M177.51 71.42 C155.42 53.99, 134.25 34.04, 91.89 -1.37 M180.77 73.66 C154.28 43.29, 122.36 16.94, 100.24 -1.12 M183.07 71.8 C164.54 55.53, 146.44 39.46, 98.76 -0.15 M189.6 70.62 C161.21 50.03, 135.95 23.57, 105.95 -1.75 M189.75 72.6 C170.99 56.89, 151.91 38.52, 104.29 -2.15 M194.94 70.29 C169.54 46.98, 140.59 26.32, 112.97 -0.41 M194.43 72.19 C166.67 47.58, 136.86 22.45, 110.86 -1.79 M199.89 72.68 C170.43 42.59, 138.23 14.8, 115.38 -2.91 M200.15 71.75 C182.91 55.43, 163.44 38.34, 117.47 -1.37 M207.49 71.93 C182.24 49.97, 153.62 26.06, 121.66 0.5 M207.78 72.75 C179.01 48.14, 151.79 23, 122.65 -1.78 M211.19 72.1 C189.36 51.63, 164.8 30.95, 129.51 0.45 M213.24 70.94 C186.83 49.21, 160.82 27.81, 130.15 -0.99 M221.15 71.05 C190.73 48.76, 166.61 24.6, 136.23 0.24 M218.69 72.44 C187.46 44.21, 156.17 17.8, 134.14 -2.03 M227.15 69.72 C197.69 47.42, 170.75 23.73, 141.13 -0.27 M226.17 71.15 C193.28 44.41, 160.56 16.28, 142.39 -0.99 M232.72 71.26 C210.5 56.75, 191.01 38.93, 148.38 -3.4 M232.6 72.11 C198.49 44.49, 167.39 16.85, 147.94 -1.51 M238 70.27 C212.98 51.27, 188.6 26.55, 153.13 -2.52 M237.42 72.92 C216.54 53, 193.41 34.15, 154.08 -1.51 M242.09 72.71 C211.1 43.12, 180.03 18.61, 160.39 -0.78 M243.79 71.84 C218.87 49.34, 191.41 25.94, 159.99 -1.66 M249.49 71.67 C216.99 41.69, 183.29 14.13, 167.42 -3.22 M249.8 71.74 C225.84 51.75, 203.37 32.24, 165.97 -1.42 M256.92 72.73 C226.45 47.71, 203.01 27.42, 170.09 -1.01 M256.13 71.63 C230.68 50.57, 207.66 28.69, 172.59 -0.96 M263.47 73.01 C231.17 45.78, 201.96 19.52, 177.76 -2.09 M263 71.96 C229.27 42.86, 195.53 13.76, 178.4 -1.71 M269.46 70.51 C240.25 47.91, 210 24.95, 183.39 -0.09 M267.84 72.05 C248.09 55.79, 228.88 37.35, 184.87 -1.03 M274.83 71.9 C247.68 47.41, 222.52 28.5, 190.45 -1.02 M274.51 72.18 C247.26 47.52, 219.05 23.09, 190.06 -0.77 M281.52 72.43 C253.3 47.72, 227.31 28.64, 195.25 0.55 M280.46 71.59 C258.89 53.96, 238.73 34.84, 195.81 -1.22 M285.06 73.81 C261.82 54.32, 242.58 30.96, 201.35 -2.67 M287.19 72.58 C266.43 53.87, 243.76 35.66, 202.96 -1.08 M292.96 72.06 C271.04 53.92, 254.14 39.81, 206.43 -1.36 M293.41 72.61 C271.95 54.84, 251.97 36.72, 208.99 -2 M299.14 73.4 C273.85 51.43, 247.48 28.09, 216.4 -2.55 M298.25 72.26 C278.3 55.55, 260.17 38.73, 214.99 -1.24 M302.72 71.48 C276.37 49.93, 251.76 27.73, 220.29 -0.24 M304.92 72.75 C278.28 49.88, 254.84 29.61, 221.33 -0.25 M310.2 70.53 C282.18 46.55, 249.22 20.23, 224.59 0.37 M311.71 71.21 C291.74 56.85, 271.36 40.37, 226.85 -0.6 M318.29 70.62 C299.26 54.19, 279.22 37.64, 231.71 -1.26 M317.6 72.18 C292.04 51.17, 268.55 28.36, 232.08 -1.94 M324.36 71.55 C291.98 42.65, 256.28 11.99, 238.73 0.28 M323.48 71.64 C298.38 49.42, 274.79 28.57, 238.86 -0.59 M328.72 72.63 C297.84 46.77, 267.42 19.15, 243.65 -0.49 M329.37 73.03 C304.15 50.26, 277.28 27.49, 245.35 -2.15 M333.59 70.01 C307.58 50.94, 281.92 29.48, 252.19 -2.74 M336.03 72.71 C303.84 45.77, 272.38 19.47, 251.67 -0.09 M341.14 71.8 C319.71 51.26, 296.41 28.99, 256.16 -3.42 M342 71.29 C325.15 56.98, 306.63 41.34, 257.09 -1.7 M348.42 71.32 C317.97 46.41, 286.76 21.31, 263.88 -1.44 M347.19 73.11 C324.89 51.51, 300.39 30.39, 263.26 -2.05 M353.72 70.98 C333.38 52.09, 309.63 34.54, 267.05 -0.39 M354.12 72.22 C334.71 55.64, 315.55 39.27, 269.84 -2.53 M358.93 74.09 C332.02 45.34, 299.93 21.01, 274.82 -1.39 M359.11 72.47 C328.79 44.27, 296.75 17.04, 275.48 -1.53 M364.45 70.18 C347.97 54.8, 326.1 39.39, 280.73 -1.85 M365.95 70.95 C346.37 54.77, 328.63 38.08, 281.5 -1 M371.28 70.09 C348.83 52.83, 324.43 32.4, 289.05 0.39 M372.82 71.31 C351.16 55.26, 331.59 36.88, 287.02 -2.35 M379.9 71.28 C349.8 47.71, 317.41 20.32, 293.17 -1.08 M378.04 73.22 C358.87 54.63, 339.85 36.68, 294.27 -0.52 M384.66 73.63 C360.36 52.15, 336.84 31.94, 298.44 0.03 M383.17 72.4 C351.33 43.34, 318.74 14.81, 300.15 -2.42 M392.17 71.35 C364.91 49.69, 339.64 27.24, 304.37 -2.18 M390.28 72.66 C368.09 52.77, 343.17 31.87, 305.25 -1.66 M396.12 70.2 C377.49 54.07, 359.19 39.48, 311.43 -0.48 M395.6 71.39 C377.02 56.85, 359.37 39.91, 311.5 -1.08 M403.46 70.64 C372.19 45.69, 343.27 21.12, 319.45 -2.71 M402.44 72.82 C371.41 45.39, 341.14 18.18, 317.35 -0.7 M409.24 73.13 C389.56 58.77, 371.79 41.89, 326 0.08 M408.91 71.52 C389.18 56.25, 372.03 39.61, 325.01 -1.74 M415 69.93 C393.89 50.73, 370.01 34.83, 329.28 -1.07 M415.1 72.46 C388.53 50.32, 363.52 26.32, 330.08 -1.06 M419.16 72.98 C401.47 55.31, 381.01 40.86, 338.21 -1.93 M420.24 72.97 C389.93 45.78, 359.5 20.45, 336.51 -1.94 M427.85 71.16 C404.21 52.46, 380.88 34.35, 343.34 0.21 M426.43 72.27 C401.46 49.47, 376.57 27.58, 342.3 -0.55 M433.09 73.45 C413.56 54.12, 393.37 35.85, 347.19 -1.61 M433.56 72.77 C408.09 51.38, 381.71 27.81, 348.65 -1.96 M439.63 74.15 C419.66 55.64, 401.24 37.04, 354.65 -0.19 M438.98 71.5 C412.45 49.08, 382.58 25.13, 355.2 -2.07 M443.32 72.79 C427.4 57.85, 410.26 39.6, 359.85 -0.87 M444.7 72.21 C427.78 57.13, 409.63 40.31, 359.67 -2.18 M449.52 73.92 C425.06 49.96, 397.99 25.25, 368.29 -2.44 M450.6 71.33 C419.26 44.2, 386.5 15.86, 366.82 -1.65 M452.91 69.81 C438.25 53.82, 420.06 40.57, 371.7 0.2 M453.06 68.87 C427.19 45.53, 400.88 22.43, 374.16 -0.42 M453.7 64.77 C432.26 46.09, 405.9 23, 378.42 -0.17 M453.96 64.95 C437.7 50.94, 423.08 37, 379.06 -1.04 M455.72 59.86 C432.64 39.97, 413.5 24.23, 383.79 0.77 M453.61 58.62 C439.49 46.25, 425.32 33.47, 386.05 -0.56 M454.52 54.67 C436.89 39.8, 422.04 25.62, 388.99 0.17 M453.65 53.92 C429.41 32.67, 405.76 10.57, 390.39 -1.12 M454.52 46.63 C439.49 31.5, 419.82 19.57, 399.23 -0.86 M453.01 47.33 C438.88 35.09, 423.27 21.89, 397.12 -0.59 M455.12 42.13 C438.13 31.45, 424.72 18.7, 402.54 -0.02 M454.84 43.07 C441.67 32.48, 428.33 21.24, 404.65 -1.17 M453.58 37.76 C437.12 24.03, 424.07 9.51, 408.21 -1.87 M454.22 38.57 C443.44 28.45, 433.86 20.62, 409.99 -1.28 M455.42 32.23 C440.68 18.75, 423.3 9.24, 417.14 -2.12 M453.28 32.52 C440.95 20.16, 427.24 8.05, 415.98 -1.58 M452.75 26.13 C448.93 19.11, 438.06 13.48, 421.48 -1.57 M454.51 26.87 C445.54 19.48, 434.71 11.34, 421.63 -0.81 M455.17 23.26 C445.24 12.92, 436.27 6.43, 426.95 -2.36 M454.31 22.32 C448.89 15.61, 442.93 11.88, 427.4 -1.81 M455.91 17.75 C445.76 9.52, 436.92 1.95, 435.33 -0.07 M454.04 17.61 C446.08 10.1, 438.41 2.92, 434.35 -1.44 M453.94 10.68 C450.03 8.74, 445.74 2.82, 439.22 -2.4 M454.83 10.41 C448.4 6.77, 442.93 2.34, 439.78 -1.14 M455.36 5.55 C451.95 3.08, 449.04 2.33, 447.28 -1.81 M454.67 6.24 C452 3.37, 449.55 1.48, 446.26 -1.38" stroke="#868e96" stroke-width="0.5" fill="none"></path><path d="M-0.35 0.47 C152.35 1.95, 305.18 1.27, 451.98 -0.32 M0.16 -0.14 C98.88 1.17, 197.91 1.6, 452.09 0.17 M451.1 -1.65 C451.93 18.35, 453.38 32.14, 452.44 73.68 M451.57 -0.76 C453.42 21.71, 452.62 44.42, 452.06 71.57 M452.41 72.08 C355.72 73.77, 258.45 72.99, -0.56 71.28 M452.36 72.47 C327.33 71.39, 202.28 72.07, -0.38 71.56 M-0.06 70.07 C0.24 42.7, 2.28 16.27, 0.01 -1.29 M-0.4 71.2 C-0.18 45.4, 0.41 19.14, 0.57 0.03" stroke="#000000" stroke-width="1" fill="none"></path></g></svg>