<svg version="1.1" xmlns="http://www.w3.org/2000/svg" viewBox="0 0 475 477.00665188470055" width="475" height="477.00665188470055">
  <!-- svg-source:excalidraw -->
  
  <defs>
    <style>
      @font-face {
        font-family: "Virgil";
        src: url("https://excalidraw.com/Virgil.woff2");
      }
      @font-face {
        font-family: "Cascadia";
        src: url("https://excalidraw.com/Cascadia.woff2");
      }
    </style>
  </defs>
  <g stroke-linecap="round" transform="translate(10.055555555555657 10.993348115299199) rotate(0 226.5 228.00665188470066)"><path d="M0.11 -0.83 C164.94 0.86, 331.03 0.67, 452.8 -0.42 M-0.06 -0.02 C109.2 0.97, 217.98 1.12, 452.85 0.37 M453.36 0.48 C452.86 179.24, 452.57 358.98, 453.69 455.72 M453.46 0.07 C452.95 172.6, 452.99 345.25, 453.08 455.74 M453.04 456.63 C313.44 454.3, 175.89 455.27, -0.18 455.23 M453.31 456.38 C355.98 456.81, 258.59 456.93, 0.01 455.87 M0.12 456.22 C-0.81 351.13, -0.26 246.5, 0.8 -0.94 M0.43 456.15 C0.87 314.72, 0.82 173.4, -0.01 0.35" stroke="#000000" stroke-width="1" fill="none"></path></g><g stroke-linecap="round" transform="translate(13 10) rotate(0 226 36)"><path d="M0 0 C0 0, 0 0, 0 0 M0 0 C0 0, 0 0, 0 0 M0.14 5.91 C0.5 5.45, 2.07 4.6, 4.6 0.08 M-0.29 6.58 C0.99 4.71, 3.06 3.01, 5.07 0.76 M0.58 11.25 C2.88 6.78, 6.7 5.98, 9.2 -1 M0.44 11.72 C3.93 7.84, 8.97 2.14, 10.08 -0.73 M0.47 16.93 C6.07 12.29, 11.41 5.43, 14.58 1.33 M0.35 17.59 C6.26 12.83, 12.33 4.53, 15.04 0.3 M1.74 24.07 C6.99 14.29, 14.23 8.14, 23.04 1.28 M0.6 24.59 C6.11 17.12, 11.22 9.65, 20.82 -0.98 M-1.11 29.66 C4.32 24.27, 11.89 17.5, 25.89 1.36 M0.61 30.32 C6.29 23.33, 14.02 14.28, 25.95 -0.28 M-0.21 35.48 C6.08 28.85, 12.93 21.8, 30.04 1.01 M-0.84 37.1 C8.97 27.65, 16.9 15.62, 31.65 -0.73 M-0.1 44 C14.37 25.59, 31.2 7.22, 36.51 0.23 M-0.54 42.16 C12.94 29.23, 26.05 13.33, 37.36 1.06 M0.46 50.5 C16.84 30.43, 34.86 9.86, 41.8 -0.51 M0.07 47.99 C15.2 33.02, 28.67 15.73, 42.92 -1 M1.21 55.73 C14.27 37.19, 30.04 23.03, 48.79 -0.42 M0.5 55.12 C9.37 42.52, 20.52 30.83, 48.29 -0.35 M-0.77 61.77 C19.34 39.1, 39.19 15.2, 52.09 1.48 M0.83 60.22 C20.16 36, 40.89 12.11, 53.71 0.24 M1.69 68.62 C17.05 48.07, 36.98 23.91, 56.92 -1.75 M-0.71 66.87 C22.75 39.91, 44.61 14.1, 57.37 0.75 M0.67 73.62 C21.48 48.15, 44.16 23.49, 64.5 -1.1 M-0.16 73.15 C13.07 56.51, 27.04 43.13, 63.67 -0.05 M5.9 72.53 C29.64 46.5, 51.3 21.82, 66.9 0.26 M5.82 72.94 C25.31 50.27, 45.06 26.66, 68.81 -0.49 M9.71 73.76 C31.49 48.72, 56.37 23.16, 72.43 -1.14 M11.62 72.26 C29.45 49.94, 48.81 27.97, 75.06 -0.01 M15.01 71.1 C36.23 48.07, 56.96 25.09, 80.53 -1.19 M15.52 72.32 C32.9 54.33, 48.69 36.02, 78.41 0.98 M20.07 72.96 C39.06 53.36, 55.75 32.42, 83.1 -0.33 M21.26 72.79 C46.35 43.94, 70.24 15.59, 84.76 -0.89 M25.39 74.17 C46.81 52.42, 64.68 31.4, 91.42 0.31 M27.77 71.93 C40.83 55.88, 55.23 39.59, 89.59 0.13 M31.11 71.88 C47.8 53.33, 66.86 35.64, 97.52 -1.18 M33.3 72.58 C56.97 42.17, 82.64 14.61, 96.19 -1.02 M35.83 73.47 C50.46 54.24, 66.34 40.11, 101.02 0.35 M37.15 72.31 C55.02 50.73, 73.95 31.3, 101.33 -0.16 M41.36 73.11 C64.46 50.02, 86.75 23.27, 106.53 0.99 M43.19 72.15 C57.04 56.16, 70.41 41.08, 105.41 0.18 M46.9 71.93 C68.72 49.3, 90.3 26.05, 110.55 -0.32 M48.82 72.93 C64.15 54.53, 78.37 38.34, 112.22 0.88 M55.13 74.16 C78.24 45.46, 103.16 15.56, 118.13 -1.2 M53.96 73.62 C74.15 46.37, 97.4 20.79, 116.4 0.95 M57.01 71.68 C79.27 50.1, 95.3 26.74, 121.08 0.29 M58.55 72.12 C79.31 48.6, 98.35 25.05, 122.45 -0.07 M62.57 71.99 C82.63 47.82, 103.22 27.11, 128.1 1.8 M64.27 73.32 C81.71 53.05, 97.63 32.48, 127.69 0.16 M70.36 74 C85.2 51.9, 102.14 34.4, 133.48 1.3 M68.7 73.15 C89.79 51.16, 108.83 28.55, 131.79 -0.42 M74.29 72 C96.7 46.64, 117.07 22.1, 136.04 0.97 M75.02 72.7 C91.74 54.11, 107.89 34.96, 138.46 -0.15 M80.99 71.41 C94.58 57.72, 108.03 42, 144.42 -0.94 M80.2 72.2 C93.8 56.05, 107 39.53, 143.62 0.34 M84.72 72.77 C103.12 48.36, 123.22 28.05, 148.04 1.76 M84.69 73.15 C109.36 43.56, 136.06 15.11, 149.12 0.24 M92.72 71.56 C103.69 56.88, 117.83 41.68, 154.41 -0.92 M90.6 72.33 C105.83 56.53, 119.03 40.53, 152.9 0.6 M96.11 74.09 C115.84 50.83, 137.8 27.08, 160.01 0.77 M95.39 71.93 C115.52 49.95, 135.07 27, 158.69 0.42 M103.22 73.34 C125.28 42.91, 148.92 16.3, 163.73 0.09 M102.05 71.53 C122.7 49, 141.53 26.17, 164.19 0.68 M106.51 72.9 C128.76 47, 150.02 24.58, 169.66 1.81 M106.79 72.24 C122.55 52.58, 139.4 33.71, 168.76 0.42 M111.93 70.79 C130.55 52.11, 146.76 35.9, 176.52 -2.03 M111.26 72.69 C125.97 56.24, 141.36 38.84, 175.63 0.78 M117.8 71.36 C128.41 56.71, 142.89 41.07, 180.51 -0.14 M116.18 73.16 C135.75 50.3, 154.34 29.98, 179.54 1.13 M124.14 73.15 C145.17 47.08, 165.74 21.29, 184.71 -2.19 M123.56 71.59 C145.13 46.44, 169.84 19.34, 184.98 -0.96 M127.64 72.8 C139.44 57.95, 152.46 43.91, 189.9 1.12 M128.41 71.69 C140.84 55.46, 155.4 40.26, 189.83 0.4 M134.93 72.86 C150.13 54.64, 164.59 32.4, 196.03 -2.11 M132.88 72.94 C147.74 54.16, 164.03 37.69, 195.57 -0.53 M137.54 73.74 C158.19 52.87, 174.99 31.27, 200.98 -1.05 M137.96 72.73 C154.3 52.41, 172.46 33.68, 200.99 0.95 M145.21 73.52 C156.06 55.15, 172.92 40.2, 206.04 1.66 M143.71 72.34 C156.99 56.15, 171.76 40.57, 206.34 0.02 M148.8 71.89 C163.84 50.68, 182.77 32.64, 210.71 1.89 M148.89 73.09 C163.01 54.05, 179.02 36.6, 211.03 0.42 M153.02 74.71 C175.96 42.68, 202.43 18.02, 218.11 -2.23 M154.52 73.07 C178.42 45.23, 202.96 15.9, 217.82 0.52 M158.54 74.16 C170.87 57.07, 185.68 41.12, 221.86 1.69 M158.84 71.49 C182.05 48.05, 204.35 22.81, 222.5 -0.65 M164.2 72.89 C182.08 53, 200.84 34.23, 227.43 0.06 M164.3 73.02 C184.19 49.27, 204.28 25.43, 228.11 -1.29 M171.69 72.62 C183.74 57.07, 197.37 38.9, 235.03 1.28 M171.07 72.55 C193.43 46.05, 217.93 18.77, 232.58 -0.8 M176.43 74.01 C200.3 48, 220.78 18.92, 236.32 0.3 M174.71 73.28 C191.48 52.05, 208.61 33.02, 238.29 1.02 M180.99 72.55 C199.24 50.58, 220.92 27.21, 244.6 -1.22 M180.4 72.79 C198.79 51.28, 217.81 29.71, 243.04 0.31 M185.87 74.43 C205.66 51.74, 225.1 27.17, 248.91 1.19 M186.61 73.09 C199.28 57.43, 212.37 43.75, 248.98 -0.52 M190.99 72.41 C211.87 49.92, 230.29 27.89, 254.8 -0.52 M191.28 72.66 C209.38 51.2, 226.69 30.24, 254.21 -0.04 M194.48 73.7 C213.25 50.34, 233.53 30.14, 259.16 0.89 M195.5 72.56 C217.32 48.86, 239.45 22.89, 260.41 0.32 M202.08 71.84 C222.01 49.28, 243.62 23.85, 263.64 -0.12 M201.73 72.48 C221.43 50.3, 242.05 28.23, 265.06 0.3 M206.03 74.57 C224.21 53.23, 242.81 33.5, 269.5 1.98 M207.45 72.76 C222.55 55.65, 237.5 37.74, 269.09 0.9 M214.42 71.68 C232.51 51.24, 254.7 26.6, 274.97 -0.33 M213.37 72.51 C233.28 49.07, 253.93 25.2, 275.12 0.42 M218.1 70.95 C244.46 44.58, 266.57 16.14, 282.16 0.24 M217.12 73.63 C236.63 51.07, 255.97 30.01, 281.1 0.51 M224.01 73.96 C244.93 48.27, 265.76 23.22, 286.43 1.69 M223.42 72.9 C239.78 52.8, 257.22 33.13, 286.53 0.29 M230.1 71.98 C247.72 50.57, 268.42 28.87, 291.22 0.62 M227.78 72.03 C242.81 54.47, 258.21 37.93, 292.13 0.34 M234.66 73.87 C246.21 56.96, 261.56 41.1, 297.49 0.02 M234.69 71.71 C250.45 53.29, 266.53 33.73, 296.03 -1.2 M239.24 73.95 C256.62 52.17, 274.14 34.76, 302.53 1.26 M239.28 71.71 C255.65 51.14, 274.8 31.05, 301.45 -0.54 M245.98 71.83 C265.76 49.58, 288.23 24.04, 309.41 -0.11 M245.56 72.91 C260.72 53.84, 276.2 36.37, 306.92 -0.25 M248.54 72.36 C263.26 54.08, 281.83 36.07, 313.78 1.52 M250.07 73.36 C268.13 49.74, 288.25 27.79, 311.94 0.88 M253.41 73.42 C272.56 52.74, 290.88 33.81, 317.3 1.72 M256.05 72.36 C277.29 46.29, 298.81 22.15, 319.15 -0.17 M258.84 73.87 C272.31 55.29, 289.6 42.25, 322.46 1.9 M261.19 72.53 C279.37 50.59, 297.9 28.6, 324.05 -0.51 M264.18 73.4 C285.21 50.2, 303.7 27.6, 330.03 1.14 M265.75 71.84 C282.11 53.74, 297.46 36.07, 329.2 0.66 M272.78 72.37 C288.57 50.79, 307.72 29.23, 333.88 0.12 M270.28 71.71 C290.64 47.39, 311.98 23.78, 333.86 0.12 M276.7 72.49 C300.12 47.59, 319.52 18.86, 338.34 0.95 M275.17 73.8 C292.58 53.88, 309.01 33.76, 340.19 -1.27 M282.84 72.9 C305.89 48.33, 326.37 21.14, 345.14 -0.93 M281.57 72.3 C304.56 44.25, 330.14 16.95, 345 -0.53 M287.15 74.34 C311.99 45.78, 334.25 15.03, 350.08 -0.11 M286.4 72.31 C304.13 53.17, 320.91 33.06, 349.17 0.24 M291.29 71.71 C308.58 56.9, 321.59 40.28, 353.2 -1.15 M291.88 72.58 C311.84 49.4, 330.27 28.76, 354.72 0.17 M297.55 74.02 C312.33 56.09, 331.16 36.61, 360.91 1.63 M297.17 73.62 C317.58 48.7, 340.05 22.44, 359.73 -0.02 M302.21 72.21 C322.57 48.3, 340.33 25.23, 366.78 0.72 M302.63 71.75 C317.05 55.75, 333.4 36.52, 365.87 0.74 M306.4 71.07 C323.94 54.89, 338.8 38.93, 370.32 -0.7 M307.43 73.14 C329.97 47.84, 352.63 21.61, 370.11 -0.04 M313.5 73.04 C335.16 46.81, 360.51 23.48, 374.44 -0.86 M313.83 71.92 C326.99 54.32, 342.91 36.54, 376.88 -0.38 M319.99 74.18 C340.43 49.12, 357.32 26.29, 380.27 0.45 M318.75 72.18 C340.88 47.05, 364.61 20.35, 381.78 0.29 M324.87 71.99 C340.29 54.22, 358.77 34.45, 388.55 1.76 M324.08 72.1 C339.13 55.81, 352.96 39.75, 387.76 -0.85 M328.46 73.27 C348.82 51.35, 365.41 28.84, 390.53 -0.18 M328.28 71.95 C343.21 58.03, 357.05 41.89, 392.82 0.04 M333.85 74.05 C356.24 48.09, 376.68 25.34, 397.3 1.42 M334.59 72.21 C349.06 56.51, 362.55 41.12, 398.16 -0.43 M337.73 71.42 C355.08 54.82, 367.05 36.55, 402.69 -0.67 M338.75 73.58 C361.78 46.81, 385.15 21.94, 401.9 1.14 M343.77 71.4 C369.03 49.51, 389.85 20.76, 408.67 0.13 M345.15 73.07 C365.45 49.94, 386.44 27.23, 409.27 -0.97 M349.54 72.89 C367.86 50.63, 386.65 31.02, 412.16 0.11 M350.52 72.09 C364.88 56.85, 378.99 39.82, 412.28 0.46 M355.79 71.42 C377.54 46.28, 398.75 22.52, 418.47 1.11 M356.14 72.42 C377.33 48.17, 399.29 22.7, 417.91 -0.39 M361.44 71.14 C374.82 55.28, 392.16 33.87, 424.14 -1.54 M361.51 72.41 C375.94 55.46, 391.19 37.9, 423.81 -0.25 M364.87 72.64 C380.5 56.26, 395.15 39.41, 430.32 0.76 M366.54 72.89 C390.52 45.46, 413.85 18.23, 430.48 -0.74 M370.82 72.84 C395.85 44.89, 418.72 19.1, 433.66 1.87 M371.25 73.38 C395.29 44.45, 420.49 15.71, 434.94 -0.31 M375.78 72.83 C400.61 45.82, 423.42 20.68, 439.65 0.66 M377.93 72.03 C389.21 57.72, 402.73 43.59, 440.97 -0.15 M382.84 73.8 C404.15 44.74, 430.7 18.99, 445.55 1.01 M382.86 71.76 C400.01 50.36, 419.58 30.2, 444.72 -0.15 M386.44 73.64 C412.81 43.28, 438.08 17.7, 449.7 -0.42 M387.82 73.04 C405.42 50.04, 425.11 28.49, 450.97 -0.84 M394.5 71.05 C405.04 57.3, 418.64 38.63, 453.15 3.27 M393.06 72.2 C415.2 46.09, 437.54 20.9, 455.47 2.21 M398.58 73.7 C414.76 52.1, 433.9 28.5, 452.32 9.79 M398.28 73.77 C410.36 58.87, 420.83 45.41, 454.46 7.18 M402.61 70.81 C420.17 50.8, 437.13 29.22, 452.4 15.51 M404.15 73.25 C421.35 51.72, 438.88 30.6, 454.88 13.98 M409.75 73.07 C424.11 53.09, 441.4 34.59, 454.3 19.89 M408.01 73.22 C418.69 59.78, 428.79 49.37, 454.14 20.96 M415.79 72.47 C422.78 59.6, 433.16 50.68, 456.06 25.89 M414.04 73.38 C423.17 61.22, 434.31 48.85, 454.29 25.38 M419.98 74.23 C428.18 62.45, 439.09 50.16, 453.61 32.47 M418.96 72.58 C427.5 61.82, 436.57 51.72, 453.66 32.24 M426.46 72.61 C433.67 61.61, 442.21 55.17, 455.58 38.6 M424.22 72.96 C430.71 63.79, 438.09 55.78, 454.45 38.36 M431.09 70.86 C439.07 63.47, 443.36 55.88, 452.08 43.78 M429.67 71.92 C438.84 62.99, 447.13 53.84, 454.33 45.17 M434.86 73.01 C440.99 69.5, 444.16 64.22, 452.84 52.25 M435.78 72.26 C439.28 66.8, 444.05 62.95, 453.37 51.03 M438.74 71.82 C447.28 67.48, 452.37 59.9, 453.33 57.04 M441.28 72.22 C443.77 68.27, 446.23 65.09, 455.03 57.55 M445.38 72.51 C448.97 68.33, 452.64 64.27, 455.18 61.3 M445.6 71.77 C448.1 70.64, 449.09 68.17, 453.95 62.43 M451.3 72.8 C451.93 71.78, 452.71 70.09, 454.37 68.39 M451.08 72.84 C451.8 71.35, 453.27 69.86, 454.22 69.01" stroke="#fa5252" stroke-width="0.5" fill="none"></path><path d="M0.94 0.31 C165.23 0.88, 331.16 -0.29, 451.93 -0.65 M-0.15 -0.34 C168.12 0.39, 337.02 1, 452.2 -0.23 M451.36 -0.21 C450.94 18.82, 449.63 35.96, 450.24 71.14 M452.51 -0.79 C452.12 22.7, 452.28 46.15, 451.2 72.3 M452.76 72.52 C346.71 72.69, 242.31 73.02, -0.64 71.53 M451.83 72.26 C354.23 71.61, 257.28 71.99, -0.13 72.11 M-1.98 70.63 C-1.59 56.5, 1.5 41.07, 1.1 0.71 M0.55 71.58 C0.84 43.48, 1.55 14.42, 0.21 0.98" stroke="#000000" stroke-width="1" fill="none"></path></g><g stroke-linecap="round" transform="translate(10 393) rotate(0 226 36)"><path d="M0 0 C0 0, 0 0, 0 0 M0 0 C0 0, 0 0, 0 0 M-0.24 6.13 C1.8 3.85, 3.4 2.6, 5.72 -0.15 M0.1 6.21 C0.67 4.81, 2.01 3.82, 4.73 0.67 M0.14 13.51 C1.69 8.29, 6.07 5.75, 9.75 -0.94 M0.83 12.59 C2.09 9.62, 5.68 7.14, 10.36 -0.61 M0.13 20.12 C3.67 11.73, 9.73 7.16, 15.06 1.49 M0.57 18.67 C4.83 12.9, 9.24 6.69, 15.12 -0.32 M-1.2 25.41 C7.98 17.02, 14.05 5.56, 22.1 0.51 M-0.23 24.72 C6.14 17.19, 13.13 9.33, 21.96 -0.91 M0.48 30.47 C6.09 21.55, 15.23 16.65, 27.55 2.28 M-0.23 29.7 C10.33 19.62, 20.71 7.62, 27.21 0.45 M1.33 38.63 C10.48 21, 23.1 9.47, 33.63 0.11 M-0.96 35.94 C8.24 26.6, 16.8 18.45, 31.85 -0.07 M1.19 42.17 C12.14 31.06, 20.5 16.09, 36.51 0.48 M-0.52 42.53 C8.22 34.12, 14.91 26.19, 36.19 -0.12 M-0.49 48.79 C13.83 31.9, 26.05 19.03, 41.43 1.06 M0.55 48.46 C12.33 34.32, 24.93 19.86, 43.25 -0.25 M1.81 56.39 C11.03 41.25, 19.16 31.57, 47.34 0.93 M-0.16 54.3 C14.53 38.27, 30.61 20.64, 47.52 1.02 M0.32 59.25 C14.28 48.4, 23.55 32.38, 54 -1.39 M-0.01 61.19 C11.6 46.8, 23.35 34.61, 52.31 0.15 M0.43 66.88 C10.22 52.07, 22.82 42.38, 58.63 -1.72 M-0.76 66.48 C11.66 52.36, 24.45 37.75, 58.56 -0.49 M1.27 73.65 C14.36 57.33, 27.81 38.63, 63.01 -0.18 M0.26 72.15 C23.96 45.14, 48.18 18.22, 64.12 0.31 M6.2 74.15 C21.44 58.78, 32.85 42.86, 70.13 0.99 M4.83 73.06 C28.44 47.12, 50.21 19.77, 68.59 -0.43 M9.55 71.63 C24.89 58.13, 37.52 42.56, 75.32 -0.46 M10.7 72.12 C28.08 55.39, 42.5 37.24, 74.65 -1 M18.27 73.07 C31.39 55.75, 47.27 36.87, 78.83 -0.66 M15.51 72.22 C39.19 45.99, 61.87 21.61, 78.81 0.02 M22.53 72.54 C37.64 54.99, 50.85 37.83, 85 0.47 M21.52 72.37 C44.33 47.06, 66.89 21.52, 84.79 0.61 M28.34 73.36 C50.75 45.89, 74.37 16.64, 90.86 1.41 M26.44 72.73 C48.83 46.67, 73.27 20.02, 90.29 0.29 M32.62 70.21 C44.49 56.16, 58.9 42.71, 97.27 1.09 M32.7 71.45 C49.28 53.32, 65.84 34.07, 96.33 -0.92 M35.9 71.27 C53.71 57.28, 68.69 38.79, 101.55 1.1 M38.31 71.68 C58.49 48.6, 79.28 23.09, 100.04 0.39 M40.74 73.05 C62.65 49.17, 86.67 23.44, 104.58 -0.28 M43.45 73.24 C55.85 56.21, 68.86 41.86, 105.98 -0.02 M47.64 70.84 C66.71 50.21, 85.36 30.35, 111.44 -1.88 M48.67 71.77 C70.97 48.19, 91.51 21.35, 110.96 0.91 M54.98 73.02 C76.75 49.33, 95.56 21.96, 117.88 -0.78 M52.86 71.97 C71.61 51.48, 91.66 29.36, 116.68 1.22 M57.43 71.95 C76.86 52.62, 95.27 34.65, 122.23 -1.99 M58.01 73.25 C73.9 55.72, 90.2 35.62, 121.85 -0.93 M62.63 74.13 C87.31 44.78, 113.15 13.96, 125.29 0.01 M63.96 72.71 C81.37 51.41, 99.62 32.34, 126.26 0.03 M70.31 74.28 C88.67 50.89, 109.24 27.17, 132.81 0.08 M69.72 72.01 C86.41 53.66, 102.76 35.87, 133.44 0.65 M72.86 73.49 C97.57 43.69, 123.31 16.61, 136.14 0.6 M74.33 72.38 C97.63 46.01, 121.16 20.63, 137.48 -0.5 M78.52 73.32 C99.61 50.31, 119.93 27.46, 143.28 1.5 M80.1 71.5 C102.09 47.93, 122.89 23.93, 142.34 0.04 M83.99 73.98 C105.59 52.54, 120.71 28.56, 147.61 -1.47 M85.47 72.5 C98.3 58.16, 113.21 40.94, 148.66 -0.43 M89.5 72.38 C110.52 48.87, 133.31 23.97, 154.91 1.23 M90.33 72.8 C104.26 56.28, 117.88 41.97, 153.09 0.21 M95.54 72.32 C117.45 44.64, 140.29 20.21, 160.06 -0.82 M96.79 73.16 C121.47 44.53, 143.99 16.5, 159.05 -0.23 M101.87 70.57 C121.77 50.45, 139.76 28.19, 166.15 0.04 M100.54 72.54 C125.48 44.75, 149.08 18.33, 164.11 0.75 M108.22 71.03 C128.4 44.8, 152.14 16.39, 169.06 -0.27 M105.6 73.07 C121.85 54.07, 137.5 36.49, 168.76 -0.78 M113.41 70.83 C129.41 52.89, 143.29 33.76, 176.65 0.52 M111.72 72.97 C128.98 53.17, 145.93 33.63, 175.74 -0.19 M115.94 74.46 C139.14 45.9, 164.07 18.97, 181.34 1.17 M117.11 73.52 C134.35 52.31, 151.71 32.86, 180.85 0.63 M121.14 71.89 C141.66 50.45, 161.52 29.45, 187.25 -0.94 M121.8 71.94 C140.13 50.64, 159.51 31.19, 186.25 0.17 M125.78 72.74 C144.43 55.38, 157.04 38.25, 190.83 0.31 M128.44 72.39 C149.76 47.04, 173.34 20.07, 191.27 0.3 M133.22 72.32 C147.4 54.04, 165.54 37.82, 195.97 -2.12 M133.6 72.87 C148.52 55.61, 161.7 39.11, 195.76 -0.83 M138.01 73.85 C156.78 51.47, 174.11 32.29, 202.64 1.76 M138.62 72.17 C155.13 52.84, 171.57 32.48, 200.87 0.15 M145.02 70.49 C166.68 47.28, 192.19 19.85, 206.02 1.01 M144.86 72.8 C168.58 44.01, 191.5 17.46, 206.35 -1.23 M150.08 71.55 C169.82 43.97, 193.96 19.14, 213.09 1.95 M148.58 71.93 C164.71 54.86, 180.72 36.79, 211.41 -0.34 M154.44 73.32 C173.1 51.71, 191.74 28.35, 217.8 -1.73 M153.55 73.09 C169.08 53.68, 186.44 35.9, 217.99 -0.5 M160.65 73.43 C176.68 50.46, 197.87 26.54, 221.66 1.14 M159.17 73.34 C183.6 45.03, 206.04 17.64, 223.57 -0.07 M164.53 73.3 C182.49 52.5, 199.19 31.69, 228.89 1.33 M164.54 72.46 C181.78 51.97, 200 31.68, 228.53 0.5 M169.56 72.9 C182.81 58.07, 195.73 44.74, 235.03 -0.63 M171.13 72.65 C183.08 58.81, 195.98 43.39, 232.92 -0.36 M175.57 72.99 C192.75 50.02, 212.95 30.06, 237.41 0.39 M175.6 73.47 C192.36 54.1, 208.49 35.01, 239.11 0.27 M181.82 73.16 C197.41 54, 212.93 35.48, 243.06 0.51 M181.11 72.73 C201.4 46.98, 223.66 23.94, 243.93 -0.94 M187.66 74.02 C210.89 44.38, 234.22 17.74, 248.63 1.22 M186.11 73.51 C208.18 45.69, 231.97 20.96, 248.72 -0.4 M191.64 71.25 C212.57 50.23, 232.23 25.7, 254.82 0.24 M191.68 73.02 C206.69 55.33, 221.21 37.86, 254 0.07 M196.13 73.8 C214.95 48.54, 239.54 23.64, 259.04 1.67 M196.32 73.58 C214.29 50.94, 234.88 28.78, 260.29 0.18 M202.43 73.98 C227.77 44.05, 251.51 15.09, 266.54 -1.94 M201.29 71.56 C218.35 55.98, 233.19 36.79, 265.42 0.13 M207.45 73.59 C227.43 49.41, 248.65 24.09, 270.98 0.62 M207.4 72.28 C230.55 44.99, 252.86 18.9, 269.33 -0.48 M210.77 74.03 C231.45 50.05, 252.7 26.56, 277.64 1.27 M212.33 72.99 C234.21 48.31, 254.13 25.3, 275.39 0.3 M219.3 74.44 C240.95 47.83, 264.26 18.53, 279.97 -1.2 M217.43 71.79 C242.72 43.68, 266.71 15.36, 281.23 -0.28 M222.42 73.84 C237.8 56.13, 255.8 37.26, 286.76 0.99 M223.06 72.54 C244.4 47.01, 266.99 22.46, 286.01 -0.77 M228.56 73.22 C242.23 56.79, 256 43.74, 290.73 -1.26 M227.38 71.87 C252.33 46.23, 276.08 17.09, 291.3 -0.53 M232.35 73.69 C249.29 55.47, 264.21 39.57, 295.68 0.15 M233.68 72.04 C258 44.55, 283.03 15.32, 296.31 -0.84 M239.27 70.6 C252.32 58.5, 266.98 40.89, 301.13 0.75 M239.15 71.92 C258.03 52.31, 276.09 31.34, 302.76 0.08 M244.71 71.67 C269.91 43.82, 294.52 15.85, 309.41 1.5 M244.26 71.9 C260.51 55.22, 275.48 38.43, 308.18 -0.06 M250.67 71.09 C269.78 46.05, 294.08 21.73, 314.28 -1 M249.53 72.87 C262.43 56.23, 276.95 39.51, 312.73 -0.58 M256.83 71.67 C278.71 45.71, 300.35 20.17, 320.11 -0.42 M254.82 73.13 C274.68 50.82, 293.33 29.11, 318.47 -1 M261.2 70.98 C279.3 48.75, 301.11 23.35, 322.45 1.45 M260.21 73.31 C277.94 50.76, 297.06 29.38, 322.23 -0.02 M267.24 71.42 C284.02 51.25, 297.45 34.62, 327.17 0.78 M265.25 71.34 C283.75 51.97, 300.42 32.11, 328.9 -0.63 M272.47 74.4 C291.26 50.31, 312.17 26.99, 335.09 1.87 M271.8 73.37 C288.53 50.3, 308.23 28.78, 334.21 0.84 M274.98 71.19 C291.98 53.89, 311.29 31.83, 341.12 -0.74 M276.7 73.47 C293.69 52.36, 313.46 30.79, 340.11 -0.34 M281.29 73.28 C298.18 54.84, 310.33 39.44, 342.85 -0.15 M281.82 72.81 C297.43 52.67, 314.58 34.44, 343.5 -0.35 M286.27 74.8 C307.43 49.17, 323.86 27.82, 351.06 1.77 M286.2 72.83 C307.6 49.07, 329.65 23.92, 348.98 0.85 M291.64 71.35 C315.03 43.19, 339.69 17.92, 353.57 0.78 M292.68 72.95 C313.52 48.87, 334.92 23.73, 354.85 0.68 M298.54 74.16 C319.5 49.73, 342.19 21.85, 359.22 0.62 M296.72 73.54 C316.06 50.92, 334.97 27.94, 359.28 1.23 M302.71 72.18 C317.81 50.84, 336.41 30.91, 364.27 -0.12 M303.72 72.75 C317.93 56.81, 331.54 39.8, 364.91 0.79 M307.06 74.24 C322.96 53.31, 341.36 33.07, 369.07 2.17 M307.79 73.58 C326.12 51.69, 344.44 29.29, 371.71 0.96 M312.85 71.14 C324.74 57.19, 338.66 43.57, 377.16 -1.82 M313.15 72.72 C326.97 56.59, 340.16 42.53, 376.25 -0.57 M320.29 73.8 C330.91 56.27, 347.25 39.96, 379.91 -0.14 M318.84 73.53 C336.42 53.2, 353 31.43, 380.53 1.03 M323.64 71.39 C341.58 52.62, 356.98 33.17, 387.64 -1.49 M324.11 72.98 C344.13 47.45, 365.51 25.32, 387.31 0.62 M327.87 73.44 C347.21 50.77, 367.63 30.74, 390.23 -1.07 M329.2 72.56 C348.49 48.81, 369.22 26.06, 392.91 0.04 M335.79 71.95 C354.03 49.36, 374.66 24.02, 396.29 1.52 M334.66 73.24 C356.47 46.06, 379.75 19.47, 398.49 -0.97 M340.65 71.55 C354.65 57.99, 367.7 43.06, 401.71 0.43 M340.14 72.43 C358.36 51.91, 376.31 30.13, 402.92 0.17 M345.26 71.6 C363.61 52.11, 380.2 35.57, 408.88 1.67 M345.74 72.83 C361.41 53.25, 378.42 33.87, 408.05 -0.14 M350.64 72.34 C366.38 55.44, 379.92 37.34, 415.22 1.24 M350.79 73.48 C374.97 46.23, 397.74 19.07, 413.54 -0.8 M355.14 72.98 C377.53 49.02, 398.42 24.42, 420.38 -0.76 M355.2 72.63 C380.43 45.29, 402.76 19.83, 418.18 -1.05 M359.05 73.85 C378.1 52.17, 393.84 33.99, 422.81 2.03 M360.22 72.68 C383.17 46.75, 406.43 19.31, 424.67 0.49 M367.74 70.51 C389.99 43.35, 417.32 17.94, 430.93 0.31 M365.81 73.14 C386.83 49.08, 408.5 24.68, 428.97 0.72 M372.28 71.9 C390.71 46.53, 415.89 22.13, 435.72 -0.7 M371.39 71.57 C393.31 47.01, 414.12 21.98, 435.09 1.01 M376.57 70.43 C392.46 52.08, 411.59 35.91, 441.86 0.79 M377.23 72.46 C399.47 45.74, 423.15 18.48, 440.41 0.17 M381.93 72.15 C405.7 46.18, 428.21 18.08, 444.37 1.34 M381.18 72.27 C398.55 53.59, 415.54 34.51, 444.5 -0.68 M385.63 71.56 C412.84 47.1, 435.82 15.9, 451.71 -1.62 M387.39 73.02 C404.97 51.8, 423.4 29.35, 450.41 -1.09 M392.75 74.05 C411.85 47.08, 435.48 22.5, 453.08 1.8 M392.37 71.52 C410.84 51.56, 429.11 31.41, 454.2 1.09 M396.1 74.25 C420.71 48.75, 441.71 20.74, 452.96 8.91 M397.08 72.58 C410.69 57.17, 425.91 40.62, 453.57 7.44 M402.71 70.89 C423.05 48.6, 440.4 30.05, 454.12 14.41 M403.63 72.65 C420.02 55.13, 434.54 36.58, 453.18 13.85 M410.39 72.94 C422.57 56.36, 435.5 41.83, 454.44 21.19 M408.03 72.78 C425.14 53.74, 440.81 37.28, 453.53 20.02 M414.95 73.74 C422.55 61.14, 432.21 50.58, 453.98 26.84 M413.55 71.57 C430.4 55.02, 446.81 36.56, 454.34 26.89 M418.74 73.13 C427.22 63.47, 435.26 50.13, 453.53 30.59 M419.53 72.08 C427.89 61.77, 436.66 52.66, 455.19 32.28 M425.82 71.52 C434.6 60.31, 444.64 47.87, 455.18 39.4 M424.65 72.79 C434.23 60.52, 446.08 47.99, 454.36 37.88 M430.57 72.11 C437 62.71, 443.44 55.16, 452.83 42.84 M429.78 72.53 C439.62 62, 447.78 51.12, 453.44 44.93 M436.83 70.92 C444.43 63.83, 449.42 56.26, 456.08 51.46 M435.3 71.41 C439.98 67.95, 444.34 62.64, 453.46 51.37 M438.5 71 C445.32 67.25, 445.44 63.37, 454.12 55.19 M439.89 71.79 C445.64 68.43, 448.76 63.04, 455 57.05 M446.43 72.42 C447.44 68.95, 452.01 65.77, 454.32 62.3 M445.88 72.85 C447.82 69.94, 450.78 66.9, 454.68 63.12 M450.79 72.19 C451.94 72.29, 452.72 71.08, 454.26 68.92 M451.17 72.77 C451.71 71.88, 452.53 70.94, 454.31 68.81" stroke="#868e96" stroke-width="0.5" fill="none"></path><path d="M0.4 0.19 C159.23 0.44, 316.37 0.8, 452.81 0.08 M0.08 0.41 C132.8 1.25, 265.83 1.2, 452.47 -0.22 M450.07 0.17 C453.43 21.83, 450.44 49.03, 452.52 73.99 M452.75 0.87 C451.22 23.69, 450.85 49.56, 452.31 71.41 M452.31 71.82 C303.16 71.79, 154.14 72.9, -0.64 71.31 M452.42 72.43 C294.33 72.91, 137.47 73.4, -0.1 72.23 M-1.35 71.42 C0.84 46.89, 1.36 17.9, 1.48 1.47 M0.06 71.2 C-0.91 47.56, -1.28 23.25, 0.87 0.54" stroke="#000000" stroke-width="1" fill="none"></path></g><g stroke-linecap="round" transform="translate(13 80) rotate(0 44 156.5)"><path d="M0 0 C0 0, 0 0, 0 0 M0 0 C0 0, 0 0, 0 0 M-0.07 6.2 C1.09 4.42, 1.84 3.46, 4.47 0.74 M0 6.51 C1.89 4.14, 3.15 2.27, 5.1 0.45 M1.16 10.8 C5.19 6.89, 8.83 4.62, 9.28 -0.66 M0.13 11.78 C3.29 8.57, 8.05 4.31, 11.42 0.62 M-1.69 18.57 C4.62 15.22, 7.25 12.24, 15.93 2.27 M0.75 17.54 C4.99 10.77, 12.29 6.03, 15.72 -0.14 M-1.6 24.39 C3.91 19.29, 11.65 12.02, 21.32 -0.2 M0.09 24.84 C8.51 14.62, 14.96 5.98, 21.37 -1.03 M0.03 32.42 C10.3 19.18, 21.95 5.7, 25.5 0.4 M-0.06 30.94 C6.73 21.63, 15.57 12.09, 26.85 0.32 M-1.17 36.25 C10.74 23.05, 22.29 13.48, 31.67 -1.83 M0.66 37.41 C11.11 22.23, 24.21 8.65, 32.24 0.09 M-0.38 40.95 C12.99 30.26, 23.58 16.94, 38.48 -1.15 M-0.71 43.33 C9.31 32.23, 16.64 23.73, 36.27 -0.64 M0.35 49.47 C9.31 37.18, 22.31 20.31, 43.17 -2.13 M-0.36 48.44 C13.47 32.1, 29.81 15.73, 41.57 -0.93 M-1.49 53.47 C16.85 33.94, 34.28 16.38, 46.15 -1.43 M0.97 54.8 C18.51 33.83, 35.06 12.58, 47.52 0.94 M-0.18 59.5 C12.14 46.73, 24.94 32.68, 54.18 -1.75 M0.78 61.78 C16.52 42.87, 31.82 26.44, 53.57 0.44 M0.66 67.84 C21.04 43.37, 38.73 21.31, 56.97 -1.66 M-0.54 67.73 C20.91 44.65, 40.99 21.56, 58.03 -0.34 M-0.04 74.88 C19.87 52.46, 37.3 32.76, 62.27 -1.51 M0.39 73.13 C20.11 50.21, 39.07 26.38, 63.39 0.32 M-0.83 79.5 C13.67 62.97, 31.73 42.62, 68.58 -1.25 M0.06 79.86 C18.58 57.41, 37.15 35.9, 69.14 0.67 M0.67 85.94 C27.01 57.67, 52.54 25.94, 76.17 1.6 M0.69 84.79 C28.23 52.52, 54.98 22.47, 75.07 0.43 M0.4 89.93 C31.24 58.43, 61.21 23.17, 79.81 -1.81 M-0.95 90.79 C19.83 67.67, 41.29 44.38, 80.1 -0.26 M-1.63 97.57 C23.11 71.37, 45.46 46.46, 83.82 -1.63 M-0.86 98.39 C23.14 73.85, 44.46 48.09, 85.57 0.07 M-1.49 103.7 C32.45 66.38, 61.39 29.35, 90.05 1.63 M0.24 102.96 C34.95 65.98, 68.45 25.41, 89.4 -0.03 M0.64 110.25 C31.39 69.91, 67.38 31.45, 89.76 6.97 M-0.93 109.91 C22.53 83.62, 46.35 56.49, 88.16 7.7 M-1.12 117.16 C28.19 84.08, 50.95 54.11, 91.3 13.67 M0.38 116.38 C23.17 88.46, 44.29 63.81, 88.93 12.88 M-1.7 120.49 C26.15 94.05, 50.73 64.89, 90.93 18.81 M-0.22 122.17 C27.54 92.29, 55.57 60.66, 88.26 18.79 M1.39 127.26 C33.04 93.94, 59.74 58.72, 87.16 27.57 M0.43 127.44 C23.4 101.64, 45.64 74.37, 88.82 25.45 M-0.02 133.88 C24.55 104.55, 53.46 70.98, 88.75 31.61 M1.09 133.85 C33.89 95.93, 66.44 57.83, 89.45 30.89 M-0.89 140.49 C19.75 117.57, 41.5 95.96, 90.52 39.48 M0.26 139.83 C30.56 105.09, 62.5 68.12, 89.26 38.31 M-0.47 145.82 C18.96 124.9, 40.2 100.14, 87.9 43.43 M0.76 146.2 C27.76 115.5, 55.18 82.7, 90.31 43.71 M-1.69 153.39 C22.55 126.39, 46.14 97.77, 89.5 49.6 M0.65 153.13 C20.2 128.78, 39 106.19, 88.38 48.93 M-0.69 158.29 C32.46 125.31, 60.07 89.18, 87.59 56.88 M-0.21 157.83 C21.83 134.92, 42.69 111.31, 89.66 55.26 M1.09 165.59 C30.21 130.5, 63.6 90.81, 90.05 63.22 M-0.03 163.73 C30.3 128.04, 62.43 94.12, 88.85 62.64 M0.84 172.78 C20.25 144.22, 41.02 121.92, 88.19 68.13 M-0.97 171.69 C27.94 139.27, 55.26 107.76, 89.22 68.9 M0.78 176.53 C17.61 156.27, 37.26 133.5, 91.32 75.43 M-0.52 175.63 C29.76 140.55, 59.05 107.08, 89.28 73.37 M0.86 182.9 C32.79 144.62, 67.73 105.34, 87.29 79.44 M-0.69 183.56 C31.63 144.82, 63.56 109.3, 89.61 79.87 M1.19 190.19 C27.94 158.7, 55.31 125.74, 89 87.86 M0.69 189.17 C32.81 152.95, 65.31 114.8, 89.49 86.37 M1.96 195.29 C27.56 162.8, 56.75 131.06, 90.3 92.11 M0 195.09 C24.51 168.94, 48.57 141.21, 89.03 92.2 M-0.67 200.12 C30.82 166.16, 66.2 129.86, 89.91 97.74 M-0.02 202.03 C36.11 161.03, 71.66 121.85, 89.21 99.24 M-0.09 206.42 C29.32 175.25, 55.53 141.97, 89.86 103.26 M0.36 206.51 C34.95 168.45, 70.05 128.04, 88.59 103.57 M1.4 213.95 C17.44 191.17, 34.94 170.78, 88.12 110.33 M0.68 213.74 C26.73 182.66, 54.31 152.05, 90.09 110.44 M-0.98 219.31 C28.11 185.03, 55.21 153.36, 89.1 118.58 M-1.06 219.39 C28.76 188.25, 56.1 155.46, 89.65 117.96 M1.45 226.36 C27.09 191.2, 57.31 159.77, 87.51 123.98 M-0.32 224.67 C30.55 187.9, 63.35 151.53, 90.34 122.25 M-1.26 232.55 C31.65 197.79, 62.68 159.73, 88.32 129.29 M0.13 231.64 C28.49 199.49, 55.41 168.7, 88.43 128.7 M0.73 235.83 C29.24 203.82, 61.11 169.25, 89.18 134.83 M0.78 236.78 C34.09 198.11, 67.21 157.92, 90.08 135.57 M1.75 244.78 C29.45 208.54, 58.89 178.22, 89.06 140.71 M0.27 244.03 C26.28 212.7, 52.85 182.33, 90.11 140.99 M-0.98 249.44 C28.27 216.7, 57.86 183.65, 90.74 145.6 M0 250.39 C31.41 215.11, 63.06 179.99, 88.69 146.63 M0.58 255.72 C27.51 226.13, 51.33 196.49, 88.68 153.2 M0.26 255.16 C24.4 227.52, 49.73 198.93, 89.41 152.85 M1.23 263.79 C28.29 230.56, 55.99 199.41, 88.96 158.56 M0.29 263.14 C34.71 222.37, 69.44 180.77, 89.41 159.98 M0.94 266.9 C25.14 237.81, 54.71 205.53, 87.07 167.71 M0.93 268.24 C24 239.65, 48.37 212.29, 89.32 166.66 M1.51 273.56 C27.1 242.34, 58.79 208.17, 87.83 172.04 M-0.52 274.52 C19 252.27, 37.39 230.45, 89.42 171.07 M1.06 282.4 C35.76 240.44, 70.86 198.23, 89.29 178.71 M0.31 279.8 C33.72 242.38, 67.56 201.82, 89.7 178.12 M1.87 284.5 C33.06 250.19, 65.26 213.73, 89.19 185.45 M1 286.89 C23.73 259, 47.11 232.06, 88.48 183.14 M-1.66 293.86 C23.48 269.21, 41.54 244.98, 89.61 190.77 M0.36 292.74 C34.74 253.54, 68.19 214.69, 89.32 190.79 M-0.53 298.17 C20.14 270.97, 43.17 246.27, 87.41 196.76 M1.17 298.16 C32.82 262.38, 64.93 225.34, 89.58 196.8 M1.41 305.01 C18.44 282.09, 38.94 261.11, 90.15 203.5 M0.93 304.77 C26 275.28, 49.76 245.97, 88.57 203.08 M-1.98 312.68 C31.69 273.47, 65.02 236.54, 88.01 207.47 M0.57 310.63 C26.98 282.6, 52.28 252.39, 89.6 209 M2.69 314.34 C34.49 278.33, 68.4 238.09, 88.21 212.34 M2.44 315.21 C33.45 279.13, 66.04 241.46, 88.68 214.99 M5.61 315.41 C35.28 285.91, 58.03 255.55, 87.72 219.18 M7.86 315.6 C37.76 281.88, 68.22 245.69, 89.33 221.53 M12.38 312.91 C37.26 287.38, 58.67 260.96, 87.63 225.28 M11.78 314.68 C41.35 283.38, 67.93 250.45, 89.18 226.84 M16.4 316.63 C37.8 294.48, 56.51 271.87, 89.13 234.54 M17.5 315.07 C39.07 290.74, 60.41 267.44, 90.15 232.03 M22.79 314.92 C38.4 298.17, 54.11 282.43, 89.39 239.86 M22.67 313.76 C40.59 293.55, 59.28 272.48, 88.46 238.33 M29.01 312.92 C53.38 285.43, 77.26 259.86, 88.02 246.01 M28.15 315.12 C47.75 291.32, 67.91 270.13, 89.34 244.73 M35.95 314.58 C50.96 295.66, 67.43 279.21, 87.71 251.72 M33.27 313.79 C54.75 290.15, 74.79 266.19, 89.83 250.98 M40.58 312.9 C50.4 300.33, 62.09 284.35, 88.7 256.62 M38.67 315.66 C50.93 298.8, 65.1 283.37, 89.43 257.2 M43.07 315.92 C57.95 298.95, 71.9 282.45, 88.65 263.53 M45.62 314.73 C61.42 296.17, 77.52 277.59, 90.19 263.15 M51.4 313 C64.14 296.36, 80.26 280.41, 90.61 268.95 M48.82 314.17 C61.55 302.18, 71.92 289.43, 88.82 269.36 M56.53 312.78 C63.73 306.48, 70.4 296.84, 89.43 273.79 M55.71 315.12 C62.19 305.48, 70.24 296.7, 89.33 274.83 M60.97 313.46 C68.92 302.72, 81.03 290.17, 88.43 281.65 M61.28 315.75 C69.15 303.32, 79.15 293.4, 89.85 281.98 M65.94 312.8 C73.02 307.1, 78.2 299.92, 89.84 289.55 M65.39 314.1 C73.7 304.65, 83.41 293.93, 89.29 288.31 M71.97 314.34 C76.39 309.47, 79.37 303.67, 90.7 294.43 M71.6 315.08 C76.94 309.56, 80.58 302.19, 89.43 293.64 M77.4 314.21 C80.92 309.5, 82.77 305.11, 90.8 299.43 M75.8 314.15 C79.4 309.91, 83.61 304.41, 89 299.25 M81.97 315.18 C84.31 312.33, 85.32 309.5, 90.44 305.15 M81.99 314.54 C84.45 311.68, 87.07 307.19, 89.98 305.59" stroke="#82c91e" stroke-width="0.5" fill="none"></path><path d="M1.78 -1.71 C17.79 -0.82, 38.8 -1.16, 88.95 1.47 M-0.29 0.42 C27.22 1.27, 52.5 1.34, 88.73 0.33 M86.86 -0.78 C87.49 108.37, 87.06 220.58, 88.76 312.21 M88.11 0.27 C86.39 81.49, 86.28 162.87, 87.81 313.43 M88.47 312.8 C62.4 312.62, 36.36 314.8, -0.03 313.04 M87.67 313.54 C66.81 313.58, 47.26 313.94, -0.64 312.42 M-0.66 311.85 C-1.65 211.21, 0.03 110.29, 1.09 -0.17 M0.65 312.39 C0.45 196.01, 0.87 78.64, -0.4 -0.48" stroke="#000000" stroke-width="1" fill="none"></path></g><g stroke-linecap="round" transform="translate(102 80) rotate(0 135 156.5)"><path d="M0 0 C0 0, 0 0, 0 0 M0 0 C0 0, 0 0, 0 0 M-0.74 6.82 C1.19 5.14, 3.21 2.34, 4.24 0.21 M-0.63 6.14 C1.43 4.86, 3.02 2.66, 5.22 0.09 M0.76 11.74 C2.78 9.6, 4.14 5.79, 10.83 -0.9 M-0.3 12.58 C3.54 7.41, 7.72 2.79, 11 0.55 M-1.36 19.98 C6.41 14.16, 7.15 6.95, 15.58 0.16 M-0.96 18.01 C4.86 11.57, 11.05 6.51, 15.97 0.34 M-1.04 24.39 C6.71 16.68, 17.53 4.57, 20.4 0.78 M0.89 24.06 C5.74 18.63, 9.55 13.44, 20.92 -0.91 M-0.38 31.16 C8.55 19.39, 15.8 10.26, 28.06 0.78 M-0.15 29.97 C4.74 23.59, 10.7 17.34, 26.15 0.71 M1.55 37.34 C8.92 28.5, 16.37 19.68, 30.34 -0.88 M-0.75 36.33 C9.07 25.2, 18.41 14.84, 31.5 0.23 M-0.94 42.94 C14.93 29.35, 28.16 11.98, 38.81 1.62 M-0.08 41.56 C12.9 28.15, 25.53 12.74, 36.19 0.08 M-2.03 47.04 C10.04 37.61, 21.28 25.33, 42.35 0.77 M-0.79 48.19 C12.38 35.75, 25.47 20.41, 42.96 0.1 M0.36 56.41 C11.73 42.56, 22.07 31.43, 45.89 -0.35 M0.5 53.65 C11.96 40.76, 23.76 27.06, 47.78 -0.37 M-0.61 61.43 C16.23 44.27, 30.57 25.27, 51.89 -0.22 M0.91 60.42 C17.82 40.54, 36.48 20.33, 54.03 -0.43 M0.08 68.65 C22.62 40.39, 46.32 13.25, 59.16 1.02 M-1.2 66.75 C20.88 41.54, 42.19 18.27, 58.19 0.45 M1.42 72.93 C19.34 48.46, 40.85 26.57, 64.24 1.4 M0.76 73.02 C23.29 45.97, 48.07 18.94, 64.04 0.45 M-1.44 77.62 C15.64 61.86, 34.52 43.27, 68.3 1.05 M0.57 80.03 C23.07 51.21, 48.96 22.99, 68.3 -0.47 M-0.51 83.12 C24.88 54.93, 50.37 28.85, 74.49 -1.96 M0.75 85.83 C23.87 58.81, 45.21 32.41, 74.9 -0.56 M-0.03 90.78 C24.9 61.44, 51.42 31.68, 78.81 0.27 M0.21 91.8 C15.2 73.54, 33.13 53.51, 78.57 -0.21 M0.2 99.52 C32.82 61.7, 67.13 20.87, 83.52 1.33 M-0.18 97.41 C19.53 73.52, 41.48 50.91, 85.12 0.13 M-1.03 101.97 C34.44 64.25, 69.32 25.5, 91.99 0.39 M-0.65 102.55 C19.56 81.76, 37.79 61.45, 89.06 0.02 M-0.11 108.59 C20.2 85.45, 39.48 63.39, 94.07 -1.93 M0.46 109.91 C27.19 78.61, 53.52 48.14, 95.82 -0.96 M0.02 116.26 C28.95 83.59, 55.23 53.34, 100.97 0.32 M0.21 115.68 C31.18 80.91, 62.26 45.6, 101.42 0.94 M0.8 120.22 C39.03 75.04, 76.94 31.07, 106.64 -1.74 M0.79 121.69 C32.34 84.2, 65.88 46.68, 106.68 -0.4 M0.74 126.64 C25.15 100.42, 48.9 73.47, 110.66 0.12 M-1.02 128.22 C40.79 80.57, 83.33 31.57, 110.89 -0.82 M1.6 132.76 C37.78 94.55, 74.25 49.53, 114.93 -0.18 M-0.82 134.25 C25.75 104.77, 51.27 77.56, 115.35 0.87 M-1.48 139.03 C27.53 106.87, 56.04 76.17, 121.82 1.08 M0.37 139.86 C46.5 88.65, 90.39 37.42, 122.32 -0.74 M0.78 145.72 C41.07 95.46, 82.64 46.38, 128.38 1.61 M-0.39 146.98 C30.82 111.77, 60.94 74.05, 126.02 0.59 M-1.24 152.77 C32.14 115.12, 66.6 75.81, 131.16 1.48 M-0.23 151.57 C40.34 106.24, 80.42 59.21, 132.18 -0.35 M-0.03 160.37 C50.99 95.03, 105.93 33.04, 136.46 -0.02 M-0.95 158.05 C38.87 114.09, 75.91 70.04, 137.52 -0.28 M0.65 165.59 C28.33 131.7, 58.14 96.32, 142.65 1.29 M-0.24 164.12 C49.28 109.43, 96.35 54.59, 142.47 0.5 M-1.16 169.87 C45.1 118.57, 87.27 69.2, 146.74 1.37 M-0.27 170.87 C52.96 111.04, 103.58 51.43, 147.96 0.95 M-1.31 175.15 C53.23 116.09, 105.56 56.26, 152.89 1.18 M-0.42 175.71 C40.73 128.56, 80.77 82.69, 154.51 0.34 M-1.59 181.28 C54.75 120.88, 108.94 56.12, 160.24 0.35 M-0.05 183.49 C48.02 126.03, 97.37 70.58, 158.04 0.72 M-1.45 189.17 C52.87 127.38, 104.36 69.45, 165.24 -0.45 M0.05 189.48 C35.59 151.62, 69.08 111.59, 164.21 -0.62 M0.01 194.65 C42.64 148.19, 82.1 100.59, 169.73 1.27 M0.01 195.15 C65.11 119.94, 130.14 44.81, 168.83 -0.16 M-0.93 202.14 C50.84 139.16, 107.01 79.3, 176.19 -0.93 M-0.49 202.01 C63.02 127.99, 125.98 53.42, 175.59 -0.67 M1.54 207.83 C35.61 162.37, 71.95 120.84, 179.64 1.06 M-0.1 206.66 C71.56 125.02, 143 43.67, 180.14 -0.24 M-1.2 213.73 C48.48 157.56, 96.94 101.43, 185.58 -0.07 M-0.27 213.05 C43.65 163.07, 85.59 114.81, 185.75 0.08 M0.38 220.55 C54.45 155.48, 107.8 95, 189.21 -0.55 M0.1 219.44 C66.99 141.61, 134.32 62.57, 190.76 0.88 M1.33 225.36 C57.79 160.22, 114.58 94.17, 196.1 0.23 M0.33 225.36 C75.66 137.93, 151.18 51.47, 196.27 -0.03 M-1.11 231.32 C79.82 141.69, 157.2 52.26, 201.96 1.41 M-0.24 232.45 C55.76 169.77, 110.39 107.63, 201.51 -0.11 M-0.31 237.69 C55.05 174, 108.48 112.2, 207.09 -0.85 M-0.03 237.72 C63.74 166.08, 125.57 94.13, 206.84 0.36 M0.01 244.51 C63.18 172.67, 123.97 101.69, 211.06 -0.47 M0.23 244.02 C69.02 163.61, 137.47 84.63, 212.11 0.13 M-0.6 251.47 C44.91 198.54, 89.27 145.38, 217.87 -0.46 M-0.03 250.42 C74.34 163.25, 148.55 77.46, 218.24 -0.4 M1.31 255.98 C49.86 199.03, 102.35 140.37, 222.57 0.27 M0.28 256.01 C71.85 174.24, 141.89 93.1, 222.75 -0.28 M0.38 262.05 C71.81 177.29, 142.91 97.16, 227.71 -0.63 M-0.2 262.18 C84.61 163.84, 168.4 67.86, 228.28 0.19 M0.6 268.12 C67.33 191.47, 133.67 113.45, 232.53 0.92 M-0.09 267.39 C49.33 213.34, 98.87 157.25, 232.65 0.2 M-0.59 274.53 C77.13 184.39, 153.97 95.88, 237.74 0.92 M0.13 274.51 C74.46 187.77, 149.98 99.96, 237.95 -0.12 M0.17 279.5 C55.95 215.77, 110.56 153.1, 243.64 1.14 M-0.56 280.46 C90.17 178.04, 179.89 73.48, 244.02 -0.24 M0.23 287.3 C85.62 188.21, 171.17 89.92, 248.29 -0.12 M0.01 286.18 C55.07 220.16, 112.21 154.11, 248.5 0.63 M-0.97 292.19 C65.33 219.12, 128.67 147.48, 254.53 0.16 M-0.44 292.57 C90.55 186.55, 181.24 82.1, 254.33 -0.27 M0.11 298.51 C64.53 226.55, 125.93 155.31, 260.03 -0.07 M0.17 297.84 C57.49 230.41, 117.43 162.5, 259 0.26 M-1.02 303.87 C62.68 234.82, 122.04 165.37, 265.06 -0.84 M0.02 304.61 C82.68 207.31, 167.61 110.4, 265.16 -0.49 M-0.67 311.34 C64.3 236.62, 130.18 163.46, 269.58 -0.21 M-0.25 311.28 C88.89 209.46, 178.67 106.88, 270.09 0.68 M1.75 314.61 C78.8 224.48, 157.66 133.95, 270.85 6.88 M1.81 314.37 C106.91 196.32, 210.98 76.72, 270.8 6.21 M8.21 315.53 C89.48 217.86, 173.55 122.93, 269.8 13.24 M7.48 314.88 C72.8 239.03, 137.3 165.11, 270.56 12.36 M13.79 315.45 C70.68 246.26, 130.67 177.17, 270.93 19.77 M12.52 314.28 C88.64 228.08, 163.77 141, 270.49 18.82 M18.31 315.46 C73.95 246.64, 132.88 180.82, 269.93 23.87 M18.17 314.87 C111.46 208.03, 203.89 101.46, 269.96 23.74 M24.01 315.32 C95.34 233.65, 166.24 149.56, 270.14 29.69 M23.36 314.11 C110.83 214.14, 198.52 113.2, 269.82 30.75 M27.87 315.85 C94.15 239.62, 158.4 165.35, 270.94 37.13 M28.18 315.43 C123.56 204.13, 217.47 95.54, 270.57 36.59 M34.24 313.91 C123.04 210.78, 214.31 109.02, 269.5 43.79 M33.77 314.99 C100.87 238.79, 166.74 163.67, 269.86 43.15 M39.86 314.68 C110.19 237.12, 178.85 155.63, 270.59 48.11 M38.8 315.03 C107.18 236.33, 173.91 159.02, 270.3 48.53 M43.9 314.29 C105.47 246.7, 162.46 176.35, 269.55 55.85 M44.09 314.24 C127.46 218.51, 211.29 122.77, 270.45 54.48 M50.91 314.46 C124.14 225.26, 200.7 137.64, 270.88 60.17 M49.23 315.16 C124.38 229.19, 199.29 143.07, 269.85 61.03 M54.94 315.37 C135.32 223.36, 215.22 132.38, 269.4 66.24 M55.88 314.12 C123.34 236.66, 190.95 158.69, 270.39 66.28 M61.13 314.71 C142.25 219.1, 223 126.21, 269.04 72.22 M60.35 315.42 C124.17 244.36, 186.87 172.18, 270.34 72.66 M66.65 313.87 C146.25 222.35, 223.51 133.44, 268.68 78.46 M66.34 314.39 C146.94 222, 227.03 129.53, 269.48 80.34 M71.99 314.33 C144.5 230.38, 218.3 147.34, 271.24 85.86 M70.7 314.54 C115.31 265.06, 157.15 215.98, 270.68 85.19 M77.35 316.49 C126.86 258.04, 175.25 203.44, 270.33 90.61 M75.7 315.42 C131.07 251.88, 185.54 188.34, 270.03 91.07 M80.51 314.39 C152.59 233.49, 223.59 150.8, 269.36 97.8 M82.06 314.75 C125.47 264.52, 168.06 214.84, 270.76 97.56 M87.06 314.17 C156.13 235.89, 224.14 158.09, 270.85 102.38 M86.03 315.19 C129.24 264.64, 171.73 215.36, 269.89 104.43 M90.96 315.54 C141.46 256.81, 191.91 199.36, 268.86 109.07 M92.27 314.65 C160.26 235.57, 227.74 157.48, 269.51 110.79 M96.69 315.81 C135.52 272.36, 174.91 228.33, 271.55 115.04 M97.2 315.4 C151.01 252.23, 205.94 189.41, 271.01 116 M103.21 314.59 C152.63 258.6, 202.25 201.3, 271.49 122.66 M102.54 314.98 C169.54 237.5, 235.23 161.74, 270.65 121.99 M107.87 315.27 C158.39 258.86, 207.93 200.88, 268.88 129.42 M107.83 315.4 C164.92 249.73, 222.44 182.81, 271.16 128.04 M111.93 313.93 C145.5 277.9, 177.13 241.07, 270.2 135.44 M113.1 313.98 C155.63 266.82, 197.82 216.71, 270.95 133.6 M118.89 313.37 C153.1 277.1, 184.18 238.28, 269.88 139.69 M117.7 314.36 C177.39 245.28, 237.32 176.57, 269.36 141.27 M123 315.58 C170.58 257.7, 220.09 203.75, 271.39 147.45 M124.72 313.91 C172.62 259.16, 220.77 204.8, 270.56 145.76 M127.66 315.56 C184.09 248.09, 239.17 186.78, 268.64 153.69 M129.71 314.79 C164.17 271.95, 201.93 228.72, 270.58 153.14 M133.98 313.97 C186.7 253.11, 239.82 194.68, 270.78 160.56 M135.23 314.56 C181.85 257.96, 230.29 203.08, 270.42 159.27 M138.77 314.63 C183.57 263.16, 229.15 210.5, 268.69 163.91 M139.55 313.89 C187.6 259.98, 235.18 205.93, 269.75 164.04 M143.69 312.95 C171 283.1, 202.53 249.02, 269.06 172 M144.49 314.72 C174.85 279.06, 204.27 244.76, 269.56 170.71 M150.14 314.79 C178.15 281.21, 202.62 252.52, 269.51 175.35 M149.38 314.41 C187.1 271.72, 224.85 228.74, 270.09 176.47 M156.84 312.76 C185.32 281.92, 214.37 247.54, 268.67 181.88 M155.04 313.74 C196.12 267.02, 236.41 222.18, 270.21 182.49 M162.63 314.08 C185.78 284.8, 212.74 252.05, 270.97 189.7 M161.49 315.01 C194.27 278.59, 227.56 239.87, 269.09 188.76 M167.83 316.39 C193.13 285.61, 217.61 255.75, 268.85 195.27 M166.18 314.03 C203.39 272.29, 239.82 229.08, 271.09 194.36 M173.12 315.66 C203.8 280.09, 231.73 246.35, 268.89 201.47 M171.65 314.27 C201.46 278.83, 235.08 242.71, 270.78 201.83 M176.92 314.07 C210.81 275.71, 244.3 237, 268.53 206.26 M177.73 314.86 C198.43 290.44, 219.62 266, 270.45 207.93 M182.27 315.87 C209.28 280.51, 239.43 246.54, 270.96 214.57 M181.23 314.7 C212.74 277.99, 243.08 243.91, 269.79 213.75 M185.55 315.99 C206.83 291.39, 226.53 266.62, 269.81 218.89 M187.46 315.2 C202.89 296.46, 219.65 276.27, 269.46 219.49 M194.59 316.21 C214.8 288.2, 240.54 258, 271.33 227.38 M193.2 314.69 C219.79 284.36, 248.2 253.46, 270.01 224.77 M198.92 313.26 C224.8 284.48, 253.26 248.73, 268.54 232.09 M197.68 314.65 C212.3 297.95, 229.88 278.45, 270.88 232.96 M202.38 315.41 C224.91 287.92, 245.78 266.08, 269.96 237.45 M204.11 314.56 C223.71 292.4, 242.27 271.64, 269.91 238 M210.09 314.43 C231.53 287.67, 259.74 259.84, 270.45 244.27 M209.36 315.97 C228.03 292.72, 247.24 270.96, 271.07 244.44 M213.76 313.36 C227.15 298.49, 244.34 280.3, 267.96 250.28 M214.12 314.52 C231.42 295.76, 248.14 276.84, 269.92 250.26 M218.59 314.49 C229.86 301.5, 241.97 286.39, 269.7 254.27 M218.67 314.07 C239.79 293.39, 259.24 269.85, 270.65 255.18 M224.66 315.15 C241.08 296.18, 255.32 279.32, 270.25 264.28 M224.98 314.69 C239.48 297.63, 256.03 279.62, 269.01 262.98 M229.76 315.63 C237.94 304.25, 249.06 292.39, 272.3 270.11 M230.43 314.79 C240.51 302.75, 250.46 289.6, 269.85 268.32 M234.82 315.04 C245.43 299.59, 259.11 289.03, 269.55 275.32 M236.01 315.11 C247.88 300.98, 258.22 287.41, 270.79 274.77 M238.74 315.21 C249.43 306.99, 256.28 296.11, 271.39 281.75 M240 314.85 C247.15 306.9, 255.14 297.02, 269.8 281.68 M247.79 316.51 C253.73 302.73, 266.33 293.25, 269.08 285.71 M246.16 313.7 C251.21 309.13, 257.45 301.68, 270.12 286.4 M250.49 313.78 C257.28 310.77, 260.54 302.74, 269.91 294.09 M251.38 313.9 C256.45 307.12, 264 300.16, 269.23 292.71 M254.95 316.19 C262.01 310.29, 263.41 306.52, 269.87 296.95 M255.95 314.3 C259.82 311.13, 263.93 306.68, 270.43 299.53 M260.43 315.01 C264.89 312.3, 267.94 309.02, 269.15 304.01 M261.3 314.6 C262.8 312.72, 265.27 311.04, 270.36 305.05 M267.29 314.75 C268.26 313.52, 269.1 312.78, 269.92 311.25 M267.3 314.51 C267.99 313.9, 268.37 313.17, 269.72 311.46" stroke="#228be6" stroke-width="0.5" fill="none"></path><path d="M-0.41 0 C103.04 -2.91, 202.9 -1.58, 270.63 -0.86 M0.05 0.68 C66.34 0.26, 131.97 1.39, 270.69 -0.26 M270.16 0.19 C271.85 70.39, 270.14 142.29, 270.47 312.6 M270.69 0.49 C270.61 111.92, 270.73 223.57, 269.99 312.64 M269.72 311.85 C207.55 314.69, 144.02 313.74, -1.41 313.66 M269.54 312.61 C181.64 313.57, 92.89 313.73, 0.57 313.54 M-0.04 313.34 C0.87 245, 0.12 179.09, 1.36 0.93 M-0.35 312.83 C-2.39 188.06, -1.44 63.33, 0.07 0.69" stroke="#000000" stroke-width="1" fill="none"></path></g><g stroke-linecap="round" transform="translate(374 80.5) rotate(0 44.5 156.5)"><path d="M0 0 C0 0, 0 0, 0 0 M0 0 C0 0, 0 0, 0 0 M-0.25 5.84 C1.03 5.21, 2.46 3.41, 5.51 -0.13 M-0.62 6.15 C1.2 5.27, 2.49 3.53, 5.17 0.57 M1.14 10.73 C3.76 9.19, 6.8 3.14, 9.64 0.51 M-0.64 12.12 C3.18 8.35, 7.71 3.91, 9.94 -0.01 M1.45 19.19 C3.46 13, 5.72 11.62, 14.97 0.98 M-0.46 17.63 C4.49 12.5, 9.3 7.76, 15.69 -0.62 M0.99 22.68 C9.19 17.53, 13.91 5.67, 20.6 1.73 M1.11 24.18 C8.37 16.46, 14.21 6.87, 22.06 -0.65 M-0.86 28.76 C6.5 22.29, 16.67 12.5, 27.06 1.97 M-0.75 30.24 C7.52 22.21, 15.27 14.9, 26.4 -0.7 M-2.11 38.51 C6.6 29.77, 15.66 16.65, 31.76 -1.92 M-0.9 37.55 C11.7 22.57, 24.88 6.87, 31.08 -0.27 M0.2 42.35 C10.26 28.76, 21.99 19.13, 35.59 -0.37 M0.51 43.46 C11.3 29.87, 23.24 16.11, 37.01 0.33 M0.19 48.14 C11.37 36.09, 22.6 25.19, 44.3 1.27 M-0.97 49.28 C15.65 29.36, 32.85 10.84, 41.82 0.01 M-0.18 53.8 C17.47 34.18, 36.27 15.94, 47.4 -1.39 M-0.57 55.04 C14.74 37.96, 29.67 21.04, 47.56 1.02 M-0.19 59.24 C19.05 39.57, 36.28 19.64, 51.48 0.07 M-0.59 61.59 C16.73 43.43, 30.61 24.16, 52.87 -1.04 M0.33 66.9 C11.63 54.46, 26.77 36.9, 59.14 -1.21 M-0.91 67.38 C18.83 45.41, 39.27 22.56, 58.69 0.87 M-0.85 73.94 C14.28 56.28, 28.44 42.72, 62.33 0.46 M0 72.81 C22.73 45.16, 46.09 19.22, 64.41 -0.73 M1.84 80.34 C28.82 47.95, 51.9 17.14, 69.27 -0.77 M0.09 78.54 C21.09 55.97, 41.18 32.07, 69.62 0.25 M-1.57 85.53 C28.58 51.91, 56.55 21.19, 73.75 1.56 M1.17 84.23 C27.27 52.45, 55.32 19.64, 74.23 -0.48 M-1.67 92.27 C19.44 67.46, 38.97 45.84, 78.07 -1.85 M0.68 90.72 C20.82 67.28, 40.22 43.37, 80.19 0.47 M-0.98 99.26 C22.92 71.78, 46.14 45.01, 86.39 -0.27 M-0.81 98.75 C29.81 62.44, 61.72 26.6, 85.68 0.23 M0.22 105.28 C24.73 74.34, 49.39 47.02, 90.96 1.76 M-0.64 103.31 C26.67 73.76, 53.45 43.89, 90.15 0.48 M-1.95 109.3 C24.39 78.55, 52.6 51.79, 90.86 7.27 M-1.08 109.95 C22.42 84.83, 43.51 59.26, 89.84 6.57 M1.75 115.14 C31.37 79.46, 65.42 40.59, 90.67 13.22 M0.22 115.59 C21.02 90.46, 44.36 65.93, 89.32 11.95 M0.53 123.28 C21.84 98.21, 40.1 74.55, 88.77 17.38 M-0.14 122.57 C25.62 92.57, 50.69 64.12, 90.56 19.35 M0.32 127.56 C23.6 100.12, 46.67 70.71, 88.75 25.02 M0.28 127.48 C32.83 91.12, 67.38 52.35, 89.17 25.57 M1.92 135.24 C35.29 93.72, 67.01 56.85, 88.17 29.44 M0.71 133.47 C31.03 95.24, 63.95 58.83, 89.95 32.26 M-0.87 139.19 C22.58 115.22, 45.59 89.44, 88.71 36.16 M0.13 140.58 C27.22 109.77, 54.34 77.61, 89.87 36.26 M-0.51 146.43 C21.02 118.61, 46.05 94.19, 90.31 43.02 M0.82 146.48 C25.7 114.72, 53.7 82.72, 89.05 43.91 M-0.82 154.11 C34.55 113.31, 65.83 74.2, 91.9 48.8 M0 152.63 C24.97 123.37, 49.31 94.56, 90.24 49.85 M-0.33 158.03 C23.82 129.17, 49.81 100.61, 90.27 57.14 M-0.57 159.02 C17.44 138.55, 35.6 118.42, 90.55 55.09 M1.97 164.85 C18.32 145.68, 36.67 123.42, 88.8 61.08 M0.34 164.53 C26.31 133.49, 53.63 103.7, 88.99 61.81 M0.68 172.15 C24.8 144.12, 47.62 116.79, 91.61 67.27 M0.38 171.21 C21.93 145.1, 44.07 119.3, 89.39 67.71 M0.81 177.11 C29.1 139.87, 61.31 107.95, 89.71 72.04 M1.2 177.1 C35.18 136.95, 69.01 98.14, 89.42 74.29 M0.57 184.35 C31.69 143.88, 66.18 109.49, 89.71 78.05 M0.11 182.31 C29.74 149.92, 58.16 116.27, 90.09 79.64 M0.16 190.55 C21.96 165.17, 42.36 140.17, 88.72 86.16 M-0.4 189.81 C27.82 154.67, 59.49 119.93, 89.44 86.57 M-0.13 196.61 C24.86 164.13, 54.84 132.69, 91.07 92.07 M0.32 195.74 C35.54 154.95, 69.75 114.78, 90.11 91.36 M-1.74 199.74 C23.39 178.41, 44.34 150.09, 90.43 98.39 M0.07 201.76 C28.94 167.62, 58.99 132.6, 90.23 98.11 M0.9 206.11 C33.45 167.14, 64.54 130.5, 88.01 102.85 M-0.69 207.82 C27.22 174.91, 55.87 142.43, 90.48 105.02 M-0.8 214.72 C30.72 178.81, 58.69 146.45, 89.24 110.84 M0.82 214.24 C33.21 176.24, 66.32 136.92, 89.54 109.25 M-0.83 217.99 C35.85 177.98, 69.67 137.67, 90.68 115.35 M-0.71 220.53 C21.4 195.61, 44.75 169.67, 89.85 116.94 M-0.46 225.93 C29.89 189.21, 62.4 154.68, 88.71 121.56 M0.26 225.69 C18.64 203.82, 37.48 183.54, 89.08 122.03 M-2.05 230.27 C34.25 194.63, 68.06 152.07, 89.7 126.97 M-0.92 232.52 C20.48 208.57, 41.32 185.23, 89.13 128.58 M-0.35 237.04 C33.82 198.69, 69.41 156.87, 88.16 133.54 M0.44 236.44 C18.92 216.4, 38.61 193.36, 89.1 135.1 M0.36 242.46 C27.7 215.06, 53.54 184.96, 91.49 140.3 M0.08 243.57 C35.79 203.31, 71.17 162.79, 90.81 141.31 M-0.96 249.62 C22.55 225.98, 43.84 202.37, 90.79 147.22 M0.3 249.49 C29.93 213.48, 62.02 178.37, 90.5 146.28 M-0.02 256.49 C17.75 233.14, 38.36 209.4, 89.64 151.85 M0.96 255.63 C32.92 217.79, 64.9 180.68, 90.33 153.17 M-0.98 264.19 C27.65 232.1, 53.92 201.36, 90.24 157.44 M0.39 261.5 C28.34 227.78, 58.66 192.75, 89.4 159.56 M0.22 269.47 C24.81 236.89, 52.37 206.39, 87.53 165.08 M0.98 267.56 C24.47 240.1, 46.04 214.69, 88.67 165.82 M-1.25 272.71 C25.96 245.3, 49.43 216.94, 89.97 170.28 M0.84 275.27 C28.56 241.9, 57.77 208.68, 90.54 171.83 M1.62 282.46 C24.46 248.82, 52.88 218.4, 90.36 178.9 M-0.66 279.88 C23.67 252.99, 49.11 223.81, 90.47 177.12 M1.84 287.59 C24.68 257.69, 53.35 227.04, 90.6 183.73 M0.07 286.76 C22.45 261.78, 41.92 238.68, 88.58 183.63 M0.53 293.44 C22.26 264.14, 46.91 238.8, 87.82 188.64 M-0.2 293.74 C27.94 260.81, 53.94 229.67, 90.58 190.06 M-0.28 298.41 C29.74 265.03, 61.27 229.2, 88.53 196.7 M0.06 297.86 C33.22 257.99, 67.5 220.1, 88.76 196.16 M1.13 305.85 C30.45 271.41, 61.11 235.09, 89.39 202.82 M0.76 305.48 C31.3 270.46, 62.6 233.56, 89.48 201.54 M-1.02 312.69 C26.54 280.41, 53.37 247.11, 88.01 209.57 M-0.25 311.09 C22.99 281.79, 48.17 253.56, 88.93 207.77 M4.04 315.28 C23.4 293.48, 41.88 269.53, 87.73 215.9 M1.8 315.31 C23.65 287.94, 47.3 261.18, 88.57 215.13 M7.2 316.58 C31.13 287.64, 55.09 257.42, 91.74 221.15 M6.86 314.32 C23.6 294.97, 40.99 276.16, 90.19 218.98 M12.27 315.25 C30.09 294.74, 46.12 278.53, 89.26 225.27 M13.73 315.08 C29.4 294.2, 47.72 274.38, 88.81 226.03 M18.66 316.52 C38.97 293.38, 56.76 267.51, 88.25 233.41 M17.57 314.43 C37.17 293.03, 55.56 271.01, 90.25 231.2 M23.57 315.8 C43.9 287.4, 67.33 265.39, 90.27 239.78 M22.84 314.88 C42.87 291.68, 63.29 269.93, 88.79 237.63 M28.77 314.61 C46.61 290.7, 67.17 269.25, 91.22 244.3 M28.96 314.69 C47.97 292.53, 67.93 268.77, 88.73 245.52 M34.03 316.38 C52.25 291.15, 73.54 267.04, 91.49 248.69 M34.54 313.92 C46.72 301.18, 58.48 287.69, 89.35 250.44 M40 314.38 C54.51 299.32, 67.86 281.7, 90.11 256.67 M39.01 314.5 C53.17 298.93, 66.49 284.89, 89.85 257.65 M45.56 315.58 C55.81 301.31, 67.96 287.72, 89.48 262.47 M44.85 314.3 C55.83 302.2, 65.77 289.51, 90.92 262.9 M50.68 316.53 C66.69 299.12, 80.01 281.88, 90.23 266.83 M49.26 315.17 C63.24 300, 76.53 284.42, 90.41 268.49 M53.85 315.21 C69.6 299.18, 80.36 287.27, 87.96 273.52 M54.37 315.03 C64.58 303.39, 73.14 293.5, 88.87 276.1 M58.91 314.96 C69.66 302.93, 80.84 288.68, 91.36 281.52 M60.88 313.92 C71.23 301.2, 84.14 289.37, 90.51 281.09 M64.44 316.28 C72.78 307.32, 82.76 296.92, 88.41 289.16 M66.3 314.04 C72.88 304.37, 82.79 295.25, 90.15 286.8 M70.63 312.76 C78.23 307.43, 82.49 300.36, 91.07 294.68 M70.61 313.86 C75.21 308.36, 81.54 303.98, 90.79 293.38 M76 315.7 C79.75 310.98, 85.34 304.49, 90.17 300.17 M75.78 314.9 C81.2 309.31, 85.95 302.74, 89.29 299.88 M80.36 314.4 C83.97 312.1, 86.78 309.42, 88.64 304.75 M81.09 314.3 C84.92 311.85, 87.48 307.48, 89.69 305.25 M86.65 315.12 C87.25 314.06, 87.96 312.62, 89.62 310.9 M86.53 315.25 C87.42 313.64, 88.84 312.33, 89.64 311.31" stroke="#fab005" stroke-width="0.5" fill="none"></path><path d="M-1.92 0.91 C32.6 1.24, 62.81 -1.18, 88.65 -1.17 M-0.94 -0.29 C18.84 1.03, 37.1 0.76, 89.46 -0.11 M87.96 -0.13 C89.92 78.34, 88.28 155.4, 89.34 311.93 M89.66 0.18 C89.37 73.65, 89.75 146.57, 88.8 312.72 M87.18 312.29 C57.72 311.43, 27.3 313.74, -1.18 312.81 M89.24 313.18 C69.02 312.36, 47.96 312.09, -0.02 313.37 M-0.76 313.28 C-0.38 204.24, 0.2 94.08, -0.36 1.25 M0.46 313.29 C-1.66 190.95, -2.04 67.94, 0.3 0.47" stroke="#000000" stroke-width="1" fill="none"></path></g></svg>