<svg version="1.1" xmlns="http://www.w3.org/2000/svg" viewBox="0 0 474.76476649716494 476.0133037694014" width="474.76476649716494" height="476.0133037694014">
  <!-- svg-source:excalidraw -->
  
  <defs>
    <style>
      @font-face {
        font-family: "Virgil";
        src: url("https://excalidraw.com/Virgil.woff2");
      }
      @font-face {
        font-family: "Cascadia";
        src: url("https://excalidraw.com/Cascadia.woff2");
      }
    </style>
  </defs>
  <g stroke-linecap="round" transform="translate(11.764766497164942 10) rotate(0 226.5 228.0066518847007)"><path d="M0.55 0.73 C96.1 2.42, 193.16 2.21, 452.76 -0.05 M0.04 0.34 C145.24 0.73, 290.29 0.48, 453.25 -0.16 M452.99 -0.9 C451.22 91.06, 450.28 184.3, 453.85 456.87 M452.81 0.06 C452.17 166.91, 452.23 334.36, 452.74 455.85 M453.95 456.05 C348.82 456.75, 245.97 456.86, -0.15 456.31 M452.78 456.1 C307.69 453.86, 161.67 453.62, -0.37 455.69 M-0.1 456.38 C-1.8 323.5, -1.96 189.18, 0.01 -0.87 M-0.07 456.24 C1.2 298.33, 1.72 140.58, 0.3 -0.19" stroke="#000000" stroke-width="1" fill="none"></path></g><g stroke-linecap="round"><g transform="translate(226.76476649716494 12) rotate(0 1.4674588673701692 225.9958204799611)"><path d="M1.07 0.59 C1.34 75.79, 2.31 375.88, 2.76 451.09 M0.17 -0.15 C0.17 75.18, 1.15 376.61, 1.69 452.14" stroke="#000000" stroke-width="1" fill="none"></path></g></g><g stroke-linecap="round"><g transform="translate(13.764766497164942 76) rotate(0 108.4165126242628 -0.6991142088314461)"><path d="M0.97 -0.66 C37.01 -1.2, 180.88 -2.74, 216.82 -3.01 M0.01 1.61 C35.92 1.25, 180.28 -0.5, 216.3 -1.48" stroke="#000000" stroke-width="1" fill="none"></path></g></g><g stroke-linecap="round"><g transform="translate(10.764766497164942 247.5) rotate(0 108.45918054192794 -1.1106322579086054)"><path d="M-0.76 0.76 C35.27 0.12, 179.23 -2.39, 215.33 -2.98 M1.03 0.11 C37.54 -0.39, 182.03 -1.18, 217.68 -1.43" stroke="#000000" stroke-width="1" fill="none"></path></g></g><g stroke-linecap="round"><g transform="translate(165.5383569298234 26.44843074095064) rotate(0 28.632295044145053 -1.0564887794346305)"><path d="M0.47 -0.97 C9.69 -1.25, 46.33 -1.08, 55.79 -1.42 M-0.74 1.13 C8.81 0.47, 48.43 -2.69, 58.01 -3.25" stroke="#087f5b" stroke-width="1" fill="none"></path></g><g transform="translate(165.5383569298234 26.44843074095064) rotate(0 28.632295044145053 -1.0564887794346305)"><path d="M30.47 6.75 C41.76 5.16, 47.87 -0.98, 56.56 -3.15 M31.58 9.14 C38.55 4.73, 44.99 1.42, 58.92 -3.51" stroke="#087f5b" stroke-width="1" fill="none"></path></g><g transform="translate(165.5383569298234 26.44843074095064) rotate(0 28.632295044145053 -1.0564887794346305)"><path d="M29.1 -12.61 C40.89 -7.67, 47.47 -7.28, 56.56 -3.15 M30.21 -10.23 C37.72 -9.54, 44.52 -7.77, 58.92 -3.51" stroke="#087f5b" stroke-width="1" fill="none"></path></g></g><g stroke-linecap="round"><g transform="translate(75.96717587855846 27.44211015484825) rotate(0 -30.53199606824262 0.2835042141916517)"><path d="M-0.97 -0.94 C-11.2 -0.77, -50.84 1.32, -61.13 1.51 M0.72 1.18 C-9.64 0.95, -51.61 -0.32, -61.78 -0.35" stroke="#087f5b" stroke-width="1" fill="none"></path></g><g transform="translate(75.96717587855846 27.44211015484825) rotate(0 -30.53199606824262 0.2835042141916517)"><path d="M-34.97 -9.14 C-41.65 -8.87, -53.02 -5.49, -61.69 -1.1 M-32.59 -10.32 C-45.25 -7.01, -56.66 -1.68, -62.05 0.47" stroke="#087f5b" stroke-width="1" fill="none"></path></g><g transform="translate(75.96717587855846 27.44211015484825) rotate(0 -30.53199606824262 0.2835042141916517)"><path d="M-35.35 11.38 C-41.99 5.05, -53.24 1.82, -61.69 -1.1 M-32.97 10.19 C-45.39 5.46, -56.65 2.74, -62.05 0.47" stroke="#087f5b" stroke-width="1" fill="none"></path></g></g><g transform="translate(90.39718671024241 14.5) rotate(0 30.353604615039956 12.440001891409821)"><text x="0" y="17.880003782819635" font-family="Virgil, Segoe UI Emoji" font-size="19.90400302625573px" fill="#087f5b" text-anchor="start" style="white-space: pre;" direction="ltr">250px</text></g><g stroke-linecap="round"><g transform="translate(165.26476649716483 90.5) rotate(0 28.481204125131512 -0.9196465544402486)"><path d="M0.19 0.86 C9.92 0.48, 48.74 -2.29, 58.13 -2.7 M-1.17 0.27 C8.52 0.06, 48.33 -0.87, 57.78 -1.53" stroke="#087f5b" stroke-width="1" fill="none"></path></g><g transform="translate(165.26476649716483 90.5) rotate(0 28.481204125131512 -0.9196465544402486)"><path d="M32.86 11.24 C37.65 5.52, 46.84 4.51, 57.24 -0.4 M30.83 10.27 C38.71 6.83, 45.03 4.12, 58.47 -2.48" stroke="#087f5b" stroke-width="1" fill="none"></path></g><g transform="translate(165.26476649716483 90.5) rotate(0 28.481204125131512 -0.9196465544402486)"><path d="M32.03 -8.25 C36.98 -8.53, 46.41 -4.1, 57.24 -0.4 M30 -9.22 C37.94 -8.01, 44.46 -6.08, 58.47 -2.48" stroke="#087f5b" stroke-width="1" fill="none"></path></g></g><g stroke-linecap="round"><g transform="translate(75.26476649716483 91.5) rotate(0 -30.91964655444025 1.200085850188458)"><path d="M0.86 1.13 C-9.52 1.19, -52.29 0.44, -62.7 0.55 M-0.14 0.68 C-10.1 0.89, -50.02 1.99, -60.36 1.85" stroke="#087f5b" stroke-width="1" fill="none"></path></g><g transform="translate(75.26476649716483 91.5) rotate(0 -30.91964655444025 1.200085850188458)"><path d="M-30.38 -9.85 C-40.53 -4.99, -46.04 -3.37, -59.23 0.62 M-31.35 -7.75 C-38.63 -5.41, -45.32 -3.23, -61.3 2.36" stroke="#087f5b" stroke-width="1" fill="none"></path></g><g transform="translate(75.26476649716483 91.5) rotate(0 -30.91964655444025 1.200085850188458)"><path d="M-30.18 10.67 C-40.42 10.03, -45.98 6.15, -59.23 0.62 M-31.16 12.77 C-38.56 10.31, -45.29 7.69, -61.3 2.36" stroke="#087f5b" stroke-width="1" fill="none"></path></g></g><g transform="translate(89.76476649716483 78.5) rotate(0 30.5 12.5)"><text x="0" y="18" font-family="Virgil, Segoe UI Emoji" font-size="20px" fill="#087f5b" text-anchor="start" style="white-space: pre;" direction="ltr">250px</text></g><g stroke-linecap="round"><g transform="translate(166.26476649716483 267.5) rotate(0 29.416689801206815 -1.0737813763320503)"><path d="M0.96 0.06 C10.43 -0.27, 46.95 -1.78, 56.42 -2.2 M0.01 -0.96 C9.91 -1.08, 49.25 -0.7, 58.82 -0.77" stroke="#087f5b" stroke-width="1" fill="none"></path></g><g transform="translate(166.26476649716483 267.5) rotate(0 29.416689801206815 -1.0737813763320503)"><path d="M32.1 7.95 C38.93 7.39, 45.73 1.58, 57.76 0.78 M31.59 9.69 C42.01 4.66, 53.88 0.18, 58.42 -0.13" stroke="#087f5b" stroke-width="1" fill="none"></path></g><g transform="translate(166.26476649716483 267.5) rotate(0 29.416689801206815 -1.0737813763320503)"><path d="M32.14 -11.55 C38.92 -6.85, 45.72 -7.39, 57.76 0.78 M31.63 -9.82 C42.09 -7.21, 53.94 -4.04, 58.42 -0.13" stroke="#087f5b" stroke-width="1" fill="none"></path></g></g><g stroke-linecap="round"><g transform="translate(76.26476649716483 268.5) rotate(0 -31.601114480406977 0.5991830758750325)"><path d="M0.06 -0.58 C-10.27 -0.45, -51.78 1.71, -62.2 1.78 M-1.37 1.73 C-11.86 1.44, -52.91 0.26, -63.26 0.07" stroke="#087f5b" stroke-width="1" fill="none"></path></g><g transform="translate(76.26476649716483 268.5) rotate(0 -31.601114480406977 0.5991830758750325)"><path d="M-35.8 -9.84 C-41.45 -7.57, -52.65 -5.16, -61.71 1.9 M-34.06 -9.98 C-44.32 -5.6, -54.3 -3.77, -62.61 -0.02" stroke="#087f5b" stroke-width="1" fill="none"></path></g><g transform="translate(76.26476649716483 268.5) rotate(0 -31.601114480406977 0.5991830758750325)"><path d="M-36.3 10.67 C-41.97 7.17, -53.03 3.8, -61.71 1.9 M-34.56 10.54 C-44.81 8.2, -54.63 3.33, -62.61 -0.02" stroke="#087f5b" stroke-width="1" fill="none"></path></g></g><g transform="translate(90.76476649716483 255.5) rotate(0 30.5 12.5)"><text x="0" y="18" font-family="Virgil, Segoe UI Emoji" font-size="20px" fill="#087f5b" text-anchor="start" style="white-space: pre;" direction="ltr">250px</text></g></svg>