<svg version="1.1" xmlns="http://www.w3.org/2000/svg" viewBox="0 0 473.73461181952644 480.44053881473747" width="473.73461181952644" height="480.44053881473747">
  <!-- svg-source:excalidraw -->
  
  <defs>
    <style>
      @font-face {
        font-family: "Virgil";
        src: url("https://excalidraw.com/Virgil.woff2");
      }
      @font-face {
        font-family: "Cascadia";
        src: url("https://excalidraw.com/Cascadia.woff2");
      }
    </style>
  </defs>
  <g stroke-linecap="round" transform="translate(10 11.897194216587195) rotate(0 226.5 228.00665188470066)"><path d="M0.07 0.08 C118.95 0.4, 237.38 -0.45, 452.14 0.3 M0.28 0.11 C128.39 0.11, 257.52 -0.43, 452.87 0.34 M453.71 -0.13 C452.14 136.1, 452.73 271.75, 452.62 455.36 M452.61 -0.41 C452.28 109.8, 451.62 219.24, 453.4 456.33 M453.6 456.55 C275.46 454.13, 97.5 455.49, -0.66 455.64 M453.15 456.36 C302 456.53, 151.42 456.55, -0.21 455.86 M0.61 456.25 C-0.02 283.25, -1.77 111.49, 0.37 0.19 M0.17 456.15 C-1.43 347.5, -1.51 240.15, -0.21 0.04" stroke="#000000" stroke-width="1" fill="none"></path></g><g stroke-linecap="round"><g transform="translate(10.527777777777601 97.09829054573265) rotate(0 225.1869943525229 -0.5478567127330507)"><path d="M-0.46 0.39 C74.57 0.59, 375.51 0.29, 450.84 0.37 M1.49 -0.44 C76.28 -0.54, 374.84 -1.46, 449.75 -1.56" stroke="#000000" stroke-width="1" fill="none"></path></g></g><g stroke-linecap="round"><g transform="translate(11.638888888888914 244.87606832351014) rotate(0 225.51515195283173 0.24163806081520534)"><path d="M-1.07 0.76 C73.99 0.82, 374.71 1.2, 449.98 1.02 M0.58 0.11 C76.02 -0.21, 377.28 -0.69, 452.1 -0.56" stroke="#000000" stroke-width="1" fill="none"></path></g></g><g stroke-linecap="round"><g transform="translate(232.75000000000023 10.431623879065683) rotate(0 3.375158068996484 229.78864552830305)"><path d="M-0.27 0.4 C0.42 76.95, 3.77 383.79, 4.74 460.01 M1.79 -0.43 C2.8 75.74, 6.53 381.99, 7.02 458.47" stroke="#000000" stroke-width="1" fill="none"></path></g></g><g stroke-linecap="round"><g transform="translate(351.0833333333335 15.431623879065683) rotate(0 2.474584067378373 224.04751642774636)"><path d="M0.55 0.86 C1.59 75.43, 4.67 373.47, 5.56 447.84 M-0.61 0.26 C0.27 74.44, 3.38 371.35, 4.33 446.02" stroke="#000000" stroke-width="1" fill="none"></path></g></g><g transform="translate(17.19444444444457 43.65384610128797) rotate(0 27 12.5)"><text x="0" y="18" font-family="Virgil, Segoe UI Emoji" font-size="20px" fill="#087f5b" text-anchor="start" style="white-space: pre;" direction="ltr">100px</text></g><g transform="translate(15.750000000000455 162.37606832351014) rotate(0 31.5 12.5)"><text x="0" y="18" font-family="Virgil, Segoe UI Emoji" font-size="20px" fill="#087f5b" text-anchor="start" style="white-space: pre;" direction="ltr">200px</text></g><g transform="translate(15.694444444445026 341.26495721239894) rotate(0 31 12.5)"><text x="0" y="18" font-family="Virgil, Segoe UI Emoji" font-size="20px" fill="#087f5b" text-anchor="start" style="white-space: pre;" direction="ltr">300px</text></g><g stroke-linecap="round"><g transform="translate(40.527777777778056 332.65384610128785) rotate(0 0.12974555874302496 -38.30731760652532)"><path d="M-1.07 0.1 C-1.38 -12.87, -1.07 -63.92, -0.82 -76.72 M0.57 -0.89 C0.54 -13.24, 1.58 -63.27, 1.46 -75.79" stroke="#087f5b" stroke-width="1" fill="none"></path></g><g transform="translate(40.527777777778056 332.65384610128785) rotate(0 0.12974555874302496 -38.30731760652532)"><path d="M11.68 -48.89 C5.42 -57.93, 1.54 -67.95, 1.9 -74.97 M11.58 -47.43 C8.76 -53.32, 7.57 -59.77, 1.5 -76.51" stroke="#087f5b" stroke-width="1" fill="none"></path></g><g transform="translate(40.527777777778056 332.65384610128785) rotate(0 0.12974555874302496 -38.30731760652532)"><path d="M-8.84 -49.04 C-7.14 -57.84, -3.06 -67.8, 1.9 -74.97 M-8.94 -47.58 C-7.05 -53.32, -3.53 -59.73, 1.5 -76.51" stroke="#087f5b" stroke-width="1" fill="none"></path></g></g><g stroke-linecap="round"><g transform="translate(41.63888888888914 375.98717943462134) rotate(0 0.09797694533597223 38.40202658815144)"><path d="M0.51 -0.55 C0.23 12.17, -0.98 63.15, -1 76.11 M-0.68 1.78 C-0.66 14.67, 1.1 65.12, 1.19 77.35" stroke="#087f5b" stroke-width="1" fill="none"></path></g><g transform="translate(41.63888888888914 375.98717943462134) rotate(0 0.09797694533597223 38.40202658815144)"><path d="M-10.63 47.75 C-6.76 60.18, -0.95 70.92, 0.23 75.7 M-10.23 50.14 C-6.43 57.79, -3.37 66.45, 2 77.76" stroke="#087f5b" stroke-width="1" fill="none"></path></g><g transform="translate(41.63888888888914 375.98717943462134) rotate(0 0.09797694533597223 38.40202658815144)"><path d="M9.89 47.27 C6.35 59.96, 4.75 70.88, 0.23 75.7 M10.29 49.66 C7.58 57.47, 4.14 66.29, 2 77.76" stroke="#087f5b" stroke-width="1" fill="none"></path></g></g><g stroke-linecap="round"><g transform="translate(42.75000000000023 148.2094016568435) rotate(0 -0.4455013262860348 -19.706937678572217)"><path d="M0.24 -0.41 C0.33 -6.81, -0.08 -32.75, -0.11 -39.01 M-1.09 -1.67 C-1.11 -7.83, -1.19 -31.18, -1.11 -37.53" stroke="#087f5b" stroke-width="1" fill="none"></path></g><g transform="translate(42.75000000000023 148.2094016568435) rotate(0 -0.4455013262860348 -19.706937678572217)"><path d="M4.81 -19.41 C3.74 -23.62, 3.86 -29.99, 0.11 -38.18 M4.9 -19.52 C3.38 -24.03, 2.85 -27.47, -1.83 -37.84" stroke="#087f5b" stroke-width="1" fill="none"></path></g><g transform="translate(42.75000000000023 148.2094016568435) rotate(0 -0.4455013262860348 -19.706937678572217)"><path d="M-8.49 -19.46 C-6.26 -23.68, -2.84 -30.04, 0.11 -38.18 M-8.4 -19.56 C-7.07 -23.99, -4.75 -27.42, -1.83 -37.84" stroke="#087f5b" stroke-width="1" fill="none"></path></g></g><g stroke-linecap="round"><g transform="translate(41.63888888888914 194.87606832351014) rotate(0 0.8529564063535418 20.0864688704209)"><path d="M0.92 0.56 C1.24 7.17, 1.77 33.78, 1.77 40.36 M-0.06 -0.19 C0.18 5.99, 1.15 31.5, 1.16 38.43" stroke="#087f5b" stroke-width="1" fill="none"></path></g><g transform="translate(41.63888888888914 194.87606832351014) rotate(0 0.8529564063535418 20.0864688704209)"><path d="M-5.16 20.88 C-3.31 24.69, -1.79 29.57, 2.89 39.41 M-7 18.8 C-3.98 24.61, -3.77 27.86, 0.71 38.38" stroke="#087f5b" stroke-width="1" fill="none"></path></g><g transform="translate(41.63888888888914 194.87606832351014) rotate(0 0.8529564063535418 20.0864688704209)"><path d="M8.53 20.58 C6.47 24.58, 4.09 29.54, 2.89 39.41 M6.68 18.49 C6.86 24.35, 4.23 27.66, 0.71 38.38" stroke="#087f5b" stroke-width="1" fill="none"></path></g></g><g stroke-linecap="round"><g transform="translate(39.41666666666674 39.3205127679546) rotate(0 0.10977160680442921 -10.317550831288145)"><path d="M0.3 -0.24 C0.38 -3.5, 1.01 -16.98, 1.22 -20.39 M-1 -1.41 C-1.13 -4.43, -0.01 -16, 0.34 -19.06" stroke="#087f5b" stroke-width="1" fill="none"></path></g><g transform="translate(39.41666666666674 39.3205127679546) rotate(0 0.10977160680442921 -10.317550831288145)"><path d="M2.59 -9.26 C1.65 -12.42, 0.48 -15.81, 0.38 -19.15 M3.25 -9.19 C1.95 -11.53, 2.25 -13.19, 0.5 -18.98" stroke="#087f5b" stroke-width="1" fill="none"></path></g><g transform="translate(39.41666666666674 39.3205127679546) rotate(0 0.10977160680442921 -10.317550831288145)"><path d="M-4.23 -9.95 C-2.72 -12.88, -1.44 -16.02, 0.38 -19.15 M-3.56 -9.89 C-3.36 -12.12, -1.56 -13.63, 0.5 -18.98" stroke="#087f5b" stroke-width="1" fill="none"></path></g></g><g stroke-linecap="round"><g transform="translate(37.19444444444457 77.09829054573231) rotate(0 -0.5325713483103982 6.470667928575779)"><path d="M0.02 -0.47 C0.06 2.08, 0.36 12.16, 0.37 14.7 M-1.44 -1.76 C-1.52 0.45, -0.52 10.31, -0.38 12.72" stroke="#087f5b" stroke-width="1" fill="none"></path></g><g transform="translate(37.19444444444457 77.09829054573231) rotate(0 -0.5325713483103982 6.470667928575779)"><path d="M-3.67 6.37 C-2.34 8.23, -1.34 10.9, -0.28 12.05 M-3.45 6.32 C-2.03 8.65, -1.57 10.83, -0.28 13.01" stroke="#087f5b" stroke-width="1" fill="none"></path></g><g transform="translate(37.19444444444457 77.09829054573231) rotate(0 -0.5325713483103982 6.470667928575779)"><path d="M1.25 5.98 C1.07 7.95, 0.55 10.75, -0.28 12.05 M1.47 5.93 C1.22 8.36, 0 10.67, -0.28 13.01" stroke="#087f5b" stroke-width="1" fill="none"></path></g></g></svg>