<svg version="1.1" xmlns="http://www.w3.org/2000/svg" viewBox="0 0 473 476.01330376940143" width="473" height="476.01330376940143">
  <!-- svg-source:excalidraw -->
  
  <defs>
    <style>
      @font-face {
        font-family: "Virgil";
        src: url("https://excalidraw.com/Virgil.woff2");
      }
      @font-face {
        font-family: "Cascadia";
        src: url("https://excalidraw.com/Cascadia.woff2");
      }
    </style>
  </defs>
  <g stroke-linecap="round" transform="translate(10 10) rotate(0 226.5 228.00665188470072)"><path d="M-0.93 0.14 C176 0.81, 349.58 -0.66, 452.97 -0.42 M0.37 -0.2 C149.35 -2.4, 298.04 -1.57, 453.06 0.39 M452.79 -0.91 C452.1 117.05, 452.65 234.84, 452.61 456.95 M452.56 -0.37 C452.44 169.03, 452.63 338.81, 453.11 455.72 M452.56 456.12 C285.71 454.15, 116.68 454.34, 0.49 456.47 M452.63 456.04 C345.74 457.36, 239.69 458.14, -0.3 456.06 M-0.86 456.57 C-1.2 278.96, -0.01 103.48, -0.58 0.43 M-0.05 456.3 C0.56 361.47, 0.62 267.53, -0.04 -0.36" stroke="#000000" stroke-width="1" fill="none"></path></g><g stroke-linecap="round"><g transform="translate(14.277777777776464 112.45109632914517) rotate(0 222.70889698875453 -0.011233610701225416)"><path d="M-0.75 0.86 C73.63 0.66, 371.73 -0.78, 446.17 -0.88 M1.06 0.26 C75.27 0.16, 371.13 -0.09, 445.09 0.14" stroke="#000000" stroke-width="1" fill="none"></path></g></g><g stroke-linecap="round"><g transform="translate(12.180535298543418 290.1704923706858) rotate(0 222.75254332435622 0.006864128131269354)"><path d="M-0.65 0.89 C73.53 1.09, 371.69 0.97, 446.15 0.79 M1.21 0.31 C75.12 0.19, 371.07 -1.08, 445.07 -0.98" stroke="#000000" stroke-width="1" fill="none"></path></g></g><g stroke-linecap="round"><g transform="translate(152.0555555555543 112.45109632914517) rotate(0 0.7767395103218178 88.85746413076657)"><path d="M-0.79 -0.09 C-0.44 29.45, 1.9 148.03, 2.35 177.69 M0.99 -1.18 C1.24 28.46, 1.82 148.87, 1.88 178.9" stroke="#000000" stroke-width="1" fill="none"></path></g></g></svg>